<?xml version='1.0' encoding='utf-8'?>
<svg xmlns:ns0="http://www.w3.org/2000/svg" xmlns="http://www.w3.org/2000/svg" style="display: none;">
  <!--Généré automatiquement par create_sprite.py à partir des icônes dans /home/geo/Developpement/ENKA-COOKBOOK/hugo-cookbook-theme/static/icons-->
  <symbol id="sans-gluten" viewBox="0 0 14 14">
    <ns0:path d="m 6.5232086,12.983925 c -2.402919,-0.158 -4.531541,-1.8703 -5.229897,-4.2071 -0.34855497,-1.1663 -0.36992997,-2.0644 -0.07666,-3.2205 0.568674,-2.2418 2.339724,-3.9468 4.578899,-4.4082 1.037499,-0.2137 1.617793,-0.2001 2.726022,0.064 2.0387694,0.486 3.7598434,2.2094 4.3337064,4.3396 0.186507,0.6923 0.172678,2.3026 -0.02602,3.0298 -0.652295,2.3874 -2.745872,4.1714 -5.1597044,4.3969 -0.279066,0.026 -0.794924,0.028 -1.146352,0.01 z m 1.870005,-1.3055 c 2.6262414,-0.7559 4.1102714,-3.5955 3.2415114,-6.2024 -0.185144,-0.5556 -0.632726,-1.3636 -0.755317,-1.3636 -0.04337,0 -0.260049,0.1828 -0.4815,0.4062 l -0.4026374,0.4063 -0.490059,0.038 c -0.269533,0.021 -0.626638,0.08 -0.793566,0.1306 l -0.303506,0.092 0,-0.2231 c 0,-0.1993 0.08346,-0.3083 0.781756,-1.0205 l 0.781755,-0.7973 -0.158769,-0.1225 c -0.258941,-0.1997 -1.149904,-0.6117 -1.59643,-0.7383 -0.559027,-0.1584 -1.780823,-0.1622 -2.36415,-0.01 -0.57961,0.1539 -1.501678,0.6218 -1.903167,0.9658 -0.784206,0.672 -1.405346,1.6445 -1.657139,2.5947 -0.151103,0.5702 -0.148372,1.7325 0.0055,2.3322 0.122827,0.4787 0.624422,1.568 0.782474,1.6992 0.08002,0.066 0.163853,0.012 0.513055,-0.3307 l 0.41741,-0.4101 0.105711,0.1598 c 0.05814,0.088 0.244017,0.3078 0.41306,0.4888 l 0.307351,0.3292 -0.354713,0.3691 c -0.195093,0.2031 -0.354714,0.3898 -0.354714,0.415 0,0.1328 1.054359,0.678 1.603793,0.8294 0.815667,0.2246 1.791557,0.2096 2.66231,-0.041 z m -2.609889,-1.8373 c -0.479798,-0.1974 -0.777824,-0.4356 -1.02311,-0.8178 -0.178315,-0.2779 -0.373502,-0.8657 -0.376522,-1.1338 -0.0017,-0.1494 0.767787,-0.052 1.178392,0.1484 0.63217,0.3093 1.18476,1.117 1.18476,1.7317 l 0,0.2212 -0.303506,0 c -0.167053,0 -0.463787,-0.068 -0.660014,-0.1482 z m 1.538584,-0.086 c 0,-0.4121 0.180926,-0.8288 0.521775,-1.2018 0.390043,-0.4267 0.864676,-0.6702 1.401442,-0.7189 l 0.396934,-0.036 -0.03637,0.3524 c -0.09721,0.9419 -0.926957,1.7343 -1.909129,1.8234 l -0.374648,0.034 0,-0.2531 z m -1.23099,-1.9428 c -0.874006,-0.2059 -1.55623,-0.9692 -1.673652,-1.8725 l -0.04064,-0.3126 0.354608,0.042 c 1.069923,0.1257 1.897788,0.8981 1.997431,1.8636 l 0.03606,0.3494 -0.216601,-0.01 c -0.119131,0 -0.324873,-0.032 -0.457204,-0.063 z m 1.246063,-0.2924 c 0.07748,-0.8545 0.737264,-1.5758 1.63447,-1.7869 0.600694,-0.1414 0.650712,-0.1287 0.650712,0.1657 0,0.7121 -0.590621,1.5169 -1.311154,1.7865 -0.209386,0.078 -0.521995,0.1591 -0.694688,0.1796 l -0.313986,0.037 0.03465,-0.3821 z m -0.521453,-1.3995 c -0.36342,-0.4139 -0.482759,-0.7524 -0.482759,-1.3694 0,-0.6143 0.119412,-0.9557 0.476551,-1.3624 0.23767,-0.2707 0.273925,-0.2595 0.57519,0.1784 0.208298,0.3027 0.38467,0.8478 0.38467,1.1888 0,0.4099 -0.234888,1.0416 -0.497203,1.3372 l -0.241529,0.2722 -0.21492,-0.2448 z" />
  </symbol>
  <symbol id="sans-lactose" viewBox="0 0 14 14">
    <ns0:path d="M 6.3761687,12.96711 C 4.3525441,12.76601 2.561944,11.52271 1.6603755,9.6925096 c -1.14371749,-2.3218 -0.69966864,-5.1066 1.0981152,-6.8868 1.0108814,-1.001 2.0375973,-1.5037 3.5345057,-1.7307 0.6580286,-0.10000001 0.7536449,-0.10000001 1.4226037,0 1.5153384,0.2227 2.6461019,0.7922 3.6384679,1.8327 0.744079,0.78 1.184387,1.5843 1.466116,2.6779 0.155164,0.6023 0.165184,0.7219 0.135335,1.6146 -0.03698,1.106 -0.149551,1.5896 -0.570658,2.4516 C 11.273779,11.92601 8.9261737,13.22191 6.3761687,12.96861 Z m 1.2798912,-1.1444 c 2.1820186,-0.3036 3.8792261,-2.0260004 4.1732311,-4.2353004 0.133547,-1.0035 -0.105918,-2.1322 -0.644867,-3.0393 -0.141316,-0.2379 -0.291508,-0.4324 -0.333761,-0.4323 -0.04225,10e-5 -0.4137,0.3438 -0.825443,0.7638 l -0.748621,0.7638 -0.2707424,-0.5249 c -0.1489085,-0.2888 -0.2809228,-0.5646 -0.2933657,-0.613 -0.012448,-0.049 0.2576076,-0.3694 0.6001121,-0.7133 0.5242837,-0.5262 0.6101725,-0.6402 0.5432725,-0.7208 -0.1268701,-0.1528 -1.2103526,-0.6632 -1.663276,-0.7834 -0.6403385,-0.17 -1.8036409,-0.1547 -2.4537738,0.032 -0.8625299,0.2478 -1.4486324,0.5999 -2.1423791,1.2865 -0.5306176,0.5253 -0.6520676,0.6876 -0.9060567,1.211 -0.1613175,0.3324 -0.3423736,0.8052 -0.4023458,1.0506 -0.1483105,0.6068 -0.1471267,1.7058 0.0025,2.2944 0.1164659,0.4582 0.5177568,1.3421 0.7379205,1.6252 l 0.1238856,0.1594 0.570438,-0.5665 0.570439,-0.5665 0.1409548,0.2796 c 0.077527,0.1539 0.2402565,0.4022 0.3616265,0.5519 l 0.2206716,0.2721 -0.4514276,0.4604004 c -0.2482851,0.2533 -0.4514277,0.48 -0.4514277,0.5037 0,0.094 0.7510253,0.5053 1.2589547,0.6891 0.7972836,0.2885 1.4785034,0.3636 2.2835078,0.2516 z M 6.2735336,9.8855096 c -1.0701357,-0.3939 -1.6652406,-1.461 -1.4337868,-2.5712 0.121289,-0.5817 0.4645045,-1.372 1.0068212,-2.3187 0.3805543,-0.6642 0.9968578,-1.6375 1.1345461,-1.7918 0.025206,-0.028 0.2465504,0.2586 0.491883,0.6374 1.2055644,1.8612 1.7529062,3.0924 1.754541,3.9465 0.0018,0.947 -0.6110594,1.8028 -1.4957597,2.0885 -0.3813541,0.1232 -1.1357259,0.1280004 -1.4582448,0.01 z m 0.7081124,-0.5437 c 0.070108,-0.07 0.127469,-0.1705 0.127469,-0.2231 0,-0.1273 -0.2285443,-0.3505 -0.3589499,-0.3505 -0.206397,0 -0.5261833,-0.2637 -0.6632817,-0.5469 -0.1138992,-0.2353 -0.1312414,-0.3492 -0.096054,-0.6308 0.039923,-0.3196 0.031685,-0.3511 -0.1173457,-0.4487 -0.3429485,-0.2247 -0.5499824,0.024 -0.5475318,0.6586 0.0028,0.7363 0.4956354,1.3922 1.2091409,1.6093 0.2523314,0.077 0.3107658,0.068 0.4465534,-0.068 z" />
  </symbol>
  <symbol id="vegan" viewBox="0 0 14 14">
    <ns0:path style="opacity: 1; stroke-linejoin: round; stroke-miterlimit: 4; stroke-dasharray: none; stroke-width: 2.82843" d="M 7 1 C 5.409 1 3.883 1.633 2.757 2.76 C 1.632 3.886 1 5.414 1 7.008 C 1 10.094 3.336 12.679 6.403 12.985 C 6.395 12.794 6.383 12.589 6.363 12.445 C 6.122 10.675 5.779 8.904 5.202 7.214 C 4.449 5.009 2.853 2.814 2.853 2.814 C 2.853 2.814 3.639 3.156 3.991 3.442 C 4.52 3.873 4.996 4.544 5.36 5.136 C 6.351 6.747 7.054 10.231 7.054 10.231 C 7.054 10.231 7.832 8.115 8.325 7.104 C 8.763 6.205 9.385 5.324 9.876 4.522 C 9.582 4.485 9.328 4.727 9.084 4.931 C 8.75 5.211 8.223 6.134 8.223 6.134 C 8.223 6.134 8.294 5.063 8.415 4.714 C 8.592 4.201 8.956 3.76 9.374 3.542 C 9.674 3.385 11.041 3.148 11.52 3.068 C 10.383 1.757 8.734 1.003 7 1 C 7 1 7 1 7 1 M 12.1 3.85 C 12.021 4.455 11.87 5.272 11.6 5.679 C 11.418 5.953 10.926 6.185 10.63 6.327 C 10.153 6.557 9.415 6.589 9.415 6.589 C 9.415 6.589 8.686 7.915 8.436 8.626 C 7.946 10.018 7.611 11.549 7.434 12.939 C 7.432 12.959 7.429 12.98 7.427 13 C 10.567 12.776 13 10.16 13 7.008 C 12.999 5.892 12.687 4.799 12.1 3.85 C 12.1 3.85 12.1 3.85 12.1 3.85" id="path3729" />
  </symbol>
  <symbol id="vegetarien" viewBox="0 0 14 14">
    <ns0:path d="m 6.1321432,12.906479 c -2.704875,-0.4205 -4.696138,-2.4749 -5.082735,-5.2441004 -0.35098597,-2.514 1.201849,-5.2061 3.582351,-6.2106 0.896554,-0.3783 1.26464,-0.445 2.430332,-0.4401 0.956122,0 1.108131,0.02 1.617809,0.1764 1.090883,0.3336 1.9399318,0.8492 2.6725748,1.6229 0.500314,0.5284 0.732108,0.8557 1.032529,1.458 0.493224,0.989 0.652046,1.7523 0.607977,2.922 -0.04688,1.2444 -0.33649,2.162 -0.985362,3.1222004 -0.986789,1.4601 -2.5258298,2.4019 -4.2739888,2.6152 -0.696347,0.085 -0.934375,0.082 -1.601487,-0.022 z m 2.110829,-1.2227 c 1.65682,-0.447 2.9718628,-1.7339004 3.4594428,-3.3855004 0.227278,-0.7699 0.243159,-1.8019 0.03907,-2.539 -0.192312,-0.6946 -0.704045,-1.7123 -0.861665,-1.7137 -0.02839,0 -0.280312,0.2298 -0.559834,0.5112 -0.279522,0.2814 -0.5201598,0.5117 -0.5347498,0.5117 -0.02805,0 -0.612596,-1.0802 -0.612596,-1.132 0,-0.017 0.176686,-0.2143 0.392636,-0.4392 0.309625,-0.3224 0.377321,-0.4273 0.320191,-0.4962 -0.133507,-0.1608 -1.251564,-0.6785 -1.704147,-0.789 -0.666102,-0.1627 -1.778891,-0.1482 -2.417488,0.031 -1.759179,0.4947 -3.11298,1.9221 -3.498096,3.6885 -0.159002,0.7293 -0.158929,1.318 2.56e-4,2.0466 0.122048,0.5586 0.496062,1.4207 0.763075,1.7588 l 0.126271,0.1599 0.505158,-0.501 0.505157,-0.501 0.166497,0.2771 c 0.09157,0.1525 0.266494,0.3923 0.388712,0.533 l 0.222215,0.2558 -0.419289,0.4252004 c -0.230609,0.2339 -0.400121,0.4562 -0.376695,0.4941 0.142601,0.2307 1.417422,0.7792 2.09129,0.8997 0.460802,0.082 1.532928,0.031 2.004586,-0.096 z M 7.2859372,9.7794786 c -0.140703,-0.047 -0.349604,-0.1335 -0.464223,-0.1933 -0.319551,-0.1665 -0.88893,-0.7804 -1.169681,-1.2611 -0.363644,-0.6227 -0.540562,-0.8084 -0.980843,-1.0296 -0.848595,-0.4265 -0.998905,-0.6482 -0.998533,-1.473 2.77e-4,-0.6038 0.107898,-0.8546 0.462858,-1.0786 0.276323,-0.1744 0.763458,-0.1333 1.583498,0.1336 0.378784,0.1233 0.896592,0.23 1.375056,0.2835 1.641857,0.1836 2.709902,0.7969 2.9130888,1.6729 0.09029,0.3892 0.07107,1.3109 -0.03477,1.6673 -0.219105,0.7378 -1.042347,1.3044 -1.950957,1.3428 -0.282394,0.012 -0.584885,-0.014 -0.735495,-0.064 z m 1.400251,-1.1199 c 0.617665,-0.2732 1.006541,-0.8032 1.011714,-1.3788 0.0088,-0.9805 -0.92749,-1.5975 -2.673949,-1.7622 -0.438657,-0.041 -0.888517,-0.1291 -1.182374,-0.2307 -0.260879,-0.09 -0.659871,-0.2039 -0.886651,-0.2526 -0.361866,-0.078 -0.437633,-0.077 -0.619119,0.01 -0.267156,0.1268 -0.377615,0.4121 -0.252898,0.6533 0.122097,0.2361 0.25424,0.3394 0.790226,0.6176 0.487021,0.2527 0.684101,0.4533 1.036903,1.0554 0.612661,1.0455 1.307668,1.515 2.133337,1.4411 0.205537,-0.018 0.494802,-0.087 0.642811,-0.1524 z m -1.06656,-0.2107 c -0.133052,-0.029 -0.320124,-0.094 -0.415715,-0.1436 -0.279361,-0.1448 -0.708806,-0.6141 -0.972125,-1.0623 -0.385878,-0.6568 -0.706305,-0.9766 -1.274771,-1.2724 -0.489631,-0.2547 -0.646562,-0.4246 -0.544585,-0.5896 0.06674,-0.108 0.544124,-0.031 1.242625,0.2001 0.404876,0.134 0.831627,0.2212 1.279121,0.2613 0.997685,0.09 1.638989,0.3047 2.059234,0.6912 l 0.33912,0.3118 0,0.4116 c 0,0.3502 -0.02616,0.446 -0.175348,0.6416 -0.190462,0.2497 -0.712861,0.5302 -1.071796,0.5755 -0.123115,0.016 -0.332707,0 -0.46576,-0.025 z m 0.831791,-0.8844 c 0.356376,-0.2173 0.367071,-0.5836 0.02379,-0.8149 -0.602641,-0.4061 -1.550909,0.032 -1.293283,0.5972 0.150277,0.3298 0.88032,0.455 1.269489,0.2177 z" />
  </symbol>
</svg>