<?xml version="1.0" encoding="UTF-8"?>
<svg xmlns="http://www.w3.org/2000/svg" style="display: none;">

  <symbol id="ingredients" viewBox="0 0 512 480">
    <g transform="matrix(1.000002, 0, 0, 0.998546, 0, 0.022753)">
    <g>
      <path d="M491.052,204.803h-5.167c26.665-58.593,38.59-120.751,8.052-138.383c-11.752-6.785-33.084-8.498-67.973,21.872 c-20.655,17.98-41.916,43.768-60.971,73.78c-5.926-4.343-12.512-7.578-19.585-9.554c-0.075-7.784-1.404-15.646-3.908-23.262 l33.782-69.584c1.572-3.238,1.367-7.057-0.544-10.109c-1.911-3.051-5.257-4.904-8.857-4.904h-29.258 c-4.002,0-7.652,2.286-9.4,5.885L309.563,86.92c-23.324-15.993-52.897-18.662-76.206-6.74c-1.711-2.263-3.579-4.409-5.594-6.425 c-11.667-11.668-27.179-18.093-43.679-18.093c-9.314,0-18.312,2.049-26.482,5.93V26.099c0-5.771-4.678-10.449-10.449-10.449 h-44.228c-5.771,0-10.449,4.678-10.449,10.449v71.488c0,32.426-10.449,43.999-22.548,57.399 c-10.394,11.511-22.008,24.394-24.522,49.818H20.898C9.375,204.803,0,214.179,0,225.702v35.506 c0,11.523,9.375,20.898,20.898,20.898h5.178v156.561c0,31.805,25.875,57.682,57.682,57.682h344.404 c31.805,0,57.681-25.876,57.681-57.682V282.106h5.21c11.523,0,20.899-9.375,20.899-20.899v-35.505 C511.951,214.179,502.576,204.803,491.052,204.803z M372.852,189.432c1.126-1.951,2.265-3.885,3.412-5.805h0.001 c0.006-0.011,0.011-0.023,0.019-0.034c19.565-32.758,41.925-60.84,63.403-79.537c22.853-19.893,37.879-22.958,43.802-19.536 c12.621,7.286,12.061,52.862-20.682,120.283h-98.433C367.082,199.654,369.915,194.517,372.852,189.432z M354.139,180.048 l0.01,0.002c-4.693,8.178-9.119,16.472-13.226,24.753h-36.101l19.707-40.59c0.375,1.16,0.953,2.256,1.72,3.233 c1.724,2.2,4.258,3.616,7.034,3.935C341.03,172.269,348.158,175.244,354.139,180.048z M343.167,65.56h6.027L278.17,211.85 c-1.481-1.044-3.037-1.984-4.659-2.815L343.167,65.56z M333.713,322.633l42.194,42.194l-42.192,42.191l-42.193-42.194 L333.713,322.633z M322.742,282.106h21.943l-10.972,10.972L322.742,282.106z M464.945,339.863v50.02 c-0.383,0.289-0.758,0.598-1.108,0.948l-16.186,16.186l-42.189-42.189l7.987-7.987c4.08-4.08,4.081-10.697,0-14.777 s-10.697-4.08-14.777,0l-7.987,7.987l-42.194-42.194l25.75-25.75h32.946L464.945,339.863z M436.742,282.106h28.203v28.203 L436.742,282.106z M276.745,350.047l-11.162-11.162c-4.08-4.079-10.697-4.079-14.778,0c-4.08,4.08-4.08,10.697,0,14.778 l11.162,11.162l-42.237,42.237l-42.19-42.19l35.167-35.167c4.08-4.08,4.08-10.697,0-14.778c-4.08-4.079-10.697-4.079-14.778,0 l-35.167,35.167l-42.191-42.191l25.796-25.797h146.819l25.75,25.75L276.745,350.047z M91.014,307.903l-42.192,42.192l-1.847-1.847 v-66.143h18.242v0.001L91.014,307.903z M105.791,322.682l42.191,42.191l-42.192,42.192l-42.191-42.191L105.791,322.682z M94.773,282.106h22.039l-11.02,11.019L94.773,282.106z M238.206,243.454c0-9.789,7.964-17.752,17.753-17.752 s17.753,7.964,17.753,17.752c0,9.789-7.964,17.753-17.753,17.753S238.206,253.243,238.206,243.454z M157.602,86.295 c7.385-6.301,16.67-9.734,26.482-9.734c10.917,0,21.182,4.252,28.902,11.972c3.127,3.128,5.715,6.725,7.69,10.692 c1.388,2.787,3.946,4.811,6.978,5.519c3.032,0.71,6.224,0.027,8.701-1.858c17.864-13.586,44.249-11.971,63.954,3.102 l-47.975,98.815h-47.66c-2.514-25.424-14.128-38.307-24.522-49.818c-12.099-13.4-22.548-24.973-22.548-57.399V86.295z M113.374,36.549h23.33v7.606h-23.33V36.549z M85.438,168.991c13.095-14.501,27.936-30.939,27.936-71.404V65.053h23.33v32.534 c0,40.465,14.841,56.902,27.936,71.404c9.26,10.256,16.879,18.694,19.03,35.813H66.407 C68.56,187.684,76.177,179.247,85.438,168.991z M20.898,261.208v-35.506h200.745c-2.764,5.32-4.335,11.354-4.335,17.752 s1.572,12.432,4.335,17.753H20.898z M46.975,438.667v-57.168l1.847-1.847l42.191,42.191L53.42,459.435 C49.358,453.521,46.975,446.368,46.975,438.667z M83.757,475.449c-4.961,0.001-9.693-0.992-14.016-2.781l36.049-36.049 l38.829,38.829H83.757z M174.176,475.45l-53.608-53.608l42.192-42.192l42.19,42.19l-7.023,7.023c-4.08,4.08-4.08,10.697,0,14.778 c2.041,2.041,4.715,3.061,7.389,3.061s5.349-1.02,7.389-3.061l7.023-7.023l38.832,38.832H174.176z M234.506,421.841l42.237-42.237 l42.194,42.194l-42.237,42.237L234.506,421.841z M294.84,475.45l38.875-38.875l38.875,38.875H294.84z M348.494,421.797 l42.192-42.191l42.189,42.189l-42.191,42.191L348.494,421.797z M428.161,475.45h-19.388l38.878-38.879l14.964,14.964 C457.387,465.489,443.918,475.45,428.161,475.45z M464.945,424.309l-2.515-2.515l2.515-2.515V424.309z M491.052,261.208H290.275 c2.764-5.321,4.335-11.355,4.335-17.753c0-4.554-0.797-8.923-2.25-12.983l2.316-4.769h52.766h121.852h21.758V261.208z"/>
    </g>
  </g>
  <g>
    <g>
      <path d="M477.229,124.431c-1.493-5.575-7.223-8.883-12.797-7.389l-19.524,5.231c-5.575,1.493-8.883,7.224-7.389,12.797 c1.251,4.669,5.472,7.747,10.087,7.747c0.894,0,1.806-0.116,2.711-0.358l19.524-5.231 C475.415,135.735,478.723,130.005,477.229,124.431z"/>
    </g>
  </g>
  <g>
    <g>
      <path d="M445.914,178.672c-1.493-5.575-7.224-8.883-12.797-7.389l-19.524,5.231c-5.575,1.492-8.883,7.223-7.389,12.796 c1.251,4.669,5.472,7.748,10.087,7.748c0.894,0,1.806-0.116,2.711-0.358l19.524-5.231 C444.1,189.976,447.408,184.246,445.914,178.672z"/>
    </g>
  </g>
  <g>
    <g>
      <path d="M234.806,292.824c-4.08-4.08-10.697-4.08-14.778,0l-0.097,0.097c-4.08,4.08-4.08,10.697,0,14.778 c2.042,2.041,4.716,3.061,7.39,3.061c2.674,0,5.349-1.02,7.389-3.061l0.097-0.097 C238.887,303.522,238.887,296.905,234.806,292.824z"/>
    </g>
  </g>
  <g>
    <g>
      <path d="M191.736,449.833c-4.08-4.08-10.697-4.08-14.777,0l-0.097,0.097c-4.08,4.08-4.08,10.697,0,14.778 c2.041,2.041,4.715,3.061,7.389,3.061c2.674,0,5.349-1.02,7.389-3.061l0.097-0.097 C195.816,460.531,195.816,453.915,191.736,449.833z"/>
    </g>
  </g>
  <g>
    <g>
      <path d="M432.946,322.565c-4.08-4.08-10.697-4.08-14.778,0l-0.097,0.097c-4.08,4.08-4.08,10.697,0,14.778 c2.042,2.041,4.716,3.061,7.39,3.061s5.349-1.02,7.389-3.061l0.097-0.097C437.027,333.263,437.027,326.646,432.946,322.565z"/>
    </g>
  </g>
  </symbol>


  <symbol id="no-vegan" viewBox="0 0 24 24">
    <path fill="none" stroke-width="0.841986" stroke-linecap="round" stroke-linejoin="round" stroke="rgb(0%, 0%, 0%)" stroke-opacity="1" stroke-miterlimit="4" d="M 12.899236 6.282424 C 12.899236 9.218582 10.395436 11.600007 7.306308 11.600007 C 4.217179 11.600007 1.71338 9.218582 1.71338 6.282424 C 1.71338 3.346267 4.217179 0.966709 7.306308 0.966709 C 10.395436 0.966709 12.899236 3.346267 12.899236 6.282424 Z M 12.899236 6.282424 " transform="matrix(1.995405, 0, 0, 2.091381, -2.579043, -1.138945)"/>
<path fill-rule="nonzero" fill="rgb(0%, 0%, 0%)" fill-opacity="1" stroke-width="0.768417" stroke-linecap="butt" stroke-linejoin="miter" stroke="rgb(0%, 0%, 0%)" stroke-opacity="1" stroke-miterlimit="4" d="M 1.451315 7.849967 L 5.559765 7.061438 " transform="matrix(2.069858, 0, 0, 2.090524, -2.703234, -1.43789)"/>
<path fill-rule="nonzero" fill="rgb(0%, 0%, 0%)" fill-opacity="1" stroke-width="0.734087" stroke-linecap="butt" stroke-linejoin="miter" stroke="rgb(0%, 0%, 0%)" stroke-opacity="1" stroke-miterlimit="4" d="M 9.030339 6.467239 L 12.359372 5.852486 " transform="matrix(2.069858, 0, 0, 2.090524, -2.703234, -1.43789)"/>
<path fill-rule="nonzero" fill="rgb(0%, 0%, 0%)" fill-opacity="1" stroke-width="4.86409" stroke-linecap="butt" stroke-linejoin="miter" stroke="rgb(0%, 0%, 0%)" stroke-opacity="1" stroke-miterlimit="4" d="M 345.892219 122.802882 C 345.590941 121.454964 344.506339 120.444026 343.180714 120.107047 C 337.034637 118.646803 330.647538 118.253661 324.079671 118.983783 C 308.714478 120.724842 293.530053 128.138387 281.478921 139.8765 C 269.367534 151.614613 261.715066 166.329377 259.967652 181.324957 C 259.30484 186.941279 259.485607 192.445274 260.630464 197.78078 C 260.570208 197.836943 260.509953 197.893106 260.449697 197.94927 C 243.879391 217.044764 232.671839 237.825156 225.200138 258.380894 C 218.752782 234.174546 209.172133 211.933911 196.5787 192.108295 C 177.899447 162.566441 152.351048 138.023114 120.716828 119.152272 C 119.02967 118.197498 116.920722 118.59064 115.715609 120.107047 C 114.570751 121.567291 114.751518 123.757656 116.197654 124.993247 C 154.640763 159.140485 181.695553 198.847881 196.699212 242.992172 C 202.9658 261.582198 211.341336 291.9665 211.341336 340.716174 C 211.341336 342.73805 213.028495 344.366784 215.137443 344.366784 L 231.225703 344.366784 C 233.274396 344.366784 234.961554 342.73805 234.961554 340.716174 C 234.961554 338.076503 234.961554 335.324505 234.961554 332.572508 C 234.720531 296.178741 234.479509 250.068738 267.017564 203.172449 C 270.090602 203.677918 273.223896 203.958734 276.417446 203.958734 C 278.526394 203.958734 280.695598 203.846408 282.864802 203.565592 C 298.29025 201.880695 313.474675 194.46715 325.525807 182.729037 C 337.637194 170.934761 345.289662 156.219997 347.037076 141.280581 C 347.8204 134.934137 347.39861 128.70002 345.892219 122.802882 Z M 203.809379 240.68948 C 193.023617 208.732608 176.031521 179.078428 153.134372 152.063919 C 167.535474 165.037623 179.948139 179.696223 190.191601 195.927394 C 204.411936 218.336518 214.655398 243.946947 220.741219 272.028557 C 218.813038 278.71198 217.186135 285.507729 215.860511 292.359642 C 213.691307 276.465451 210.015712 258.942526 203.809379 240.68948 Z M 227.429597 332.628671 C 227.429597 334.088914 227.429597 335.605321 227.429597 337.065565 L 218.933549 337.065565 C 219.234828 313.027707 222.970678 282.980384 235.262832 253.101552 C 227.128319 282.306426 227.309086 309.93873 227.429597 332.628671 Z M 339.565375 140.438133 C 336.311569 168.070437 310.461893 193.119233 282.021222 196.320536 C 278.58665 196.713679 275.212333 196.713679 271.958528 196.432863 C 284.13017 180.426345 300.338942 164.363664 321.850212 148.637963 C 323.477114 147.402372 323.838648 145.09968 322.57328 143.470946 C 321.307911 141.898376 318.95794 141.561397 317.270782 142.796988 C 297.024881 157.624078 280.39432 173.405943 267.198331 190.311072 C 267.017564 187.615237 267.077819 184.863239 267.439353 182.167405 C 270.693159 154.535101 296.542836 129.430142 324.983506 126.285001 C 329.803958 125.723369 334.564155 125.891859 339.08333 126.734307 C 339.987165 131.115038 340.107676 135.720422 339.565375 140.438133 Z M 339.565375 140.438133 " transform="matrix(-0.0648279, 0, 0, 0.0695517, 26.833636, -3.068499)"/>
  </symbol>


  <symbol id="preparation" viewBox="0 0 512 448">
    <path style="fill: currentcolor; stroke: currentcolor; stroke-linecap: square; stroke-width: 8px;" d="M 33.956 440.179 C 22.584 438.51 9.732 429.878 4.409 420.334 C 2.928 417.658 1.259 413.027 0.724 409.971 C 0.126 406.475 -0.127 354.847 0.062 268.289 C 0.377 120.904 0.031 130.669 5.511 121.597 C 8.315 116.935 16.536 109.753 21.67 107.455 C 30.647 103.454 32.979 103.265 68.351 103.233 L 101.899 103.233 L 103.126 96.871 C 103.946 92.681 105.427 88.965 107.505 85.941 C 111.033 80.774 118.593 75.262 124.2 73.782 C 128.296 72.68 128.357 72.522 126.94 64.867 C 123.256 44.866 123.885 36.928 130.09 25.651 C 143.508 1.145 178.283 -7.359 204.459 7.476 C 218.854 15.603 228.462 30.754 228.367 45.18 C 228.367 47.952 226.414 61.874 224.053 76.081 C 221.72 90.319 219.989 102.225 220.209 102.572 C 220.461 102.95 242.7 103.233 269.663 103.233 C 323.81 103.233 323.179 103.17 333.354 108.84 C 340.063 112.557 345.292 117.849 348.977 124.685 L 352.065 130.385 L 352.347 189.415 L 352.6 248.444 L 423.378 310.497 C 491.447 370.188 494.314 372.834 497.748 379.039 C 504.771 391.765 504.835 405.121 497.904 417.468 C 490.344 430.95 475.95 439.266 457.68 440.715 C 446.404 441.629 433.048 437.911 423.976 431.359 C 421.992 429.941 405.487 413.404 387.344 394.631 C 369.169 375.858 353.922 360.36 353.418 360.204 C 352.946 360.045 352.569 370.787 352.569 385.308 C 352.569 408.554 352.379 411.074 350.553 415.735 C 345.513 428.556 333.448 437.691 318.171 440.211 C 311.777 441.282 41.231 441.251 33.956 440.179 Z M 321.416 424.334 C 326.518 422.13 331.653 417.531 333.921 413.153 C 335.621 409.908 335.748 406.915 335.779 375.543 L 335.811 341.429 L 328.818 334.153 C 324.944 330.152 321.636 326.751 321.447 326.561 C 321.227 326.373 319.021 327.854 316.534 329.87 C 314.045 331.854 310.013 334.279 307.588 335.224 C 302.17 337.335 293.193 337.46 287.869 335.508 C 285.16 334.531 265.221 317.647 217.501 275.943 L 150.911 217.732 L 146.753 222.552 C 141.492 228.662 134.5 233.482 125.586 237.167 C 116.293 240.979 110.781 242.05 100.324 242.081 C 72.825 242.113 49.2 225.292 43.152 201.416 C 41.483 194.739 42.397 181.823 45.043 174.579 C 49.358 162.893 61.234 150.955 74.305 145.19 C 79.597 142.859 88.858 140.623 96.637 139.804 L 101.3 139.331 L 101.3 128.118 L 101.3 116.873 L 69.045 117.156 L 36.758 117.439 L 31.026 119.927 C 24.474 122.732 19.308 128.181 17.607 134.008 C 16.914 136.464 16.568 180.438 16.568 272.51 C 16.568 405.151 16.599 407.483 18.552 412.019 C 20.946 417.658 26.427 422.476 32.916 424.714 C 37.64 426.318 41.483 426.382 177.654 426.194 C 313.856 426.004 317.667 425.973 321.416 424.334 Z M 191.325 410.947 C 188.552 409.971 186.032 406.758 186.032 404.207 C 186.032 402.884 188.111 400.27 191.922 396.805 C 201.466 388.079 203.641 381.622 200.144 372.141 C 195.608 359.856 178.221 353.903 164.583 359.982 C 159.448 362.281 156.455 362.281 153.179 360.014 C 151.132 358.628 150.564 357.462 150.564 354.816 C 150.564 350.406 153.21 348.013 160.991 345.43 C 177.118 340.075 194.914 343.603 206.759 354.565 C 222.068 368.739 222.037 390.221 206.728 404.396 C 202.223 408.554 196.585 411.892 194.254 411.735 C 193.814 411.703 192.489 411.358 191.325 410.947 Z M 109.174 388.142 C 101.614 386.284 95.094 382.851 89.676 377.843 C 73.454 362.848 74.369 339.76 91.724 326.026 C 94.906 323.506 98.59 321.207 99.946 320.923 C 105.205 319.758 111.128 324.767 109.836 329.271 C 109.489 330.499 106.56 333.775 103.379 336.516 C 98.843 340.453 97.236 342.564 95.977 346.217 C 94.025 352.045 94.025 353.462 95.946 359.132 C 97.93 364.959 103.662 370.471 110.404 373.023 C 116.672 375.354 125.302 375.071 131.602 372.267 C 136.516 370.062 139.508 369.936 142.532 371.795 C 148.265 375.323 146.816 381.906 139.571 385.15 C 130.341 389.276 118.561 390.443 109.174 388.142 Z M 205.216 323.065 C 201.31 321.648 200.522 319.821 200.396 311.569 C 200.271 305.269 199.83 302.906 198.16 300.103 C 191.671 289.361 176.362 284.92 164.266 290.306 C 159.353 292.48 153.148 298.874 151.667 303.253 C 149.116 310.655 142.249 313.238 137.115 308.733 C 134.94 306.843 134.626 305.93 135.035 302.811 C 137.051 287.22 155.542 273.864 175.291 273.738 C 196.112 273.643 212.965 285.865 216.775 303.851 C 219.517 316.734 213.878 326.12 205.216 323.065 Z M 47.846 321.302 C 43.941 318.624 39.373 312.009 37.231 305.93 C 32.726 293.142 36.349 280.038 47.248 269.99 C 60.698 257.515 82.81 255.28 99.568 264.634 C 107.002 268.825 109.521 271.785 108.828 275.596 C 107.632 282.148 100.606 283.534 93.521 278.588 C 82.715 271.092 68.541 271.659 59.028 279.975 C 54.461 283.975 52.792 287.408 52.256 293.802 C 51.847 298.717 52.162 300.197 54.335 304.166 C 55.752 306.717 57.894 309.835 59.06 311.127 C 65.485 318.056 55.847 326.783 47.846 321.302 Z M 468.012 423.642 C 474.691 420.901 480.235 416.082 483.478 410.066 C 485.589 406.191 486.061 404.081 486.061 398.443 C 486.061 385.622 488.077 387.796 424.921 332.484 L 369.326 283.785 L 351.12 299.755 L 332.882 315.695 L 382.934 367.416 C 414.243 399.734 434.529 420.019 437.112 421.5 C 446.151 426.73 458.311 427.579 468.012 423.642 Z M 446.593 403.482 C 441.081 398.254 446.151 390.031 453.996 391.513 C 460.579 392.773 462.688 399.892 457.617 403.703 C 453.964 406.475 449.679 406.381 446.593 403.482 Z M 329.795 297.677 C 344.599 284.7 356.569 273.77 356.379 273.329 C 356.16 272.919 308.343 231.026 250.07 180.249 C 158.124 100.052 143.635 87.767 140.233 86.979 C 133.019 85.31 124.641 88.429 121.333 94.035 C 119.224 97.594 117.774 118.478 118.309 137.694 C 118.656 150.388 119.002 152.718 121.459 159.27 C 124.736 167.964 126.752 171.618 132.452 179.083 C 137.555 185.73 292.782 321.806 295.901 322.341 C 296.972 322.529 298.988 322.373 300.374 321.963 C 301.729 321.584 314.99 310.655 329.795 297.677 Z M 333.732 130.796 C 332.566 128.432 329.858 125.125 327.684 123.424 C 319.841 117.188 322.928 117.47 259.456 117.219 L 202.287 116.966 L 268.813 175.177 L 335.307 233.387 L 335.558 184.218 C 335.811 135.709 335.779 134.984 333.732 130.796 Z M 117.49 224.505 C 125.082 221.418 131.098 217.04 135.288 211.59 L 138.658 207.212 L 129.964 199.275 C 117.018 187.431 107.6 172.909 104.104 159.396 C 103.442 156.845 102.34 154.577 101.614 154.325 C 99.126 153.506 87.977 155.805 81.959 158.388 C 73.958 161.821 64.886 170.231 61.769 177.067 C 59.91 181.194 59.501 183.745 59.469 191.179 C 59.437 199.998 59.564 200.502 63.123 206.834 C 68.604 216.504 78.778 224.001 89.993 226.553 C 91.598 226.93 97.141 227.151 102.308 227.088 C 110.214 226.93 112.545 226.521 117.49 224.505 Z M 91.505 211.338 C 82.684 207.999 76.919 201.353 76.006 193.509 C 75.534 189.477 75.754 188.596 77.802 186.611 C 83.062 181.477 92.449 184.847 92.449 191.872 C 92.449 194.644 95.567 197.037 101.3 198.644 C 105.364 199.81 107.064 200.787 108.041 202.644 C 109.616 205.51 108.923 208.629 106.213 210.992 C 103.82 213.07 96.545 213.259 91.505 211.338 Z M 203.137 100.43 C 206.759 82.35 211.768 46.819 211.326 42.441 C 209.121 20.957 183.04 8.326 160.707 17.933 C 148.707 23.099 139.823 36.203 141.272 46.724 C 141.461 48.172 142.375 54.536 143.288 60.835 L 144.958 72.301 L 150.88 74.915 C 155.258 76.869 160.707 80.901 171.669 90.382 L 186.536 103.201 L 194.569 103.201 L 202.569 103.233 L 203.137 100.43 Z M 174.22 50.913 C 170.85 49.843 168.298 46.882 168.298 44.015 C 168.298 38.282 175.575 34.944 180.962 38.251 C 186.222 41.463 185.434 48.172 179.543 50.315 C 177.717 50.976 176.142 51.48 175.985 51.448 C 175.827 51.417 175.039 51.166 174.22 50.913 Z M 394.967 244.916 C 387.122 239.152 378.208 225.135 375.09 213.763 C 372.507 204.283 372.916 187.84 375.972 179.461 C 379.91 168.719 385.863 160.215 395.408 151.805 C 403.282 144.875 405.581 143.426 414.653 139.583 C 428.512 133.757 437.144 132.181 451.948 132.78 C 469.177 133.44 481.652 137.472 495.606 146.891 C 502.126 151.269 504.678 154.829 503.827 158.293 C 503.418 159.9 487.7 174.201 453.743 203.904 C 399.092 251.657 401.675 249.861 394.967 244.916 Z M 410.117 213.386 C 407.471 208.409 407.251 207.117 407.251 198.423 C 407.251 189.163 407.345 188.722 410.936 182.327 C 421.205 164.183 446.877 156.53 466.942 165.695 L 471.477 167.743 L 477.651 162.294 L 483.825 156.845 L 479.509 154.64 C 477.147 153.443 472.107 151.364 468.327 150.072 C 462.059 147.899 460.232 147.679 448.609 147.647 C 438.592 147.616 434.655 147.962 430.402 149.253 C 417.015 153.253 404.762 161.916 397.896 172.184 C 391.595 181.571 390.494 185.667 390.555 198.896 C 390.587 209.448 390.84 211.086 393.233 216.378 C 394.714 219.591 397.045 223.811 398.463 225.764 L 401.045 229.324 L 406.999 224.064 L 412.983 218.835 L 410.117 213.386 Z M 456.295 177.603 C 448.893 174.799 436.199 177.477 430.214 183.052 C 424.354 188.532 421.709 198.99 424.512 205.479 L 425.552 207.842 L 442.277 193.258 L 459.004 178.642 L 456.295 177.603 Z M 422.78 71.104 C 374.24 28.643 373.232 27.73 373.232 24.423 C 373.232 21.493 373.893 20.485 378.051 16.989 C 380.697 14.752 385.895 11.35 389.642 9.397 C 413.267 -2.887 441.017 -3.14 465.871 8.704 C 474.691 12.925 488.299 24.423 493.368 31.983 C 510.284 57.214 506.567 89.563 484.391 110.352 C 480.612 113.88 479.478 114.447 476.139 114.447 C 472.359 114.447 471.288 113.565 422.78 71.104 Z M 479.037 92.587 C 484.99 83.703 488.14 72.018 487.227 62.41 C 483.856 27.793 445.049 6.059 407.849 17.997 C 402.022 19.856 393.927 23.761 393.927 24.706 C 393.927 25.021 396.509 27.509 399.659 30.25 L 405.393 35.195 L 410.904 32.991 C 427.41 26.376 445.365 29.147 458.059 40.267 C 470.752 51.355 473.903 67.072 466.375 81.499 L 463.823 86.318 L 469.492 91.327 C 472.611 94.098 475.477 96.335 475.824 96.335 C 476.203 96.335 477.651 94.633 479.037 92.587 Z M 453.112 71.136 C 456.925 58.82 446.687 45.874 431.757 44.14 C 427.064 43.606 418.559 44.897 418.559 46.156 C 418.559 46.944 450.373 74.79 451.286 74.79 C 451.664 74.79 452.484 73.152 453.112 71.136 Z" id="path1"/>
  </symbol>


  <symbol id="sans-gluten" viewBox="0 0 14 14">
    <path d="m 6.5232086,12.983925 c -2.402919,-0.158 -4.531541,-1.8703 -5.229897,-4.2071 -0.34855497,-1.1663 -0.36992997,-2.0644 -0.07666,-3.2205 0.568674,-2.2418 2.339724,-3.9468 4.578899,-4.4082 1.037499,-0.2137 1.617793,-0.2001 2.726022,0.064 2.0387694,0.486 3.7598434,2.2094 4.3337064,4.3396 0.186507,0.6923 0.172678,2.3026 -0.02602,3.0298 -0.652295,2.3874 -2.745872,4.1714 -5.1597044,4.3969 -0.279066,0.026 -0.794924,0.028 -1.146352,0.01 z m 1.870005,-1.3055 c 2.6262414,-0.7559 4.1102714,-3.5955 3.2415114,-6.2024 -0.185144,-0.5556 -0.632726,-1.3636 -0.755317,-1.3636 -0.04337,0 -0.260049,0.1828 -0.4815,0.4062 l -0.4026374,0.4063 -0.490059,0.038 c -0.269533,0.021 -0.626638,0.08 -0.793566,0.1306 l -0.303506,0.092 0,-0.2231 c 0,-0.1993 0.08346,-0.3083 0.781756,-1.0205 l 0.781755,-0.7973 -0.158769,-0.1225 c -0.258941,-0.1997 -1.149904,-0.6117 -1.59643,-0.7383 -0.559027,-0.1584 -1.780823,-0.1622 -2.36415,-0.01 -0.57961,0.1539 -1.501678,0.6218 -1.903167,0.9658 -0.784206,0.672 -1.405346,1.6445 -1.657139,2.5947 -0.151103,0.5702 -0.148372,1.7325 0.0055,2.3322 0.122827,0.4787 0.624422,1.568 0.782474,1.6992 0.08002,0.066 0.163853,0.012 0.513055,-0.3307 l 0.41741,-0.4101 0.105711,0.1598 c 0.05814,0.088 0.244017,0.3078 0.41306,0.4888 l 0.307351,0.3292 -0.354713,0.3691 c -0.195093,0.2031 -0.354714,0.3898 -0.354714,0.415 0,0.1328 1.054359,0.678 1.603793,0.8294 0.815667,0.2246 1.791557,0.2096 2.66231,-0.041 z m -2.609889,-1.8373 c -0.479798,-0.1974 -0.777824,-0.4356 -1.02311,-0.8178 -0.178315,-0.2779 -0.373502,-0.8657 -0.376522,-1.1338 -0.0017,-0.1494 0.767787,-0.052 1.178392,0.1484 0.63217,0.3093 1.18476,1.117 1.18476,1.7317 l 0,0.2212 -0.303506,0 c -0.167053,0 -0.463787,-0.068 -0.660014,-0.1482 z m 1.538584,-0.086 c 0,-0.4121 0.180926,-0.8288 0.521775,-1.2018 0.390043,-0.4267 0.864676,-0.6702 1.401442,-0.7189 l 0.396934,-0.036 -0.03637,0.3524 c -0.09721,0.9419 -0.926957,1.7343 -1.909129,1.8234 l -0.374648,0.034 0,-0.2531 z m -1.23099,-1.9428 c -0.874006,-0.2059 -1.55623,-0.9692 -1.673652,-1.8725 l -0.04064,-0.3126 0.354608,0.042 c 1.069923,0.1257 1.897788,0.8981 1.997431,1.8636 l 0.03606,0.3494 -0.216601,-0.01 c -0.119131,0 -0.324873,-0.032 -0.457204,-0.063 z m 1.246063,-0.2924 c 0.07748,-0.8545 0.737264,-1.5758 1.63447,-1.7869 0.600694,-0.1414 0.650712,-0.1287 0.650712,0.1657 0,0.7121 -0.590621,1.5169 -1.311154,1.7865 -0.209386,0.078 -0.521995,0.1591 -0.694688,0.1796 l -0.313986,0.037 0.03465,-0.3821 z m -0.521453,-1.3995 c -0.36342,-0.4139 -0.482759,-0.7524 -0.482759,-1.3694 0,-0.6143 0.119412,-0.9557 0.476551,-1.3624 0.23767,-0.2707 0.273925,-0.2595 0.57519,0.1784 0.208298,0.3027 0.38467,0.8478 0.38467,1.1888 0,0.4099 -0.234888,1.0416 -0.497203,1.3372 l -0.241529,0.2722 -0.21492,-0.2448 z"/>
  </symbol>


  <symbol id="sans-lactose" viewBox="0 0 14 14">
    <path d="M 6.3761687,12.96711 C 4.3525441,12.76601 2.561944,11.52271 1.6603755,9.6925096 c -1.14371749,-2.3218 -0.69966864,-5.1066 1.0981152,-6.8868 1.0108814,-1.001 2.0375973,-1.5037 3.5345057,-1.7307 0.6580286,-0.10000001 0.7536449,-0.10000001 1.4226037,0 1.5153384,0.2227 2.6461019,0.7922 3.6384679,1.8327 0.744079,0.78 1.184387,1.5843 1.466116,2.6779 0.155164,0.6023 0.165184,0.7219 0.135335,1.6146 -0.03698,1.106 -0.149551,1.5896 -0.570658,2.4516 C 11.273779,11.92601 8.9261737,13.22191 6.3761687,12.96861 Z m 1.2798912,-1.1444 c 2.1820186,-0.3036 3.8792261,-2.0260004 4.1732311,-4.2353004 0.133547,-1.0035 -0.105918,-2.1322 -0.644867,-3.0393 -0.141316,-0.2379 -0.291508,-0.4324 -0.333761,-0.4323 -0.04225,10e-5 -0.4137,0.3438 -0.825443,0.7638 l -0.748621,0.7638 -0.2707424,-0.5249 c -0.1489085,-0.2888 -0.2809228,-0.5646 -0.2933657,-0.613 -0.012448,-0.049 0.2576076,-0.3694 0.6001121,-0.7133 0.5242837,-0.5262 0.6101725,-0.6402 0.5432725,-0.7208 -0.1268701,-0.1528 -1.2103526,-0.6632 -1.663276,-0.7834 -0.6403385,-0.17 -1.8036409,-0.1547 -2.4537738,0.032 -0.8625299,0.2478 -1.4486324,0.5999 -2.1423791,1.2865 -0.5306176,0.5253 -0.6520676,0.6876 -0.9060567,1.211 -0.1613175,0.3324 -0.3423736,0.8052 -0.4023458,1.0506 -0.1483105,0.6068 -0.1471267,1.7058 0.0025,2.2944 0.1164659,0.4582 0.5177568,1.3421 0.7379205,1.6252 l 0.1238856,0.1594 0.570438,-0.5665 0.570439,-0.5665 0.1409548,0.2796 c 0.077527,0.1539 0.2402565,0.4022 0.3616265,0.5519 l 0.2206716,0.2721 -0.4514276,0.4604004 c -0.2482851,0.2533 -0.4514277,0.48 -0.4514277,0.5037 0,0.094 0.7510253,0.5053 1.2589547,0.6891 0.7972836,0.2885 1.4785034,0.3636 2.2835078,0.2516 z M 6.2735336,9.8855096 c -1.0701357,-0.3939 -1.6652406,-1.461 -1.4337868,-2.5712 0.121289,-0.5817 0.4645045,-1.372 1.0068212,-2.3187 0.3805543,-0.6642 0.9968578,-1.6375 1.1345461,-1.7918 0.025206,-0.028 0.2465504,0.2586 0.491883,0.6374 1.2055644,1.8612 1.7529062,3.0924 1.754541,3.9465 0.0018,0.947 -0.6110594,1.8028 -1.4957597,2.0885 -0.3813541,0.1232 -1.1357259,0.1280004 -1.4582448,0.01 z m 0.7081124,-0.5437 c 0.070108,-0.07 0.127469,-0.1705 0.127469,-0.2231 0,-0.1273 -0.2285443,-0.3505 -0.3589499,-0.3505 -0.206397,0 -0.5261833,-0.2637 -0.6632817,-0.5469 -0.1138992,-0.2353 -0.1312414,-0.3492 -0.096054,-0.6308 0.039923,-0.3196 0.031685,-0.3511 -0.1173457,-0.4487 -0.3429485,-0.2247 -0.5499824,0.024 -0.5475318,0.6586 0.0028,0.7363 0.4956354,1.3922 1.2091409,1.6093 0.2523314,0.077 0.3107658,0.068 0.4465534,-0.068 z"/>
  </symbol>


  <symbol id="vegan" viewBox="0 0 14 14">
    <path style="opacity: 1; stroke-linejoin: round; fill-opacity: 1; stroke-miterlimit: 4; stroke-dasharray: none; stroke-width: 2.82843; stroke-opacity: 0; stroke: rgb(0, 0, 0);" d="M 7 1 C 5.409 1 3.883 1.633 2.757 2.76 C 1.632 3.886 1 5.414 1 7.008 C 1 10.094 3.336 12.679 6.403 12.985 C 6.395 12.794 6.383 12.589 6.363 12.445 C 6.122 10.675 5.779 8.904 5.202 7.214 C 4.449 5.009 2.853 2.814 2.853 2.814 C 2.853 2.814 3.639 3.156 3.991 3.442 C 4.52 3.873 4.996 4.544 5.36 5.136 C 6.351 6.747 7.054 10.231 7.054 10.231 C 7.054 10.231 7.832 8.115 8.325 7.104 C 8.763 6.205 9.385 5.324 9.876 4.522 C 9.582 4.485 9.328 4.727 9.084 4.931 C 8.75 5.211 8.223 6.134 8.223 6.134 C 8.223 6.134 8.294 5.063 8.415 4.714 C 8.592 4.201 8.956 3.76 9.374 3.542 C 9.674 3.385 11.041 3.148 11.52 3.068 C 10.383 1.757 8.734 1.003 7 1 C 7 1 7 1 7 1 M 12.1 3.85 C 12.021 4.455 11.87 5.272 11.6 5.679 C 11.418 5.953 10.926 6.185 10.63 6.327 C 10.153 6.557 9.415 6.589 9.415 6.589 C 9.415 6.589 8.686 7.915 8.436 8.626 C 7.946 10.018 7.611 11.549 7.434 12.939 C 7.432 12.959 7.429 12.98 7.427 13 C 10.567 12.776 13 10.16 13 7.008 C 12.999 5.892 12.687 4.799 12.1 3.85 C 12.1 3.85 12.1 3.85 12.1 3.85" id="path3729"/>
  </symbol>


  <symbol id="vegetarien" viewBox="0 0 14 14">
    <path d="m 6.1321432,12.906479 c -2.704875,-0.4205 -4.696138,-2.4749 -5.082735,-5.2441004 -0.35098597,-2.514 1.201849,-5.2061 3.582351,-6.2106 0.896554,-0.3783 1.26464,-0.445 2.430332,-0.4401 0.956122,0 1.108131,0.02 1.617809,0.1764 1.090883,0.3336 1.9399318,0.8492 2.6725748,1.6229 0.500314,0.5284 0.732108,0.8557 1.032529,1.458 0.493224,0.989 0.652046,1.7523 0.607977,2.922 -0.04688,1.2444 -0.33649,2.162 -0.985362,3.1222004 -0.986789,1.4601 -2.5258298,2.4019 -4.2739888,2.6152 -0.696347,0.085 -0.934375,0.082 -1.601487,-0.022 z m 2.110829,-1.2227 c 1.65682,-0.447 2.9718628,-1.7339004 3.4594428,-3.3855004 0.227278,-0.7699 0.243159,-1.8019 0.03907,-2.539 -0.192312,-0.6946 -0.704045,-1.7123 -0.861665,-1.7137 -0.02839,0 -0.280312,0.2298 -0.559834,0.5112 -0.279522,0.2814 -0.5201598,0.5117 -0.5347498,0.5117 -0.02805,0 -0.612596,-1.0802 -0.612596,-1.132 0,-0.017 0.176686,-0.2143 0.392636,-0.4392 0.309625,-0.3224 0.377321,-0.4273 0.320191,-0.4962 -0.133507,-0.1608 -1.251564,-0.6785 -1.704147,-0.789 -0.666102,-0.1627 -1.778891,-0.1482 -2.417488,0.031 -1.759179,0.4947 -3.11298,1.9221 -3.498096,3.6885 -0.159002,0.7293 -0.158929,1.318 2.56e-4,2.0466 0.122048,0.5586 0.496062,1.4207 0.763075,1.7588 l 0.126271,0.1599 0.505158,-0.501 0.505157,-0.501 0.166497,0.2771 c 0.09157,0.1525 0.266494,0.3923 0.388712,0.533 l 0.222215,0.2558 -0.419289,0.4252004 c -0.230609,0.2339 -0.400121,0.4562 -0.376695,0.4941 0.142601,0.2307 1.417422,0.7792 2.09129,0.8997 0.460802,0.082 1.532928,0.031 2.004586,-0.096 z M 7.2859372,9.7794786 c -0.140703,-0.047 -0.349604,-0.1335 -0.464223,-0.1933 -0.319551,-0.1665 -0.88893,-0.7804 -1.169681,-1.2611 -0.363644,-0.6227 -0.540562,-0.8084 -0.980843,-1.0296 -0.848595,-0.4265 -0.998905,-0.6482 -0.998533,-1.473 2.77e-4,-0.6038 0.107898,-0.8546 0.462858,-1.0786 0.276323,-0.1744 0.763458,-0.1333 1.583498,0.1336 0.378784,0.1233 0.896592,0.23 1.375056,0.2835 1.641857,0.1836 2.709902,0.7969 2.9130888,1.6729 0.09029,0.3892 0.07107,1.3109 -0.03477,1.6673 -0.219105,0.7378 -1.042347,1.3044 -1.950957,1.3428 -0.282394,0.012 -0.584885,-0.014 -0.735495,-0.064 z m 1.400251,-1.1199 c 0.617665,-0.2732 1.006541,-0.8032 1.011714,-1.3788 0.0088,-0.9805 -0.92749,-1.5975 -2.673949,-1.7622 -0.438657,-0.041 -0.888517,-0.1291 -1.182374,-0.2307 -0.260879,-0.09 -0.659871,-0.2039 -0.886651,-0.2526 -0.361866,-0.078 -0.437633,-0.077 -0.619119,0.01 -0.267156,0.1268 -0.377615,0.4121 -0.252898,0.6533 0.122097,0.2361 0.25424,0.3394 0.790226,0.6176 0.487021,0.2527 0.684101,0.4533 1.036903,1.0554 0.612661,1.0455 1.307668,1.515 2.133337,1.4411 0.205537,-0.018 0.494802,-0.087 0.642811,-0.1524 z m -1.06656,-0.2107 c -0.133052,-0.029 -0.320124,-0.094 -0.415715,-0.1436 -0.279361,-0.1448 -0.708806,-0.6141 -0.972125,-1.0623 -0.385878,-0.6568 -0.706305,-0.9766 -1.274771,-1.2724 -0.489631,-0.2547 -0.646562,-0.4246 -0.544585,-0.5896 0.06674,-0.108 0.544124,-0.031 1.242625,0.2001 0.404876,0.134 0.831627,0.2212 1.279121,0.2613 0.997685,0.09 1.638989,0.3047 2.059234,0.6912 l 0.33912,0.3118 0,0.4116 c 0,0.3502 -0.02616,0.446 -0.175348,0.6416 -0.190462,0.2497 -0.712861,0.5302 -1.071796,0.5755 -0.123115,0.016 -0.332707,0 -0.46576,-0.025 z m 0.831791,-0.8844 c 0.356376,-0.2173 0.367071,-0.5836 0.02379,-0.8149 -0.602641,-0.4061 -1.550909,0.032 -1.293283,0.5972 0.150277,0.3298 0.88032,0.455 1.269489,0.2177 z"/>
  </symbol>

</svg>