<svg xmlns="http://www.w3.org/2000/svg">
  <symbol id="add-to-cart" viewBox="0 0 24 24">

  <g transform="matrix(0.923069, 0, 0, 0.923069, 0, 0.038465)">
    <path style="fill:#030104;" d="M25.856,10.641C21.673,19.5,20.312,19.5,19.5,19.5h-8c-2.802,0-4.949-1.648-5.47-4.2 c-0.016-0.078-1.6-7.853-2.005-10.025C3.826,4.21,3.32,3.5,1.5,3.5C0.671,3.5,0,2.829,0,2s0.671-1.5,1.5-1.5 c3.02,0,4.964,1.5,5.474,4.224c0.401,2.149,1.98,9.898,1.996,9.977c0.319,1.566,1.722,1.8,2.53,1.8h7.605 c0.817-0.878,2.679-4.261,4.038-7.141c0.354-0.749,1.249-1.068,1.997-0.716C25.89,8.997,26.21,9.891,25.856,10.641z M10.5,20.5 C9.119,20.5,8,21.619,8,23s1.119,2.5,2.5,2.5S13,24.381,13,23S11.881,20.5,10.5,20.5z M19.5,20.5c-1.381,0-2.5,1.119-2.5,2.5 s1.119,2.5,2.5,2.5S22,24.381,22,23S20.881,20.5,19.5,20.5z M14.663,12.344c0.1,0.081,0.223,0.12,0.346,0.12 s0.244-0.039,0.346-0.12c0.1-0.079,2.828-2.74,4.316-4.954c0.115-0.172,0.126-0.392,0.028-0.574 c-0.095-0.181-0.285-0.295-0.49-0.295h-2.226c0,0-0.217-4.291-0.359-4.49c-0.206-0.294-1.057-0.494-1.616-0.494 c-0.561,0-1.427,0.2-1.634,0.494c-0.141,0.198-0.328,4.49-0.328,4.49h-2.255c-0.206,0-0.395,0.114-0.492,0.295 c-0.097,0.182-0.086,0.403,0.028,0.574C11.816,9.605,14.564,12.265,14.663,12.344z"/>
  </g>
</symbol>
  <symbol id="bread" viewBox="0 0 24 24" fill="#000000" stroke="none">

  <g id="SVGRepo_bgCarrier" stroke-width="0"/>
  <g id="SVGRepo_tracerCarrier" stroke-linecap="round" stroke-linejoin="round"/>
  <g id="SVGRepo_iconCarrier" style="" transform="matrix(1.136003, 0, 0, 1.055882, -1.632036, -0.670584)">
    <title>bread_line</title>
    <g id="页面-1" stroke="none" stroke-width="1" fill="none" fill-rule="evenodd">
      <g id="Food" transform="translate(-48.000000, 0.000000)">
        <g id="bread_line" transform="translate(48.000000, 0.000000)">
          <path d="M24,0 L24,24 L0,24 L0,0 L24,0 Z M12.5934901,23.257841 L12.5819402,23.2595131 L12.5108777,23.2950439 L12.4918791,23.2987469 L12.4918791,23.2987469 L12.4767152,23.2950439 L12.4056548,23.2595131 C12.3958229,23.2563662 12.3870493,23.2590235 12.3821421,23.2649074 L12.3780323,23.275831 L12.360941,23.7031097 L12.3658947,23.7234994 L12.3769048,23.7357139 L12.4804777,23.8096931 L12.4953491,23.8136134 L12.4953491,23.8136134 L12.5071152,23.8096931 L12.6106902,23.7357139 L12.6232938,23.7196733 L12.6232938,23.7196733 L12.6266527,23.7031097 L12.609561,23.275831 C12.6075724,23.2657013 12.6010112,23.2592993 12.5934901,23.257841 L12.5934901,23.257841 Z M12.8583906,23.1452862 L12.8445485,23.1473072 L12.6598443,23.2396597 L12.6498822,23.2499052 L12.6498822,23.2499052 L12.6471943,23.2611114 L12.6650943,23.6906389 L12.6699349,23.7034178 L12.6699349,23.7034178 L12.678386,23.7104931 L12.8793402,23.8032389 C12.8914285,23.8068999 12.9022333,23.8029875 12.9078286,23.7952264 L12.9118235,23.7811639 L12.8776777,23.1665331 C12.8752882,23.1545897 12.8674102,23.1470016 12.8583906,23.1452862 L12.8583906,23.1452862 Z M12.1430473,23.1473072 C12.1332178,23.1423925 12.1221763,23.1452606 12.1156365,23.1525954 L12.1099173,23.1665331 L12.0757714,23.7811639 C12.0751323,23.7926639 12.0828099,23.8018602 12.0926481,23.8045676 L12.108256,23.8032389 L12.3092106,23.7104931 L12.3186497,23.7024347 L12.3186497,23.7024347 L12.3225043,23.6906389 L12.340401,23.2611114 L12.337245,23.2485176 L12.337245,23.2485176 L12.3277531,23.2396597 L12.1430473,23.1473072 Z" id="MingCute" fill-rule="nonzero"/>
          <path d="M19.8388,4.28249 C20.6296,5.07323 21.0191,5.99325 20.9999,7.00196 C20.9815,7.96337 20.5936,8.89623 20.061,9.76635 C19.350136,10.9276811 18.2660466,12.1538711 17.0534745,13.4112369 L16.3808005,14.0999622 L16.3808005,14.0999622 L15.6914685,14.7936565 L15.6914685,14.7936565 L14.4214903,16.0622243 L14.4214903,16.0622243 L13.6811374,16.7917208 C12.329372,18.1092724 11.0106333,19.29936 9.76635,20.061 C8.89623,20.5936 7.96337,20.9815 7.00196,20.9999 C5.99325,21.0191 5.07323,20.6296 4.28249,19.8388 C3.09549,18.6518 2.58607,16.4945 2.88504,14.1937 C3.17819417,11.9377833 4.25625208,9.39137587 6.45019769,7.07308014 L6.77322,6.74153 C9.17029,4.35109 11.84,3.19089 14.1937,2.88504 C16.4945,2.58607 18.6518,3.09549 19.8388,4.28249 Z M18.4246,5.6967 C17.8439,5.11594 16.4175,4.6129 14.4515,4.86837 C14.0213,4.92427 13.5725,5.0162 13.1114,5.14912 C13.3707,5.44854 13.7108,5.66405 14.1447,5.80866 C14.6686,5.9833 14.9518,6.54961 14.7771,7.07356 C14.6025,7.59751 14.0362,7.88067 13.5122,7.70603 C12.5027,7.36953 11.7236,6.76365 11.2039,5.91724 C10.3676,6.35308 9.51905,6.93167 8.69038,7.67872 C8.84875,7.9161 9.06217,8.17829 9.32062,8.43674 C9.74410444,8.86021556 10.1776551,9.16278642 10.4955544,9.30040936 L10.6091,9.3442 C11.1331,9.51884 11.4162,10.0852 11.2416,10.6091 C11.067,11.133 10.5006,11.4162 9.97669,11.2416 C9.23899,10.9957 8.49066,10.4352 7.90641,9.85095 C7.69125,9.63579 7.47931,9.39837 7.28511,9.14742 C6.59822,9.98311 6.07541,10.8328 5.69088,11.6644 C5.962,12.2682 6.40719,12.6576 7.0736,12.8797 C7.59754,13.0544 7.88071,13.6207 7.70607,14.1446 C7.53143,14.6686 6.96511,14.9517 6.44116,14.7771 C5.86762,14.5859 5.36845,14.3078 4.94898,13.948 C4.91661,14.1183 4.88983,14.2863 4.86837,14.4515 C4.6129,16.4175 5.11594,17.8439 5.6967,18.4246 C6.1434,18.8713 6.55322,19.0081 6.96375,19.0002 C7.42157,18.9915 7.99734,18.7989 8.72223,18.3552 C9.67358118,17.7728471 10.7101055,16.8703675 11.8548495,15.774278 L12.4901264,15.1579705 L12.4901264,15.1579705 L13.4851069,14.1714863 L13.4851069,14.1714863 L14.8368418,12.816074 L14.8368418,12.816074 L15.4706394,12.1697529 C16.7036346,10.8992683 17.7199059,9.76006765 18.3552,8.72223 C18.7989,7.99734 18.9915,7.42157 19.0002,6.96375 C19.0081,6.55322 18.8713,6.1434 18.4246,5.6967 Z" id="形状" fill="#000000"/>
        </g>
      </g>
    </g>
  </g>
</symbol>
  <symbol id="cake-slice" viewBox="0 0 24 24" stroke="currentColor" stroke-width="2" stroke-linecap="round" stroke-linejoin="round" fill="none"><path d="M16 13H3"/><path d="M16 17H3"/><path d="m7.2 7.9-3.388 2.5A2 2 0 0 0 3 12.01V20a1 1 0 0 0 1 1h16a1 1 0 0 0 1-1v-8.654c0-2-2.44-6.026-6.44-8.026a1 1 0 0 0-1.082.057L10.4 5.6"/><circle cx="9" cy="7" r="2"/></symbol>
  <symbol id="cook-hot" viewBox="0 0 24 24" fill="#000000" stroke="#000000">

  <g id="SVGRepo_bgCarrier" stroke-width="0"/>
  <g id="SVGRepo_tracerCarrier" stroke-linecap="round" stroke-linejoin="round"/>
  <g id="SVGRepo_iconCarrier" style="" transform="matrix(0.425926, 0, 0, 0.425926, -1.629633, -0.990695)">
    <g>
      <path d="M58.606,31.687c-0.364-0.567-0.903-0.975-1.521-1.255C56.466,30.152,55.755,30.001,55,30H41.375 c-0.111,0-0.213,0.029-0.313,0.063C40.963,30.029,40.861,30,40.75,30H6c-0.552,0-1,0.447-1,1v7c0.004,2.207,1.793,3.996,4,4h28.75 c2.207-0.004,3.996-1.793,4-4v-2H55c1.007-0.003,1.935-0.267,2.673-0.756c0.368-0.246,0.692-0.553,0.933-0.931 C58.848,33.938,59.001,33.481,59,33C59.001,32.519,58.848,32.062,58.606,31.687z M39.162,39.412C38.794,39.777,38.299,40,37.75,40 H9c-0.549,0-1.044-0.223-1.412-0.588C7.223,39.045,7,38.55,7,38v-6h32.75v6C39.75,38.55,39.527,39.045,39.162,39.412z M56.92,33.239c-0.093,0.15-0.316,0.354-0.657,0.507C55.925,33.899,55.482,34.001,55,34H41.75v-2H55 c0.643-0.003,1.215,0.184,1.564,0.42c0.175,0.116,0.293,0.241,0.356,0.341C56.983,32.863,56.999,32.932,57,33 C56.999,33.068,56.983,33.137,56.92,33.239z" style="stroke-width: 1px;"/>
      <path d="M10,34c-0.552,0-1,0.447-1,1v2c0,0.553,0.448,1,1,1s1-0.447,1-1v-2C11,34.447,10.552,34,10,34z" style="stroke-width: 1px;"/>
      <path d="M11.524,16.687c-1.128,1.549-1.528,3.164-1.524,4.569c0.015,2.819,1.472,4.789,1.524,4.876 c0.324,0.447,0.95,0.547,1.397,0.223c0.446-0.323,0.545-0.946,0.224-1.394h0l-0.002-0.003l0,0 c-0.036-0.036-1.157-1.693-1.143-3.702c0.004-1.046,0.271-2.188,1.143-3.396c1.128-1.549,1.528-3.165,1.524-4.57 c-0.015-2.819-1.472-4.79-1.524-4.877c-0.324-0.447-0.949-0.547-1.396-0.223c-0.446,0.323-0.545,0.946-0.224,1.394h0l0.002,0.003 l0,0c0.036,0.036,1.157,1.694,1.143,3.703C12.663,14.336,12.396,15.479,11.524,16.687z" style="stroke-width: 1px;"/>
      <path d="M32.524,16.687c-1.128,1.549-1.528,3.164-1.524,4.569c0.015,2.819,1.472,4.789,1.524,4.876 c0.324,0.447,0.95,0.547,1.397,0.223c0.446-0.323,0.545-0.946,0.224-1.394h0l-0.002-0.003l0,0 c-0.036-0.036-1.157-1.693-1.143-3.702c0.004-1.046,0.271-2.188,1.143-3.396c1.128-1.549,1.528-3.165,1.524-4.57 c-0.015-2.819-1.472-4.79-1.524-4.877c-0.324-0.447-0.949-0.547-1.396-0.223c-0.446,0.323-0.545,0.946-0.224,1.394h0l0.002,0.003 l0,0c0.036,0.036,1.157,1.694,1.143,3.703C33.663,14.336,33.396,15.479,32.524,16.687z" style="stroke-width: 1px;"/>
      <path d="M22.024,16.688c-1.128,1.549-1.528,3.164-1.524,4.568c0.015,2.819,1.472,4.789,1.524,4.876 c0.324,0.447,0.95,0.547,1.397,0.223c0.446-0.323,0.545-0.946,0.224-1.394h0l-0.002-0.003l0,0 c-0.036-0.036-1.157-1.693-1.143-3.702c0.004-1.045,0.271-2.187,1.143-3.395c1.128-1.55,1.528-3.166,1.524-4.571 c-0.015-2.819-1.472-4.79-1.524-4.877c-0.324-0.447-0.95-0.547-1.396-0.223c-0.446,0.323-0.545,0.946-0.224,1.394h0l0.002,0.003 l0,0c0.036,0.036,1.156,1.693,1.143,3.703C23.163,14.336,22.896,15.479,22.024,16.688z" style="stroke-width: 1px;"/>
      <path d="M38,51h-3.765c0.041-0.075,0.087-0.146,0.125-0.224c0.333-0.693,0.515-1.495,0.515-2.35 c-0.001-0.691-0.221-1.306-0.507-1.82c-0.435-0.773-1.024-1.36-1.506-1.778C32.38,44.413,32,44.173,31.97,44.154 c-0.326-0.206-0.739-0.206-1.065,0c-0.04,0.025-0.701,0.44-1.399,1.148c-0.349,0.356-0.709,0.787-0.998,1.304 c-0.287,0.515-0.506,1.129-0.507,1.82c0.001,0.951,0.236,1.831,0.646,2.573h-2.412c0.041-0.075,0.087-0.146,0.125-0.224 c0.333-0.693,0.515-1.495,0.515-2.35c-0.001-0.691-0.221-1.306-0.507-1.82c-0.435-0.773-1.024-1.36-1.506-1.778 C24.38,44.413,24,44.173,23.97,44.154c-0.326-0.206-0.739-0.206-1.065,0c-0.04,0.025-0.701,0.44-1.399,1.148 c-0.349,0.356-0.709,0.787-0.998,1.304c-0.287,0.515-0.506,1.129-0.507,1.82c0.001,0.951,0.236,1.831,0.646,2.573h-2.205 c0.013-0.026,0.03-0.051,0.043-0.078C18.817,50.229,19,49.427,19,48.573c-0.001-0.691-0.221-1.306-0.507-1.821 c-0.435-0.773-1.024-1.36-1.506-1.778c-0.482-0.415-0.862-0.655-0.892-0.674c-0.326-0.206-0.739-0.206-1.065,0 c-0.04,0.025-0.701,0.44-1.399,1.149c-0.349,0.355-0.709,0.786-0.998,1.303c-0.287,0.516-0.506,1.13-0.507,1.821 c0.001,0.888,0.201,1.716,0.561,2.427H9c-0.552,0-1,0.447-1,1s0.448,1,1,1h29c0.552,0,1-0.447,1-1S38.552,51,38,51z M30.254,47.58 c0.251-0.456,0.689-0.916,1.065-1.237c0.042-0.036,0.078-0.063,0.117-0.096c0.174,0.143,0.365,0.309,0.556,0.508 c0.251,0.261,0.486,0.561,0.645,0.854c0.16,0.295,0.239,0.571,0.239,0.818c0.002,0.754-0.225,1.42-0.529,1.844 c-0.151,0.213-0.317,0.364-0.471,0.455c-0.156,0.091-0.292,0.128-0.438,0.129c-0.145-0.001-0.282-0.038-0.438-0.129 c-0.23-0.135-0.49-0.412-0.682-0.815C30.124,49.509,30,48.992,30,48.427C29.999,48.172,30.084,47.886,30.254,47.58z M22.254,47.58 c0.251-0.456,0.689-0.916,1.065-1.237c0.042-0.036,0.078-0.063,0.117-0.096c0.174,0.143,0.365,0.309,0.556,0.508 c0.251,0.261,0.486,0.561,0.645,0.854c0.16,0.295,0.239,0.571,0.239,0.818c0.002,0.754-0.225,1.42-0.529,1.844 c-0.151,0.213-0.317,0.364-0.471,0.455c-0.156,0.091-0.292,0.128-0.438,0.129c-0.145-0.001-0.282-0.038-0.438-0.129 c-0.23-0.135-0.49-0.412-0.682-0.815C22.124,49.509,22,48.992,22,48.427C21.999,48.172,22.084,47.886,22.254,47.58z M15.125,50.871 c-0.23-0.135-0.49-0.412-0.683-0.815c-0.193-0.401-0.318-0.917-0.317-1.482c-0.001-0.255,0.084-0.542,0.254-0.848 c0.251-0.456,0.689-0.916,1.065-1.237c0.042-0.036,0.078-0.063,0.117-0.097c0.174,0.144,0.365,0.31,0.555,0.509 c0.251,0.261,0.486,0.561,0.645,0.854C16.921,48.05,17,48.326,17,48.573c0.002,0.754-0.224,1.42-0.529,1.843 C16.32,50.629,16.154,50.78,16,50.871c-0.156,0.091-0.292,0.128-0.438,0.129C15.417,50.999,15.281,50.962,15.125,50.871z" style="stroke-width: 1px;"/>
    </g>
  </g>
</symbol>
  <symbol id="cooking-pot" viewBox="0 0 24 24" stroke="currentColor" stroke-width="2" stroke-linecap="round" stroke-linejoin="round" fill="none"><path d="M2 12h20"/><path d="M20 12v8a2 2 0 0 1-2 2H6a2 2 0 0 1-2-2v-8"/><path d="m4 8 16-4"/><path d="m8.86 6.78-.45-1.81a2 2 0 0 1 1.45-2.43l1.94-.48a2 2 0 0 1 2.43 1.46l.45 1.8"/></symbol>
  <symbol id="cup-soda" viewBox="0 0 24 24" stroke="currentColor" stroke-width="2" stroke-linecap="round" stroke-linejoin="round" fill="none"><path d="m6 8 1.75 12.28a2 2 0 0 0 2 1.72h4.54a2 2 0 0 0 2-1.72L18 8"/><path d="M5 8h14"/><path d="M7 15a6.47 6.47 0 0 1 5 0 6.47 6.47 0 0 0 5 0"/><path d="m12 8 1-6h2"/></symbol>
  <symbol id="dish" viewBox="0 0 24 24" fill="#000000" stroke="#000000">

  <g id="SVGRepo_bgCarrier" stroke-width="0"/>
  <g id="SVGRepo_tracerCarrier" stroke-linecap="round" stroke-linejoin="round"/>
  <g id="SVGRepo_iconCarrier" transform="matrix(0.421059, 0, 0, 0.421059, -0.000074, -0.000182)">
    <g>
      <path d="M56.784,40.046C56.452,39.4,55.795,39,55.069,39h-1.095c-0.464-12.195-9.362-22.26-21.017-24.52 C32.974,14.319,33,14.159,33,14c0-2.757-2.243-5-5-5s-5,2.243-5,5c0,0.159,0.025,0.32,0.043,0.48 C11.387,16.739,2.489,26.805,2.025,39H1.93c-0.726,0-1.383,0.4-1.715,1.046s-0.276,1.413,0.146,2.004l2.26,3.164 C3.867,46.959,5.891,48,8.034,48h40.932c2.143,0,4.167-1.041,5.413-2.786l2.261-3.164C57.061,41.459,57.116,40.691,56.784,40.046z M25.006,14.172C25.002,14.114,25,14.056,25,14c0-1.654,1.346-3,3-3s3,1.346,3,3c0,0.057-0.002,0.114-0.006,0.172 c-0.047-0.005-0.094-0.007-0.14-0.012c-0.344-0.038-0.69-0.065-1.038-0.089c-0.128-0.009-0.255-0.022-0.383-0.029 C28.957,14.015,28.48,14,28,14s-0.958,0.015-1.432,0.041c-0.128,0.007-0.255,0.02-0.383,0.029 c-0.348,0.024-0.694,0.052-1.038,0.089C25.1,14.165,25.053,14.166,25.006,14.172z M24.406,16.269 c0.535-0.08,1.075-0.138,1.615-0.182c0.11-0.009,0.22-0.017,0.33-0.024c1.098-0.074,2.201-0.074,3.299,0 c0.11,0.008,0.22,0.016,0.33,0.024c0.54,0.044,1.079,0.102,1.615,0.182C42.806,17.96,51.503,27.437,51.979,39H4.02 C4.497,27.437,13.193,17.96,24.406,16.269z M52.751,44.051C51.879,45.271,50.464,46,48.965,46H8.034 c-1.499,0-2.914-0.729-3.786-1.948L2.068,41H54h0.931L52.751,44.051z"/>
      <path d="M27.986,18c-1.643,0-3.278,0.181-4.86,0.537c-0.539,0.121-0.877,0.656-0.756,1.195c0.105,0.465,0.518,0.78,0.975,0.78 c0.073,0,0.147-0.008,0.221-0.024C25.004,20.164,26.491,20,27.986,20c0.004,0,0.008,0,0.013,0h0c0.552,0,1-0.447,1-0.999 C29,18.444,28.556,17.981,27.986,18z"/>
      <path d="M17.15,20.899C11.946,23.982,8.158,29.56,7.016,35.82c-0.099,0.544,0.261,1.064,0.805,1.163 C7.881,36.995,7.941,37,8.001,37c0.474,0,0.895-0.338,0.983-0.82c1.039-5.698,4.473-10.768,9.186-13.56 c0.475-0.281,0.632-0.895,0.351-1.37C18.238,20.775,17.626,20.618,17.15,20.899z"/>
    </g>
  </g>
</symbol>
  <symbol id="fast-food-pudding" viewBox="0 0 24 24" fill="#000000" stroke="#000000">

  <g id="SVGRepo_bgCarrier" stroke-width="0"/>
  <g id="SVGRepo_tracerCarrier" stroke-linecap="round" stroke-linejoin="round"/>
  <g id="SVGRepo_iconCarrier" transform="matrix(0.291446, 0, 0, 0.291446, -2.5723, -2.147253)">
    <g id="_x31_"/>
    <g id="_x32_"/>
    <g id="_x33_"/>
    <g id="_x34_"/>
    <g id="_x35_"/>
    <g id="_x36_"/>
    <g id="_x37_"/>
    <g id="_x38_"/>
    <g id="_x39_"/>
    <g id="_x31_0"/>
    <g id="_x31_1"/>
    <g id="_x31_2"/>
    <g id="_x31_3">
      <path d="M89.7,70.4h-6.1H16.4h-6.1c-0.8,0-1.5,0.7-1.5,1.5s0.7,1.5,1.5,1.5h4.6v6.4c0,4.5,3.7,8.2,8.2,8.2h53.8 c4.5,0,8.2-3.7,8.2-8.2v-6.4h4.6c0.8,0,1.5-0.7,1.5-1.5S90.5,70.4,89.7,70.4z M82.1,79.8c0,2.9-2.3,5.2-5.2,5.2H23.1 c-2.9,0-5.2-2.3-5.2-5.2v-6.4h64.1V79.8z M82.5,71.8L78.2,38v0l-1-7.5c-0.4-2.8-2.8-4.9-5.6-4.9H28.4c-2.8,0-5.2,2.1-5.6,4.9 l-1,7.5v0l-4.4,33.7c-0.1,0.4,0.1,0.9,0.4,1.2c0.3,0.3,0.7,0.5,1.1,0.5h62c0.4,0,0.8-0.2,1.1-0.5C82.4,72.6,82.6,72.2,82.5,71.8z M25.8,31c0.2-1.3,1.3-2.3,2.6-2.3h43.2c1.3,0,2.5,1,2.6,2.3l0.7,5.8h-8.9c-0.8,0-1.5,0.7-1.5,1.5v3c0,2.5-2.1,4.6-4.6,4.6 c-2.5,0-4.6-2.1-4.6-4.6v-3c0-0.8-0.7-1.5-1.5-1.5H42.8c-0.8,0-1.5,0.7-1.5,1.5V52c0,2.1-1.7,3.8-3.9,3.8c-2.1,0-3.8-1.7-3.8-3.8 V38.2c0-0.8-0.7-1.5-1.5-1.5h-7L25.8,31z M20.7,70.4l4-30.7h5.9V52c0,3.8,3.1,6.8,6.9,6.8c3.8,0,6.8-3.1,6.8-6.8V39.7h8.1v1.5v0 c0,4.2,3.4,7.6,7.6,7.6c4.2,0,7.6-3.4,7.6-7.6v-1.5h7.8l4,30.7H20.7z M55.4,12.1c0.8,0.1,1.6-0.4,1.7-1.2c0.1-0.8-0.4-1.6-1.2-1.7 c-2.2-0.4-3.6,0.3-4.4,1c-1.2,1-1.7,2.5-2,3.7C45.9,14,43,17,43,20.7c0,3.9,3.1,7,7,7s7-3.1,7-7c0-3-1.8-5.5-4.4-6.5 c0.1-0.7,0.4-1.4,0.9-1.8C53.6,12.3,54.1,11.8,55.4,12.1z M54,20.7c0,2.2-1.8,4-4,4s-4-1.8-4-4s1.8-4,4-4S54,18.5,54,20.7z"/>
    </g>
    <g id="_x31_4"/>
    <g id="_x31_5"/>
    <g id="_x31_6"/>
    <g id="_x31_7"/>
    <g id="_x31_8"/>
    <g id="_x31_9"/>
    <g id="_x32_0"/>
    <g id="_x32_1"/>
    <g id="_x32_2"/>
    <g id="_x32_3"/>
    <g id="_x32_4"/>
  </g>
</symbol>
  <symbol id="food" viewBox="-6 -6 24 24" fill="#000000" stroke="#000000">

  <g id="SVGRepo_bgCarrier" stroke-width="0"/>
  <g id="SVGRepo_tracerCarrier" stroke-linecap="round" stroke-linejoin="round" stroke="#CCCCCC" stroke-width="0.12"/>
  <g id="SVGRepo_iconCarrier" transform="matrix(0.383333, 0, 0, 0.383333, -5.499991, -5.499943)">
    <g>
      <path d="M18.35,20.805c0.195,0.195,0.451,0.293,0.707,0.293c0.256,0,0.512-0.098,0.707-0.293c0.391-0.391,0.391-1.023,0-1.414 c-1.015-1.016-1.015-2.668,0-3.684c0.87-0.87,1.35-2.026,1.35-3.256s-0.479-2.386-1.35-3.256c-0.391-0.391-1.023-0.391-1.414,0 s-0.391,1.023,0,1.414c0.492,0.492,0.764,1.146,0.764,1.842s-0.271,1.35-0.764,1.842C16.555,16.088,16.555,19.01,18.35,20.805z"/>
      <path d="M40.35,20.805c0.195,0.195,0.451,0.293,0.707,0.293c0.256,0,0.512-0.098,0.707-0.293c0.391-0.391,0.391-1.023,0-1.414 c-1.015-1.016-1.015-2.668,0-3.684c0.87-0.87,1.35-2.026,1.35-3.256s-0.479-2.386-1.35-3.256c-0.391-0.391-1.023-0.391-1.414,0 s-0.391,1.023,0,1.414c0.492,0.492,0.764,1.146,0.764,1.842s-0.271,1.35-0.764,1.842C38.555,16.088,38.555,19.01,40.35,20.805z"/>
      <path d="M29.35,14.805c0.195,0.195,0.451,0.293,0.707,0.293c0.256,0,0.512-0.098,0.707-0.293c0.391-0.391,0.391-1.023,0-1.414 c-1.015-1.016-1.015-2.668,0-3.684c0.87-0.87,1.35-2.026,1.35-3.256s-0.479-2.386-1.35-3.256c-0.391-0.391-1.023-0.391-1.414,0 s-0.391,1.023,0,1.414c0.492,0.492,0.764,1.146,0.764,1.842s-0.271,1.35-0.764,1.842C27.555,10.088,27.555,13.01,29.35,14.805z"/>
      <path d="M25.345,28.61c0.073,0,0.147-0.008,0.221-0.024c1.438-0.324,2.925-0.488,4.421-0.488c0.004,0,0.008,0,0.013,0h0 c0.552,0,1-0.447,1-0.999c0-0.553-0.447-1.001-1-1.001c-0.004,0-0.009,0-0.014,0c-1.643,0-3.278,0.181-4.86,0.537 c-0.539,0.121-0.877,0.656-0.756,1.195C24.476,28.295,24.888,28.61,25.345,28.61z"/>
      <path d="M9.821,45.081c0.061,0.012,0.121,0.017,0.18,0.017c0.474,0,0.895-0.338,0.983-0.82c1.039-5.698,4.473-10.768,9.186-13.56 c0.475-0.281,0.632-0.895,0.351-1.37c-0.282-0.475-0.895-0.632-1.37-0.351c-5.204,3.083-8.992,8.661-10.134,14.921 C8.917,44.462,9.277,44.982,9.821,45.081z"/>
      <path d="M55.624,43.721C53.812,33.08,45.517,24.625,34.957,22.577c0.017-0.16,0.043-0.321,0.043-0.48c0-2.757-2.243-5-5-5 s-5,2.243-5,5c0,0.159,0.025,0.32,0.043,0.48C14.483,24.625,6.188,33.08,4.376,43.721C2.286,44.904,0,46.645,0,48.598 c0,5.085,15.512,8.5,30,8.5s30-3.415,30-8.5C60,46.645,57.714,44.904,55.624,43.721z M27.006,22.27 C27.002,22.212,27,22.154,27,22.098c0-1.654,1.346-3,3-3s3,1.346,3,3c0,0.057-0.002,0.114-0.006,0.172 c-0.047-0.005-0.094-0.007-0.14-0.012c-0.344-0.038-0.69-0.065-1.038-0.089c-0.128-0.009-0.255-0.022-0.383-0.029 c-0.474-0.026-0.951-0.041-1.432-0.041s-0.958,0.015-1.432,0.041c-0.128,0.007-0.255,0.02-0.383,0.029 c-0.348,0.024-0.694,0.052-1.038,0.089C27.1,22.263,27.053,22.264,27.006,22.27z M26.399,24.368 c0.537-0.08,1.077-0.138,1.619-0.182c0.111-0.009,0.222-0.017,0.333-0.025c1.098-0.074,2.201-0.074,3.299,0 c0.111,0.008,0.222,0.016,0.333,0.025c0.542,0.044,1.082,0.102,1.619,0.182c10.418,1.575,18.657,9.872,20.152,20.316 c0.046,0.321,0.083,0.643,0.116,0.965c0.011,0.111,0.026,0.221,0.036,0.332c0.039,0.443,0.068,0.886,0.082,1.329 c-15.71,3.641-32.264,3.641-47.974,0c0.015-0.443,0.043-0.886,0.082-1.329c0.01-0.111,0.024-0.221,0.036-0.332 c0.033-0.323,0.07-0.645,0.116-0.965C7.742,34.24,15.981,25.942,26.399,24.368z M30,55.098c-17.096,0-28-4.269-28-6.5 c0-0.383,0.474-1.227,2.064-2.328c-0.004,0.057-0.002,0.113-0.006,0.17C4.024,46.988,4,47.54,4,48.098v0.788l0.767,0.185 c8.254,1.98,16.744,2.972,25.233,2.972s16.979-0.991,25.233-2.972L56,48.886v-0.788c0-0.558-0.024-1.109-0.058-1.658 c-0.004-0.057-0.002-0.113-0.006-0.17C57.526,47.371,58,48.215,58,48.598C58,50.829,47.096,55.098,30,55.098z"/>
    </g>
  </g>
</symbol>
  <symbol id="fryer" viewBox="0 0 24 24" fill="#000000" stroke="#000000">

  <g id="SVGRepo_bgCarrier" stroke-width="0"/>
  <g id="SVGRepo_tracerCarrier" stroke-linecap="round" stroke-linejoin="round"/>
  <g id="SVGRepo_iconCarrier" transform="matrix(0.30137, 0, 0, 0.30137, -3.053433, -3.0685)">
    <g id="_x31_"/>
    <g id="_x32_">
      <path d="M73.8,86.5C73.8,86.5,73.8,86.5,73.8,86.5c-0.8,0-47.2,0-47.6,0c-0.8,0-1.4-0.6-1.5-1.4l-5-53.1c0-0.4,0.1-0.8,0.4-1.2 c0.3-0.3,0.7-0.5,1.1-0.5h10.2c0.8,0,1.5,0.7,1.5,1.5c0,4.6,1.8,8.8,5,12.1c0.1,0.1,0.3,0.3,0.4,0.4c2.1,1.9,4.6,3.3,7.3,4 c0,0,0,0,0.1,0c0,0,0,0,0,0c2.3,0.6,4.9,0.7,7.2,0.3c0.2,0,0.4-0.1,0.6-0.1c2.7-0.6,5.2-1.8,7.3-3.5c0.1-0.1,0.3-0.2,0.4-0.4 c3.7-3.3,5.8-8,5.8-12.9c0-0.8,0.7-1.5,1.5-1.5h10.2c0.4,0,0.8,0.2,1.1,0.5c0.3,0.3,0.4,0.7,0.4,1.2l-5,53.1 C75.2,85.9,74.6,86.5,73.8,86.5z M22.8,33.4l4.7,50.1c7,0,38,0,44.9,0l4.7-50.1H70c-0.4,5.2-2.8,10.1-6.8,13.6 c-0.1,0.1-0.3,0.3-0.5,0.4c-2.5,2-5.4,3.5-8.5,4.1c-0.2,0.1-0.5,0.1-0.8,0.2c-2.7,0.5-5.7,0.4-8.4-0.3c-0.1,0-0.2,0-0.3-0.1 c-3.1-0.9-6-2.5-8.4-4.7c-0.2-0.2-0.3-0.3-0.5-0.5c-3.4-3.4-5.4-7.9-5.8-12.7H22.8z M36.8,46.5c-0.4,0-0.8-0.2-1.1-0.4 c-3.4-3.4-5.4-7.9-5.8-12.7h-1c-0.8,0-1.5-0.7-1.5-1.5V15c0-0.8,0.7-1.5,1.5-1.5h7.9c0.8,0,1.5,0.7,1.5,1.5v30 c0,0.6-0.4,1.2-0.9,1.4C37.2,46.5,37,46.5,36.8,46.5z M30.4,30.4h1c0.8,0,1.5,0.7,1.5,1.5c0,3.1,0.8,6.1,2.4,8.8V16.5h-4.9V30.4z M45.2,51.3c-0.1,0-0.3,0-0.4-0.1c-3.2-0.8-6.1-2.5-8.5-4.7c-0.3-0.3-0.5-0.7-0.5-1.1V24.4c0-0.8,0.7-1.5,1.5-1.5h7.9 c0.8,0,1.5,0.7,1.5,1.5v25.5c0,0.5-0.2,0.9-0.6,1.2C45.8,51.2,45.5,51.3,45.2,51.3z M38.8,44.8c1.5,1.3,3.1,2.3,4.9,3V25.9h-4.9 V44.8z M62.3,47.3c-0.2,0-0.4,0-0.6-0.1c-0.5-0.2-0.9-0.8-0.9-1.4V15c0-0.8,0.7-1.5,1.5-1.5h7.9c0.8,0,1.5,0.7,1.5,1.5v16.9 c0,0.8-0.7,1.5-1.5,1.5H70c-0.4,5.2-2.8,10.1-6.8,13.6C63,47.2,62.6,47.3,62.3,47.3z M63.8,16.5V42c2.1-2.9,3.3-6.5,3.3-10.1 c0-0.8,0.7-1.5,1.5-1.5h0.1V16.5H63.8z M53.9,51.6c-0.3,0-0.7-0.1-0.9-0.3c-0.4-0.3-0.6-0.7-0.6-1.2V24.4c0-0.8,0.7-1.5,1.5-1.5 h7.9c0.8,0,1.5,0.7,1.5,1.5v21.9c0,0.4-0.2,0.9-0.5,1.2c-2.5,2-5.4,3.5-8.5,4.1C54.1,51.6,54,51.6,53.9,51.6z M55.4,25.9v22.3 c1.8-0.6,3.4-1.5,4.9-2.6V25.9H55.4z M50,52c-1.7,0-3.5-0.2-5.1-0.7c-0.7-0.2-1.1-0.8-1.1-1.5V19.4c0-0.8,0.7-1.5,1.5-1.5h7.9 c0.8,0,1.5,0.7,1.5,1.5v30.9c0,0.7-0.5,1.4-1.2,1.5C52.3,51.9,51.2,52,50,52z M46.8,48.7c1.6,0.3,3.3,0.4,4.9,0.2V20.9h-4.9V48.7z M49.8,79.1c-5.6,0-10.1-4.5-10.1-10.1s4.5-10.1,10.1-10.1S59.9,63.4,59.9,69S55.4,79.1,49.8,79.1z M49.8,61.9 c-3.9,0-7.1,3.2-7.1,7.1s3.2,7.1,7.1,7.1s7.1-3.2,7.1-7.1S53.7,61.9,49.8,61.9z"/>
    </g>
    <g id="_x33_"/>
    <g id="_x34_"/>
    <g id="_x35_"/>
    <g id="_x36_"/>
    <g id="_x37_"/>
    <g id="_x38_"/>
    <g id="_x39_"/>
    <g id="_x31_0"/>
    <g id="_x31_1"/>
    <g id="_x31_2"/>
    <g id="_x31_3"/>
    <g id="_x31_4"/>
    <g id="_x31_5"/>
    <g id="_x31_6"/>
    <g id="_x31_7"/>
    <g id="_x31_8"/>
    <g id="_x31_9"/>
    <g id="_x32_0"/>
    <g id="_x32_1"/>
    <g id="_x32_2"/>
    <g id="_x32_3"/>
    <g id="_x32_4"/>
  </g>
</symbol>
  <symbol id="hamburger" viewBox="0 0 24 24" stroke="currentColor" stroke-width="2" stroke-linecap="round" stroke-linejoin="round" fill="none"><path d="M12 16H4a2 2 0 1 1 0-4h16a2 2 0 1 1 0 4h-4.25"/><path d="M5 12a2 2 0 0 1-2-2 9 7 0 0 1 18 0 2 2 0 0 1-2 2"/><path d="M5 16a2 2 0 0 0-2 2 3 3 0 0 0 3 3h12a3 3 0 0 0 3-3 2 2 0 0 0-2-2q0 0 0 0"/><path d="m6.67 12 6.13 4.6a2 2 0 0 0 2.8-.4l3.15-4.2"/></symbol>
  <symbol id="hot" viewBox="0 0 24 24">

  <style type="text/css">

	.st0{fill:#000000;}

</style>
  <g transform="matrix(0.044922, 0, 0, 0.044922, 0.499968, 0.499975)">
    <path class="st0" d="M506.375,296.728c-5.375-14.578-14.016-27.109-24.141-37.641c-10.156-10.547-21.844-19.219-34.063-26.219 c-11.391-6.516-25.938-2.578-32.453,8.828c-6.531,11.406-2.594,25.938,8.828,32.453c11.781,6.719,22.297,15.438,29.266,24.75 c3.5,4.656,6.141,9.422,7.922,14.234c1.766,4.828,2.672,9.688,2.688,14.953c-0.016,5.234-0.984,10.313-3.063,15.609 c-3.609,9.219-10.875,19.203-22.234,28.906c-16.938,14.563-42.75,28-74.359,37.406c-31.578,9.453-68.875,15-108.766,15 c-60.781,0.063-115.594-13.016-153.234-32.672c-18.844-9.766-33.266-21.125-42.281-32.281c-4.563-5.578-7.781-11.078-9.859-16.359 c-2.078-5.297-3.063-10.375-3.063-15.609c0-5.266,0.938-10.125,2.703-14.953c2.625-7.203,7.313-14.375,13.766-21.094 c6.438-6.688,14.594-12.844,23.422-17.891c11.391-6.531,15.344-21.063,8.813-32.469c-6.516-11.391-21.063-15.344-32.453-8.813 c-16.266,9.344-31.688,21.609-43.625,37.406c-5.969,7.906-11.016,16.734-14.594,26.453C2.047,306.431-0.016,317.024,0,328.087 c-0.016,11.438,2.25,22.625,6.359,33.031c7.219,18.281,19.781,34.094,35.563,47.625c23.797,20.281,55.188,35.906,91.672,46.844 c36.484,10.891,78.125,16.984,122.406,16.984c67.469-0.063,128.766-14,175.172-38.031c23.172-12.094,42.781-26.75,57.234-44.469 c7.203-8.859,13.109-18.516,17.203-28.953c4.125-10.406,6.391-21.594,6.391-33.031C512,317.024,509.953,306.431,506.375,296.728z"/>
    <path class="st0" d="M153.344,322.04c6.266,11.547,20.703,15.813,32.25,9.531c11.531-6.281,15.813-20.719,9.516-32.25 c-4.766-8.688-8.484-14.594-10.891-20.844c-2.422-6.266-4.219-13.344-4.281-25.781c0.031-10.797,1.453-17.594,3.359-23.25 c1.453-4.266,3.297-8.031,5.734-12.453c3.578-6.563,8.813-14.672,13.219-26c4.391-11.297,7.344-25.328,7.297-42.453 c0.063-17.484-3.016-31.766-7.563-43.172c-4.547-11.438-9.859-19.547-13.406-26.156c-6.266-11.531-20.719-15.797-32.25-9.516 c-11.547,6.281-15.797,20.734-9.531,32.266c4.797,8.672,8.5,14.578,10.922,20.828c2.406,6.25,4.219,13.313,4.25,25.75 c-0.031,10.797-1.438,17.578-3.344,23.234c-1.453,4.266-3.313,8.031-5.734,12.453c-3.563,6.563-8.813,14.688-13.219,26 c-4.406,11.297-7.344,25.328-7.297,42.469c-0.047,17.484,3.016,31.766,7.563,43.188 C144.484,307.321,149.813,315.446,153.344,322.04z"/>
    <path class="st0" d="M246.969,347.556c5.25,12.047,19.266,17.547,31.297,12.297c12.047-5.25,17.563-19.25,12.313-31.297 c-4.625-10.5-8.531-18.188-11.281-26.984c-2.734-8.813-4.781-19.266-4.813-35.938c0.016-14.484,1.594-24.281,3.781-32.344 c1.656-6.047,3.719-11.25,6.234-16.953c3.703-8.484,8.734-18.281,12.813-31.406s6.797-29.078,6.766-49.359 c0.031-20.703-2.797-36.906-7-50.172c-4.219-13.281-9.344-23.094-13.047-31.672c-5.25-12.047-19.25-17.563-31.281-12.313 c-12.047,5.25-17.563,19.266-12.313,31.297c4.609,10.516,8.531,18.188,11.266,26.969c2.734,8.797,4.766,19.234,4.797,35.891 c-0.016,14.484-1.594,24.297-3.766,32.359c-1.656,6.063-3.719,11.25-6.25,16.953c-3.703,8.469-8.734,18.281-12.797,31.406 c-4.094,13.109-6.797,29.078-6.766,49.344c-0.031,20.719,2.797,36.938,7.016,50.219 C238.141,329.149,243.266,338.978,246.969,347.556z"/>
    <path class="st0" d="M342.406,322.04c6.281,11.547,20.719,15.813,32.266,9.531c11.531-6.281,15.781-20.719,9.516-32.25 c-4.781-8.672-8.484-14.594-10.906-20.844c-2.406-6.266-4.203-13.344-4.266-25.781c0.031-10.797,1.453-17.594,3.359-23.25 c1.453-4.266,3.297-8.031,5.734-12.453c3.563-6.563,8.813-14.688,13.203-26c4.391-11.297,7.344-25.328,7.297-42.453 c0.063-17.484-3.016-31.75-7.563-43.172c-4.531-11.422-9.844-19.531-13.375-26.141c-6.281-11.547-20.719-15.813-32.266-9.531 s-15.797,20.719-9.531,32.25c4.781,8.688,8.484,14.594,10.906,20.828c2.422,6.266,4.203,13.328,4.25,25.766 c-0.031,10.797-1.438,17.578-3.344,23.234c-1.453,4.266-3.297,8.031-5.719,12.453c-3.578,6.563-8.813,14.688-13.219,26 c-4.406,11.297-7.344,25.328-7.297,42.469c-0.047,17.484,3.016,31.766,7.563,43.188 C333.563,307.321,338.875,315.431,342.406,322.04z"/>
  </g>
</symbol>
  <symbol id="lettuce" viewBox="0 0 24 24" fill="#000000" stroke="none">

  <g transform="matrix(0.004688, 0, 0, -0.004688, -0.001281, 23.996441)" fill="#000000" stroke="none">
    <path d="M2448 5110 c-213 -39 -401 -171 -502 -353 -36 -65 -76 -182 -76 -223 0 -17 -8 -27 -26 -34 -55 -21 -69 -14 -104 55 -67 132 -180 243 -314 308 -105 52 -184 70 -306 71 -126 0 -201 -18 -320 -76 -68 -33 -102 -58 -171 -127 -141 -143 -209 -304 -209 -500 0 -53 4 -110 9 -127 9 -32 9 -32 -64 -69 -219 -111 -365 -360 -365 -621 0 -172 72 -354 190 -476 l69 -72 -31 -35 c-257 -292 -200 -713 134 -997 34 -29 144 -99 243 -156 664 -376 1000 -617 1205 -865 98 -118 144 -205 159 -301 41 -262 216 -447 471 -498 188 -37 383 14 523 136 95 84 174 241 192 380 18 136 156 318 393 516 229 191 515 379 945 619 203 113 286 175 373 276 238 277 249 637 26 890 l-31 35 69 72 c118 123 190 304 190 477 0 260 -150 514 -366 621 l-71 36 8 36 c16 67 10 214 -11 296 -32 127 -91 228 -189 326 -95 95 -173 142 -301 181 -94 29 -251 32 -350 6 -205 -54 -386 -199 -467 -374 -26 -57 -43 -64 -97 -43 -19 7 -26 17 -26 35 0 47 -50 178 -95 251 -52 83 -168 197 -246 241 -94 54 -199 84 -313 88 -55 2 -122 0 -148 -5z m276 -220 c200 -69 336 -262 336 -475 0 -46 5 -60 29 -87 28 -32 29 -32 132 -34 57 0 124 -7 149 -13 111 -31 220 -113 283 -213 121 -192 108 -414 -35 -592 -52 -64 -59 -96 -33 -146 10 -19 30 -34 62 -45 182 -66 270 -134 326 -253 27 -58 32 -80 35 -168 5 -118 -11 -193 -64 -300 -35 -71 -72 -120 -245 -325 -498 -592 -705 -1036 -738 -1584 -5 -85 -16 -168 -24 -191 -36 -98 -118 -187 -215 -232 -50 -24 -69 -27 -162 -27 -93 0 -112 3 -162 27 -67 31 -147 103 -183 163 -34 59 -55 146 -55 231 0 188 -56 461 -136 664 -130 327 -320 617 -686 1048 -118 138 -160 203 -195 300 -35 92 -43 237 -18 328 36 135 140 245 276 293 35 13 77 28 92 33 15 6 34 23 42 39 25 48 19 82 -25 135 -87 105 -123 200 -123 324 0 134 54 267 146 358 109 107 233 155 388 150 80 -3 81 -3 110 30 24 27 29 41 29 87 0 241 164 442 405 495 61 14 193 4 259 -20z m-1509 -165 c142 -30 273 -124 337 -241 l27 -49 -82 -55 c-194 -131 -307 -348 -307 -591 0 -121 12 -183 56 -278 19 -41 34 -77 34 -80 0 -3 -26 -19 -58 -36 -87 -45 -201 -165 -245 -256 -55 -113 -70 -192 -64 -334 3 -101 9 -135 36 -215 49 -146 87 -206 234 -379 294 -344 465 -589 588 -846 51 -108 129 -310 129 -337 0 -6 -37 25 -82 68 -220 211 -543 432 -1043 714 -220 124 -247 142 -326 220 -134 132 -186 255 -177 417 8 136 60 221 216 354 36 31 42 41 42 75 0 52 -18 75 -85 113 -213 120 -304 393 -208 626 27 66 99 161 152 199 53 39 137 79 188 90 43 10 83 58 83 99 -1 18 -9 57 -20 87 -24 67 -26 191 -5 269 52 195 206 338 400 370 75 13 103 12 180 -4z m2948 -16 c159 -53 278 -183 322 -350 21 -78 19 -202 -5 -269 -11 -30 -19 -69 -20 -87 0 -46 39 -88 97 -103 126 -31 246 -129 306 -249 46 -91 61 -166 54 -266 -11 -160 -84 -291 -207 -371 -104 -68 -120 -86 -120 -135 0 -38 5 -47 47 -83 92 -79 143 -139 175 -204 32 -64 33 -72 33 -183 l0 -116 -44 -89 c-36 -73 -59 -104 -130 -174 -74 -73 -109 -98 -246 -174 -564 -315 -898 -543 -1137 -775 -38 -36 -68 -60 -68 -54 0 32 79 235 139 358 113 230 265 452 497 729 178 211 212 257 258 346 68 131 87 205 93 350 5 108 2 136 -16 205 -12 44 -38 109 -58 145 -44 80 -159 195 -233 234 -30 16 -57 31 -59 32 -2 2 10 34 27 71 46 101 62 174 62 289 0 245 -113 463 -307 594 l-81 54 15 31 c30 60 94 133 152 173 139 98 300 123 454 71z" style="stroke: rgb(0, 0, 0); stroke-width: 150px;"/>
    <path d="M2507 4479 c-46 -27 -47 -39 -47 -548 l0 -480 -206 174 c-197 167 -208 175 -249 175 -36 0 -48 -5 -69 -31 -34 -40 -35 -96 -3 -130 12 -13 136 -120 275 -238 l252 -214 0 -479 0 -479 -23 18 c-13 10 -166 140 -341 288 -175 149 -328 274 -339 278 -34 13 -84 -1 -107 -30 -32 -41 -27 -96 13 -137 17 -19 203 -180 412 -357 l380 -322 5 -709 5 -710 28 -24 c30 -26 83 -32 118 -14 49 27 49 19 49 762 l1 693 395 335 c218 184 405 346 415 359 25 32 25 91 -1 124 -23 29 -73 43 -107 30 -12 -4 -164 -129 -338 -277 -174 -148 -327 -278 -340 -288 l-25 -19 0 479 0 479 252 214 c139 118 263 225 275 238 56 59 8 161 -75 161 -37 0 -54 -13 -246 -175 l-206 -175 0 481 c0 513 -1 523 -49 549 -25 13 -81 12 -104 -1z" style="stroke: rgb(0, 0, 0); stroke-width: 150px;"/>
  </g>
</symbol>
  <symbol id="oven" viewBox="0 0 24 24" fill="#000000" stroke="#000000">

  <g id="SVGRepo_bgCarrier" stroke-width="0"/>
  <g id="SVGRepo_tracerCarrier" stroke-linecap="round" stroke-linejoin="round"/>
  <g id="SVGRepo_iconCarrier" transform="matrix(0.071594, 0, 0, 0.071594, 0.999974, 1.000009)">
    <g>
      <g>
        <path d="M23.425,264.75h260.439c12.913,0,23.425-10.511,23.425-23.43V65.965c0-12.918-10.512-23.427-23.425-23.427H23.425 C10.509,42.538,0,53.047,0,65.965v175.366C0,254.239,10.509,264.75,23.425,264.75z M15.6,65.965c0-4.316,3.509-7.827,7.825-7.827 h260.439c4.316,0,7.825,3.511,7.825,7.827v175.366c0,4.315-3.509,7.824-7.825,7.824H23.425c-4.316,0-7.825-3.509-7.825-7.824 V65.965z"/>
        <path d="M101.199,238.264h160.789c12.183,0,22.095-9.912,22.095-22.1V91.111c0-12.185-9.912-22.094-22.095-22.094H101.199 c-12.185,0-22.094,9.91-22.094,22.094v125.053C79.11,228.356,89.014,238.264,101.199,238.264z M94.709,91.116 c0-3.577,2.912-6.495,6.495-6.495h160.789c3.575,0,6.495,2.913,6.495,6.495v125.058c0,3.575-2.909,6.49-6.495,6.49H101.199 c-3.577,0-6.495-2.91-6.495-6.49V91.116H94.709z"/>
        <path d="M48.198,134.795c2.422,0,4.715-0.482,6.903-1.186l3.209,3.354c1.534,1.602,3.583,2.407,5.636,2.407 c1.94,0,3.885-0.716,5.393-2.164c3.115-2.978,3.225-7.914,0.244-11.029l-2.1-2.199c2.158-3.479,3.468-7.546,3.468-11.934 c0-12.547-10.205-22.749-22.75-22.749c-12.548,0-22.754,10.202-22.754,22.749C25.448,124.593,35.655,134.795,48.198,134.795z M48.198,104.896c3.94,0,7.149,3.209,7.149,7.149c0,3.941-3.209,7.15-7.149,7.15c-3.943,0-7.15-3.209-7.15-7.15 C41.048,108.104,44.254,104.896,48.198,104.896z"/>
        <path d="M48.998,162.094c-12.548,0-22.75,10.202-22.75,22.749c0,4.388,1.305,8.455,3.468,11.934l-2.1,2.199 c-2.981,3.112-2.872,8.048,0.244,11.029c1.513,1.447,3.453,2.163,5.393,2.163c2.054,0,4.103-0.808,5.636-2.407l3.207-3.356 c2.191,0.706,4.484,1.188,6.906,1.188c12.548,0,22.75-10.202,22.75-22.75C71.752,172.296,61.545,162.094,48.998,162.094z M48.998,191.993c-3.94,0-7.15-3.209-7.15-7.15c0-3.94,3.209-7.149,7.15-7.149s7.149,3.209,7.149,7.149 C56.147,188.784,52.938,191.993,48.998,191.993z"/>
      </g>
    </g>
  </g>
</symbol>
  <symbol id="pan" viewBox="0 0 59.00 59.00" fill="#000000" stroke="#000000">

  <g id="SVGRepo_bgCarrier" stroke-width="0"/>
  <g id="SVGRepo_tracerCarrier" stroke-linecap="round" stroke-linejoin="round"/>
  <g id="SVGRepo_iconCarrier">
    <g>
      <path d="M 55.999 29.242 L 40.963 29.242 C 41.021 28.861 40.967 28.466 40.771 28.121 C 40.463 27.579 39.885 27.242 39.262 27.242 L 1.735 27.242 C 1.112 27.242 0.534 27.579 0.226 28.121 C -0.083 28.666 -0.075 29.338 0.245 29.875 L 1.876 32.607 C 2.231 33.203 2.418 33.884 2.418 34.578 L 2.418 35.041 C 2.418 38.46 5.187 41.242 8.59 41.242 L 32.404 41.242 C 35.74 41.242 38.459 38.567 38.566 35.242 L 55.997 35.242 C 57.651 35.242 58.997 33.896 58.997 32.242 C 58.997 30.588 57.653 29.242 55.999 29.242 Z M 32.406 39.242 L 8.591 39.242 C 7.571 39.242 6.647 38.857 5.921 38.242 L 4.614 36.242 C 4.518 35.922 4.456 35.589 4.439 35.242 L 13.284 35.242 C 13.836 35.242 14.284 34.795 14.284 34.242 C 14.284 33.689 13.836 33.242 13.284 33.242 L 4.253 33.242 C 4.116 32.661 3.902 32.1 3.594 31.583 L 2.197 29.242 L 38.8 29.242 L 37.403 31.583 C 37.281 31.788 37.174 32.003 37.078 32.223 C 37.021 32.353 36.976 32.488 36.929 32.622 C 36.901 32.704 36.869 32.783 36.844 32.866 C 36.789 33.045 36.747 33.227 36.71 33.41 C 36.702 33.449 36.693 33.487 36.686 33.526 C 36.649 33.726 36.624 33.927 36.609 34.131 C 36.608 34.145 36.605 34.158 36.604 34.172 L 36.529 35.241 L 36.559 35.241 C 36.451 37.463 34.638 39.242 32.406 39.242 Z M 55.999 33.242 L 38.826 33.242 C 38.83 33.231 38.834 33.219 38.838 33.208 C 38.914 33.003 39.005 32.806 39.114 32.622 C 39.116 32.618 39.118 32.614 39.12 32.61 L 39.935 31.243 L 55.998 31.243 C 56.55 31.243 56.998 31.691 56.998 32.243 C 56.998 32.795 56.55 33.242 55.999 33.242 Z"/>
      <path d="M37.999,52.242h-4.904c1.745-1.328,2.726-2.29,2.883-3.472c0.17-1.285-0.632-2.319-1.961-4.032 c-0.259-0.333-0.542-0.697-0.845-1.099l-0.603-0.798l-0.798,0.603c-1.823,1.377-2.841,2.354-3.001,3.563 c-0.17,1.285,0.632,2.319,1.961,4.032c0.259,0.333,0.542,0.697,0.845,1.099l0.078,0.104H21.346c1.745-1.328,2.726-2.29,2.883-3.472 c0.17-1.285-0.632-2.319-1.961-4.032c-0.259-0.333-0.542-0.697-0.845-1.099l-0.603-0.798l-0.798,0.603 c-1.823,1.377-2.841,2.354-3.001,3.563c-0.17,1.285,0.632,2.319,1.961,4.032c0.259,0.333,0.542,0.697,0.845,1.099l0.078,0.104 H9.346c1.745-1.328,2.726-2.29,2.883-3.472c0.17-1.285-0.632-2.319-1.961-4.032c-0.259-0.333-0.542-0.697-0.845-1.099l-0.603-0.798 l-0.798,0.603c-1.823,1.377-2.841,2.354-3.001,3.563c-0.17,1.285,0.632,2.319,1.961,4.032c0.259,0.333,0.542,0.697,0.845,1.099 l0.078,0.104H3.999c-0.552,0-1,0.447-1,1s0.448,1,1,1h34c0.552,0,1-0.447,1-1S38.551,52.242,37.999,52.242z M30.752,47.27 c0.053-0.401,0.702-1.02,1.441-1.62c0.083,0.108,0.165,0.213,0.244,0.314c0.94,1.211,1.619,2.086,1.559,2.543 c-0.053,0.401-0.702,1.02-1.441,1.62c-0.083-0.108-0.165-0.213-0.244-0.314C31.37,48.602,30.691,47.727,30.752,47.27z M19.002,47.27c0.053-0.401,0.702-1.02,1.441-1.62c0.083,0.108,0.165,0.213,0.244,0.314c0.94,1.211,1.619,2.086,1.559,2.543 c-0.053,0.401-0.702,1.02-1.441,1.62c-0.083-0.108-0.165-0.213-0.244-0.314C19.621,48.602,18.942,47.727,19.002,47.27z M7.002,47.27c0.053-0.401,0.702-1.02,1.441-1.62c0.083,0.108,0.165,0.213,0.244,0.314c0.94,1.211,1.619,2.086,1.559,2.543 c-0.053,0.401-0.702,1.02-1.441,1.62c-0.083-0.108-0.165-0.213-0.244-0.314C7.621,48.602,6.942,47.727,7.002,47.27z"/>
      <path d="M9.24,18.485c0,1.868,0.729,3.627,2.052,4.949c0.195,0.195,0.451,0.293,0.707,0.293s0.512-0.098,0.707-0.293 c0.391-0.391,0.391-1.023,0-1.414c-0.945-0.945-1.466-2.201-1.466-3.535c0-1.335,0.521-2.591,1.466-3.536 c1.323-1.322,2.052-3.081,2.052-4.95c0-1.868-0.729-3.627-2.052-4.949c-0.391-0.391-1.023-0.391-1.414,0s-0.391,1.023,0,1.414 c0.945,0.945,1.466,2.201,1.466,3.535c0,1.335-0.521,2.591-1.466,3.536C9.968,14.857,9.24,16.616,9.24,18.485z"/>
      <path d="M21.481,18.485c0,1.868,0.729,3.627,2.052,4.949c0.195,0.195,0.451,0.293,0.707,0.293s0.512-0.098,0.707-0.293 c0.391-0.391,0.391-1.023,0-1.414c-0.945-0.945-1.466-2.201-1.466-3.535c0-1.335,0.521-2.591,1.466-3.536 c1.323-1.322,2.052-3.081,2.052-4.95c0-1.868-0.729-3.627-2.052-4.949c-0.391-0.391-1.023-0.391-1.414,0s-0.391,1.023,0,1.414 c0.945,0.945,1.466,2.201,1.466,3.535c0,1.335-0.521,2.591-1.466,3.536C22.21,14.857,21.481,16.616,21.481,18.485z"/>
    </g>
  </g>
</symbol>
  <symbol id="pie" viewBox="0 0 24 24" fill="#000000" stroke="none">

  <g transform="matrix(0.1, 0, 0, -0.1, 0.07648, 23.762547)" fill="#000000" stroke="none">
    <g transform="matrix(0.044996, 0, 0, 0.044996, 4.045429, 2.416852)">
      <path d="M2464 5105 c-91 -20 -187 -63 -293 -133 -52 -34 -129 -76 -170 -94 l-76 -32 -215 -2 c-225 -2 -303 -12 -397 -54 -100 -44 -207 -163 -288 -322 -109 -210 -163 -265 -373 -373 -159 -81 -278 -188 -322 -288 -42 -94 -52 -172 -54 -397 l-2 -215 -32 -75 c-17 -41 -61 -120 -97 -175 -73 -112 -118 -218 -135 -318 -23 -127 23 -281 135 -452 36 -55 80 -134 97 -175 l32 -75 2 -215 c2 -225 12 -303 54 -397 44 -100 163 -207 322 -288 210 -109 265 -163 373 -373 75 -147 180 -268 273 -316 84 -43 178 -58 373 -57 102 1 210 -3 240 -9 69 -13 176 -64 271 -129 110 -74 221 -119 338 -136 106 -15 269 39 433 144 60 38 138 82 175 97 66 27 72 28 282 30 225 2 304 13 397 54 100 44 207 163 288 322 108 210 162 264 374 373 151 78 266 177 315 273 44 84 58 178 57 373 -1 102 3 210 9 240 13 70 63 173 133 278 64 95 110 205 127 304 23 127 -23 281 -135 452 -36 55 -80 134 -97 175 l-32 75 -2 215 c-3 292 -25 386 -119 496 -60 69 -142 130 -256 189 -211 108 -265 162 -374 373 -81 159 -188 278 -288 322 -94 42 -172 52 -397 54 l-215 2 -75 32 c-41 17 -120 61 -175 97 -108 70 -215 117 -309 134 -73 13 -95 13 -172 -4z m225 -188 c37 -13 110 -51 162 -85 209 -135 310 -163 584 -161 227 2 296 -15 371 -88 59 -58 86 -97 144 -207 116 -224 202 -310 427 -426 56 -29 127 -74 158 -99 118 -98 137 -156 136 -417 -2 -277 25 -372 161 -583 146 -226 146 -356 0 -582 -135 -209 -163 -310 -161 -584 2 -227 -15 -296 -88 -371 -58 -59 -97 -86 -208 -145 -225 -117 -310 -202 -425 -424 -57 -111 -85 -150 -144 -208 -76 -74 -144 -90 -376 -88 -270 2 -369 -25 -576 -159 -99 -64 -158 -91 -244 -110 -47 -10 -65 -9 -120 5 -77 20 -156 58 -241 115 -87 60 -217 119 -300 136 -49 10 -126 14 -252 13 -240 -1 -307 14 -383 88 -59 58 -87 97 -144 208 -117 224 -213 319 -444 435 -46 23 -109 63 -140 89 -118 97 -138 157 -137 411 2 281 -25 379 -161 589 -146 226 -146 356 0 582 136 210 163 308 161 589 -1 255 19 313 138 412 31 26 91 64 132 84 227 110 334 214 452 441 30 57 74 127 97 157 95 118 150 135 458 139 196 3 226 6 283 26 82 28 171 73 244 123 123 83 249 131 325 123 24 -3 74 -15 111 -28z" style="stroke: rgb(0, 0, 0); stroke-width: 130px;"/>
      <path d="M2180 4597 c-49 -25 -60 -88 -22 -130 35 -40 218 -98 352 -112 123 -13 397 53 448 108 31 33 35 67 13 103 -29 47 -60 50 -151 15 -43 -17 -120 -38 -169 -46 -83 -15 -99 -15 -182 0 -51 8 -125 29 -166 45 -84 34 -89 34 -123 17z" style="stroke: rgb(0, 0, 0); stroke-width: 130px;"/>
      <path d="M1806 4473 c-78 -90 -165 -173 -213 -203 -57 -37 -176 -76 -276 -91 -86 -13 -117 -36 -117 -86 0 -76 39 -97 152 -82 98 14 246 64 319 108 128 78 289 252 289 313 0 39 -48 88 -86 88 -21 0 -38 -12 -68 -47z" style="stroke: rgb(0, 0, 0); stroke-width: 130px;"/>
      <path d="M3185 4478 c-20 -24 -25 -38 -21 -60 13 -66 167 -227 285 -299 73 -44 221 -94 320 -108 108 -14 150 8 151 80 0 53 -30 76 -117 89 -97 13 -218 53 -276 90 -48 30 -139 117 -208 198 -30 35 -42 42 -71 42 -28 0 -42 -7 -63 -32z" style="stroke: rgb(0, 0, 0); stroke-width: 130px;"/>
      <path d="M975 3896 c-13 -13 -26 -41 -29 -62 -11 -78 -46 -208 -69 -258 -32 -69 -112 -163 -197 -231 -39 -31 -72 -66 -76 -80 -13 -52 28 -105 81 -105 64 0 237 158 316 289 67 111 131 357 109 416 -21 55 -94 72 -135 31z" style="stroke: rgb(0, 0, 0); stroke-width: 130px;"/>
      <path d="M4033 3896 c-25 -22 -28 -30 -26 -77 5 -118 59 -289 122 -386 81 -126 244 -273 303 -273 39 0 88 48 88 86 0 21 -12 38 -47 68 -106 92 -193 189 -223 249 -28 58 -63 182 -76 271 -11 78 -84 111 -141 62z" style="stroke: rgb(0, 0, 0); stroke-width: 130px;"/>
      <path d="M2492 3657 c-49 -15 -115 -78 -144 -139 -112 -229 8 -528 212 -528 63 0 114 25 164 81 72 79 103 197 86 321 -28 195 -170 313 -318 265z m90 -168 c49 -26 77 -177 48 -254 -14 -38 -49 -75 -70 -75 -21 0 -56 37 -70 75 -28 74 -3 217 43 250 26 18 23 18 49 4z" style="stroke: rgb(0, 0, 0); stroke-width: 130px;"/>
      <path d="M1763 3218 c-95 -16 -160 -71 -183 -154 -45 -160 124 -358 337 -395 222 -39 365 139 267 332 -72 142 -269 244 -421 217z m152 -192 c56 -26 108 -77 124 -119 46 -121 -201 -78 -274 48 -29 49 -30 58 -9 79 23 24 100 20 159 -8z" style="stroke: rgb(0, 0, 0); stroke-width: 130px;"/>
      <path d="M3175 3201 c-181 -65 -307 -245 -265 -378 38 -118 153 -179 293 -154 215 38 382 236 336 399 -16 58 -79 123 -135 140 -60 18 -170 14 -229 -7z m190 -167 c30 -30 -12 -107 -83 -153 -76 -49 -173 -61 -203 -25 -28 34 41 129 126 172 50 26 136 29 160 6z" style="stroke: rgb(0, 0, 0); stroke-width: 130px;"/>
      <path d="M554 2971 c-47 -29 -50 -60 -15 -151 17 -43 38 -120 46 -169 15 -83 15 -99 0 -182 -8 -51 -29 -126 -46 -167 -20 -51 -28 -85 -24 -103 15 -67 97 -86 144 -33 34 38 77 167 98 295 15 91 15 107 0 198 -9 55 -29 137 -44 182 -42 127 -94 170 -159 130z" style="stroke: rgb(0, 0, 0); stroke-width: 130px;"/>
      <path d="M4495 2981 c-11 -5 -27 -17 -36 -27 -39 -46 -90 -219 -104 -349 -8 -73 14 -212 52 -328 42 -126 95 -168 160 -128 44 27 49 63 19 136 -28 70 -51 159 -60 231 -8 68 17 209 55 302 36 90 32 124 -14 153 -35 21 -42 22 -72 10z" style="stroke: rgb(0, 0, 0); stroke-width: 130px;"/>
      <path d="M1900 2450 c-72 -15 -171 -70 -225 -124 -120 -120 -136 -266 -41 -361 138 -137 448 -50 551 155 48 96 41 186 -21 258 -54 64 -162 93 -264 72z m117 -170 c7 0 17 -9 23 -19 23 -43 -39 -127 -125 -167 -59 -28 -136 -32 -159 -8 -21 21 -20 30 9 79 39 67 158 132 220 119 11 -2 25 -4 32 -4z" style="stroke: rgb(0, 0, 0); stroke-width: 130px;"/>
      <path d="M3077 2450 c-56 -14 -90 -35 -125 -74 -110 -126 -25 -338 175 -436 54 -27 83 -34 145 -38 105 -6 161 11 213 63 109 108 70 285 -87 400 -98 73 -229 107 -321 85z m113 -171 c64 -15 136 -64 165 -114 14 -23 25 -47 25 -53 0 -24 -33 -42 -78 -42 -136 0 -296 171 -198 210 28 11 33 11 86 -1z" style="stroke: rgb(0, 0, 0); stroke-width: 130px;"/>
      <path d="M2469 2110 c-192 -101 -222 -450 -52 -599 89 -79 197 -79 286 0 140 123 148 415 16 547 -71 72 -173 93 -250 52z m129 -172 c31 -34 43 -75 43 -145 0 -108 -51 -190 -102 -162 -50 26 -79 176 -49 254 14 38 49 75 70 75 9 0 26 -10 38 -22z" style="stroke: rgb(0, 0, 0); stroke-width: 130px;"/>
      <path d="M629 1931 c-44 -44 -39 -76 18 -125 90 -78 173 -165 203 -213 37 -58 77 -180 90 -277 8 -56 15 -76 36 -94 33 -29 76 -28 111 2 25 22 28 30 26 77 -5 118 -59 289 -122 386 -81 126 -244 273 -303 273 -19 0 -40 -10 -59 -29z" style="stroke: rgb(0, 0, 0); stroke-width: 130px;"/>
      <path d="M4380 1942 c-50 -24 -219 -197 -259 -265 -68 -116 -133 -363 -111 -422 19 -50 84 -70 127 -40 24 17 38 56 47 131 8 65 48 184 81 241 26 44 124 147 203 214 34 29 42 42 42 70 -1 38 -14 60 -47 77 -29 16 -41 15 -83 -6z" style="stroke: rgb(0, 0, 0); stroke-width: 130px;"/>
      <path d="M1254 1110 c-53 -21 -70 -91 -31 -134 17 -21 37 -28 93 -36 97 -13 219 -53 277 -90 48 -30 139 -117 208 -198 29 -34 42 -42 70 -42 68 0 104 61 73 126 -25 52 -176 203 -252 252 -120 77 -374 148 -438 122z" style="stroke: rgb(0, 0, 0); stroke-width: 130px;"/>
      <path d="M3760 1109 c-86 -13 -245 -68 -317 -110 -71 -42 -242 -210 -267 -262 -31 -66 4 -127 73 -127 28 0 41 8 70 42 67 79 170 177 214 203 63 36 175 72 265 85 87 11 122 37 122 90 0 35 -36 78 -70 84 -14 2 -54 0 -90 -5z" style="stroke: rgb(0, 0, 0); stroke-width: 130px;"/>
      <path d="M2440 755 c-41 -8 -113 -26 -159 -41 -129 -42 -172 -95 -132 -161 27 -44 63 -49 136 -19 70 28 159 51 231 60 68 8 209 -17 302 -55 51 -20 85 -28 103 -24 67 15 86 97 33 144 -36 33 -160 75 -279 96 -103 18 -135 18 -235 0z" style="stroke: rgb(0, 0, 0); stroke-width: 130px;"/>
    </g>
  </g>
</symbol>
  <symbol id="pizza" viewBox="0 0 24 24" stroke="currentColor" stroke-width="2" stroke-linecap="round" stroke-linejoin="round" fill="none"><path d="m12 14-1 1"/><path d="m13.75 18.25-1.25 1.42"/><path d="M17.775 5.654a15.68 15.68 0 0 0-12.121 12.12"/><path d="M18.8 9.3a1 1 0 0 0 2.1 7.7"/><path d="M21.964 20.732a1 1 0 0 1-1.232 1.232l-18-5a1 1 0 0 1-.695-1.232A19.68 19.68 0 0 1 15.732 2.037a1 1 0 0 1 1.232.695z"/></symbol>
  <symbol id="pot" viewBox="0 0 24 24" fill="none" stroke="none">

  <title>pot</title>
  <desc>Created with sketchtool.</desc>
  <g id="food" stroke="none" stroke-width="1" fill="none" fill-rule="evenodd" transform="matrix(1.2, 0, 0, 1.2, -2.400001, -2.400001)">
    <g id="pot" fill="#000000">
      <path d="M20,11 L20,18 C20,19.1045695 19.1045695,20 18,20 L6,20 C4.8954305,20 4,19.1045695 4,18 L4,11 L3,11 C2.44771525,11 2,10.5522847 2,10 C2,9.44771525 2.44771525,9 3,9 L21,9 C21.5522847,9 22,9.44771525 22,10 C22,10.5522847 21.5522847,11 21,11 L20,11 Z M6,11 L6,18 L18,18 L18,11 L6,11 Z M11,6 L11,5 C11,4.44771525 11.4477153,4 12,4 C12.5522847,4 13,4.44771525 13,5 L13,6 L19,6 C19.5522847,6 20,6.44771525 20,7 C20,7.55228475 19.5522847,8 19,8 L5,8 C4.44771525,8 4,7.55228475 4,7 C4,6.44771525 4.44771525,6 5,6 L11,6 Z" id="Shape"/>
    </g>
  </g>
</symbol>
  <symbol id="salad" viewBox="0 0 24 24" fill="#000000" stroke="#000000">

  <g id="SVGRepo_bgCarrier" stroke-width="0"/>
  <g id="SVGRepo_tracerCarrier" stroke-linecap="round" stroke-linejoin="round"/>
  <g id="SVGRepo_iconCarrier" transform="matrix(0.044922, 0, 0, 0.044922, 0.499967, 0.49999)">
    <g>
      <g>
        <path d="M315.858,110.048c-5.633,0-10.199,4.566-10.199,10.199v49.67c0,5.633,4.566,10.199,10.199,10.199 c5.633,0,10.199-4.566,10.199-10.199v-49.67C326.057,114.615,321.491,110.048,315.858,110.048z"/>
      </g>
    </g>
    <g>
      <g>
        <path d="M405.853,149.969c-3.983-3.983-10.441-3.983-14.424,0l-21.014,21.014c-3.983,3.983-3.983,10.441,0,14.425 c1.992,1.992,4.602,2.987,7.212,2.987s5.221-0.995,7.212-2.987l21.014-21.014C409.836,160.411,409.836,153.953,405.853,149.969z"/>
      </g>
    </g>
    <g>
      <g>
        <path d="M265.122,170.984l-21.013-21.014c-3.983-3.983-10.441-3.983-14.425,0c-3.983,3.983-3.983,10.441,0,14.425l21.014,21.014 c1.992,1.992,4.602,2.987,7.212,2.987s5.221-0.995,7.212-2.987C269.105,181.425,269.105,174.967,265.122,170.984z"/>
      </g>
    </g>
    <g>
      <g>
        <path d="M501.801,203.626h-37.148c5.175-11.009,7.866-23.05,7.866-35.532c0-46.004-37.426-83.431-83.43-83.431 c-0.036,0-0.07,0-0.106,0c-14.565-26.501-42.548-43.272-73.125-43.272c-30.576,0-58.559,16.772-73.124,43.272 c-0.036,0-0.071,0-0.106,0c-46.003,0-83.43,37.427-83.43,83.431c0,12.565,2.808,24.459,8.362,35.532h-28.081v-79.825 c0-5.633-4.566-10.199-10.199-10.199c-41.79,0-75.788,33.998-75.788,75.789c0,4.762,0.456,9.548,1.336,14.235H10.199 C4.566,203.626,0,208.192,0,213.825c0,141.59,114.841,256.783,256,256.783s256-115.193,256-256.783 C512,208.192,507.434,203.626,501.801,203.626z M242.628,105.062c1.667,0,3.439,0.082,5.418,0.25 c4.325,0.366,8.422-2.05,10.187-6.025c10.112-22.779,32.731-37.498,57.625-37.498c24.895,0,47.515,14.719,57.627,37.498 c1.764,3.975,5.855,6.396,10.187,6.025c1.979-0.168,3.751-0.25,5.418-0.25c34.756,0,63.031,28.276,63.031,63.032 c0,12.848-3.76,25.069-10.893,35.532H191.381c-7.925-10.882-11.785-22.532-11.785-35.532 C179.596,133.338,207.872,105.062,242.628,105.062z M119.08,134.942v68.685H75.708c-1.197-4.611-1.818-9.436-1.818-14.235 C73.889,162.333,93.394,139.743,119.08,134.942z M256,450.21c-126.502,0-230.038-100.56-235.385-226.186h470.771 C486.038,349.65,382.502,450.21,256,450.21z"/>
      </g>
    </g>
    <g>
      <g>
        <path d="M426.913,322.256c-4.556-3.312-10.934-2.305-14.247,2.251c-36.36,50.003-94.927,79.856-156.666,79.856 c-5.633,0-10.199,4.566-10.199,10.199c0,5.633,4.566,10.198,10.199,10.198c34.326,0,68.458-8.327,98.704-24.078 c29.264-15.241,55.011-37.433,74.46-64.178C432.477,331.947,431.469,325.569,426.913,322.256z"/>
      </g>
    </g>
    <g>
      <g>
        <path d="M449.233,276.449c-5.235-2.079-11.164,0.481-13.243,5.717c-1.289,3.246-2.685,6.502-4.15,9.675 c-2.361,5.115-0.13,11.175,4.984,13.536c1.385,0.64,2.837,0.941,4.269,0.941c3.854,0,7.544-2.197,9.266-5.927 c1.621-3.51,3.165-7.11,4.59-10.7C457.028,284.457,454.468,278.528,449.233,276.449z"/>
      </g>
    </g>
  </g>
</symbol>
  <symbol id="sandwich" viewBox="0 0 24 24" stroke="currentColor" stroke-width="2" stroke-linecap="round" stroke-linejoin="round" fill="none">

  <g transform="matrix(0.956522, 0, 0, 0.956522, -0.913049, -0.626455)">
    <path d="M 2.425 12.306 L 12.053 4.513 C 12.897 3.83 14.103 3.83 14.947 4.513 L 24.573 12.306" style="stroke: rgb(0, 0, 0);"/>
    <path d="M 23.85 16.65 C 24.485 16.65 25 17.165 25 17.8 L 25 20.1 C 25 20.735 24.485 21.25 23.85 21.25 L 17.812 21.25" style="stroke: rgb(0, 0, 0);"/>
    <path d="M 3.15 16.65 C 2.515 16.65 2 17.165 2 17.8 L 2 20.1 C 2 20.735 2.515 21.25 3.15 21.25 L 13.5 21.25" style="stroke: rgb(0, 0, 0);"/>
    <path d="M 7.37 16.65 L 14.42 21.94 C 15.436 22.702 16.878 22.496 17.64 21.48 L 21.262 16.65" style="stroke: rgb(0, 0, 0);"/>
    <rect width="23" height="4.6" x="2" y="12.05" rx="1" style="stroke: rgb(0, 0, 0);"/>
  </g>
</symbol>
  <symbol id="sauce" viewBox="0 0 24 24" fill="#000000" stroke="none">

  <g transform="matrix(0.004299, 0, 0, -0.004299, 0.998525, 22.979879)" fill="#000000" stroke="none">
    <path d="M4260 4126 c-143 -31 -260 -95 -365 -201 -85 -85 -130 -160 -170 -278 l-30 -90 -135 -53 c-164 -64 -282 -99 -384 -113 -206 -29 -534 -22 -751 15 -312 53 -571 152 -897 343 -343 201 -543 273 -797 288 -170 9 -396 -29 -519 -89 -150 -72 -256 -302 -193 -415 27 -46 21 -43 234 -155 204 -107 237 -129 310 -208 76 -82 135 -206 186 -390 77 -282 152 -456 273 -632 107 -157 296 -334 453 -423 28 -16 52 -30 54 -32 2 -1 -14 -22 -36 -46 -50 -54 -90 -135 -104 -211 -6 -33 -9 -128 -7 -212 3 -166 8 -181 72 -228 27 -21 36 -21 958 -24 925 -2 931 -2 974 18 72 35 84 74 84 266 -1 219 -19 286 -106 383 l-44 49 67 45 c313 209 517 535 594 950 28 151 36 414 19 618 -11 127 -11 170 -1 214 55 244 318 384 553 295 107 -41 212 -151 244 -257 21 -70 28 -191 15 -254 -36 -172 -162 -256 -413 -277 -71 -6 -115 -15 -133 -26 -93 -61 -84 -208 15 -258 85 -43 337 -6 499 73 227 112 355 348 337 624 -13 215 -71 350 -206 486 -95 96 -178 148 -298 186 -96 31 -256 39 -352 19z m-3365 -415 c143 -36 255 -87 490 -226 293 -173 534 -273 819 -340 373 -88 863 -98 1161 -23 44 11 135 40 202 64 67 24 127 44 134 44 20 0 5 -404 -20 -520 -82 -381 -269 -638 -578 -794 -312 -157 -849 -176 -1238 -44 -305 103 -549 319 -695 615 -50 103 -85 201 -145 418 -100 360 -249 542 -586 715 -54 28 -99 53 -99 55 0 7 103 37 173 51 95 18 277 11 382 -15z m2211 -2246 c43 -18 64 -63 64 -140 l0 -55 -745 0 -745 0 0 56 c0 71 24 122 64 140 48 21 1312 20 1362 -1z" style="stroke: rgb(0, 0, 0); stroke-width: 213.22px;"/>
  </g>
</symbol>
  <symbol id="soup" viewBox="0 0 24 24" stroke="currentColor" stroke-width="2" stroke-linecap="round" stroke-linejoin="round" fill="none">

  <g transform="matrix(1.105263, 0, 0, 1.105263, -1.815787, -1.263156)">
    <path d="M12 21a9 9 0 0 0 9-9H3a9 9 0 0 0 9 9Z" style="stroke: rgb(0, 0, 0);"/>
    <path d="M7 21h10" style="stroke: rgb(0, 0, 0);"/>
    <path d="M19.5 12 22 6" style="stroke: rgb(0, 0, 0);"/>
    <path d="M16.25 3c.27.1.8.53.75 1.36-.06.83-.93 1.2-1 2.02-.05.78.34 1.24.73 1.62" style="stroke: rgb(0, 0, 0);"/>
    <path d="M11.25 3c.27.1.8.53.74 1.36-.05.83-.93 1.2-.98 2.02-.06.78.33 1.24.72 1.62" style="stroke: rgb(0, 0, 0);"/>
    <path d="M6.25 3c.27.1.8.53.75 1.36-.06.83-.93 1.2-1 2.02-.05.78.34 1.24.74 1.62" style="stroke: rgb(0, 0, 0);"/>
  </g>
</symbol>
  <symbol id="tartinade" viewBox="0 0 24 24">

  <g transform="matrix(0.056856, 0, 0, 0.056856, 0.568247, 0.568256)" style="">
    <path d="m329.983 113.307 42.007-53.209a5 5 0 0 0-3.327-8.062l-45.711-5.507 3.455-6.049a5 5 0 0 0-3.261-7.362l-149-33a5 5 0 0 0-5.987 5.848l15.857 80.458c-47.805 2.327-92.204 14.419-125.567 34.286C22.734 141.978 3.065 170.136 3.065 200c0 111.455 88.822 202.13 198 202.13s198-90.675 198-202.13c0-33.721-25.091-65.071-69.082-86.693M389.065 200c0 7.945-1.636 15.786-4.87 23.438-7.342-31.788-35.829-60.023-79.485-78.118l18.932-23.98c41.634 19.912 65.423 48.433 65.423 78.66m-85.528 87.075a4.96 4.96 0 0 0-1.837-2.503c-17.333-12.293-34.546.024-35.271.555a5 5 0 0 0 2.958 9.035c1.025 0 2.06-.314 2.95-.966.106-.078 9.816-7.024 20.16-2.419C264.628 299.448 233.394 304 201.065 304c-39.089 0-76.594-6.636-108.462-19.191-30.09-11.854-53.046-28.074-66.524-46.972.86-26.314 18.381-51.233 49.528-70.319 31.53-19.322 73.357-30.469 118.172-31.555l.204 1.037h-9.585a5 5 0 0 0 0 10h15.526l30.991 1.699 2.367 7.76a5 5 0 0 0 2.925 3.184l39.879 15.952 12.883 5.946a5.002 5.002 0 0 0 4.192-9.08l-7.24-3.341 12.338-15.628c47.826 19.078 76.683 50.347 77.782 84.36-13.478 18.891-36.43 35.107-66.515 46.959a245 245 0 0 1-5.989 2.264m-27.082-122.104-34.307-13.723-33.061-108.366 149.531 18.016zm37.902-123.557-2.18 3.817-109.514-13.195a5 5 0 0 0-5.38 6.423l30.526 100.055-23.59-1.293-24.77-125.685zM63.565 129.302c32.321-19.246 75.649-30.893 122.405-32.962l5.849 29.678c-45.908 1.373-88.835 12.994-121.438 32.973-28.678 17.574-46.816 40.031-52.454 64.431-3.229-7.647-4.863-15.483-4.863-23.423.001-26.197 17.935-51.305 50.501-70.697m137.5 262.828c-88.96 0-163.683-63.475-183.092-148.435 14.613 20.455 39.098 37.864 70.964 50.418C121.961 307.123 160.734 314 201.065 314s79.104-6.877 112.127-19.887c31.868-12.555 56.355-29.965 70.965-50.42-19.407 84.961-94.131 148.437-183.092 148.437" style="stroke: rgb(0, 0, 0); stroke-width: 17.1192px;"/>
    <path d="M119.301 183.528c-19-9.502-34.137 5.302-34.771 5.937a5 5 0 1 0 7.072 7.071c.104-.104 10.597-10.38 23.229-4.063a5 5 0 0 0 6.708-2.236 5.003 5.003 0 0 0-2.238-6.709M178.156 228.123a5 5 0 0 0-1.185-6.971c-17.329-12.294-34.545.024-35.271.555a4.99 4.99 0 0 0-1.084 6.959 4.99 4.99 0 0 0 4.053 2.063 5 5 0 0 0 2.919-.938c.493-.353 12.209-8.562 23.597-.482a5 5 0 0 0 6.971-1.186M212.467 197.195c1.025 0 2.06-.314 2.95-.966.119-.087 12.062-8.638 23.576-.467a5 5 0 1 0 5.787-8.156c-17.332-12.294-34.546.025-35.271.555a5 5 0 0 0 2.958 9.034M245.78 254.606c-17.332-12.294-34.547.024-35.271.555a5 5 0 0 0 2.958 9.035c1.025 0 2.06-.314 2.95-.966.118-.087 12.062-8.638 23.576-.467a5.002 5.002 0 0 0 5.787-8.157M118.78 258.606c-17.33-12.294-34.546.023-35.271.555a4.99 4.99 0 0 0-1.084 6.959 4.99 4.99 0 0 0 4.053 2.063 5 5 0 0 0 2.919-.938c.493-.354 12.208-8.562 23.597-.482a5 5 0 1 0 5.786-8.157M72.958 231.922c-17.329-12.294-34.545.024-35.271.555a4.99 4.99 0 0 0-1.084 6.959 4.99 4.99 0 0 0 4.053 2.063 5 5 0 0 0 2.919-.938c.493-.354 12.209-8.562 23.597-.482a5 5 0 1 0 5.786-8.157M164.476 165.962a5 5 0 0 0 2.919-.938c.493-.354 12.209-8.561 23.597-.482a5 5 0 0 0 5.786-8.156c-17.33-12.294-34.546.024-35.271.555a4.99 4.99 0 0 0-1.084 6.959 4.99 4.99 0 0 0 4.053 2.062M205.778 292.385c-17.331-12.294-34.546.024-35.271.555a4.99 4.99 0 0 0-1.084 6.959 4.99 4.99 0 0 0 4.053 2.063 5 5 0 0 0 2.919-.938c.493-.354 12.208-8.562 23.597-.482a5 5 0 1 0 5.786-8.157M324.647 238.211a5 5 0 0 0-1.185-6.971c-17.333-12.294-34.546.025-35.271.555a5 5 0 0 0 2.958 9.035c1.025 0 2.06-.314 2.95-.966.119-.087 12.062-8.637 23.576-.467a5.003 5.003 0 0 0 6.972-1.186M313.301 198.183c1.025 0 2.06-.314 2.95-.966.119-.087 12.061-8.637 23.576-.467a5 5 0 1 0 5.787-8.156c-17.333-12.294-34.546.025-35.271.555a5 5 0 0 0 2.958 9.034" style="stroke: rgb(0, 0, 0); stroke-width: 17.1192px;"/>
  </g>
</symbol>
  <symbol id="temperature-snow" viewBox="0 0 24 24" fill="#000000">

  <title>temperature-snow</title>
  <path d="M 6.68 15.904 L 6.68 14.303 C 6.68 13.76 6.24 13.319 5.696 13.319 C 5.153 13.319 4.712 13.76 4.712 14.303 L 4.712 15.904 C 3.781 16.3 3.138 17.207 3.138 18.265 C 3.138 19.679 4.283 20.824 5.696 20.824 C 7.109 20.824 8.255 19.679 8.255 18.265 C 8.255 17.207 7.612 16.3 6.697 15.91 L 6.68 15.904 Z M 22.534 12.245 L 19.545 13.906 L 16.186 11.968 L 19.544 10.03 L 22.539 11.69 C 22.676 11.768 22.84 11.814 23.014 11.814 C 23.015 11.814 23.016 11.814 23.017 11.814 C 23.56 11.814 24 11.374 24 10.831 C 24 10.463 23.797 10.141 23.497 9.972 L 23.492 9.97 L 21.532 8.883 L 22.981 8.047 C 23.275 7.873 23.469 7.558 23.469 7.197 C 23.469 6.653 23.027 6.213 22.485 6.213 C 22.305 6.213 22.136 6.261 21.991 6.345 L 21.997 6.343 L 20.549 7.178 L 20.585 4.938 C 20.585 4.933 20.585 4.927 20.585 4.921 C 20.585 4.384 20.153 3.946 19.616 3.938 C 19.084 3.96 18.655 4.377 18.617 4.903 L 18.617 4.906 L 18.562 8.325 L 15.203 10.265 L 15.203 6.389 L 18.14 4.63 C 18.428 4.456 18.619 4.142 18.619 3.786 C 18.619 3.243 18.177 2.802 17.635 2.802 C 17.448 2.802 17.273 2.854 17.125 2.945 L 17.129 2.942 L 15.205 4.096 L 15.205 2.423 C 15.205 1.879 14.763 1.439 14.221 1.439 C 13.677 1.439 13.237 1.879 13.237 2.423 L 13.237 4.093 L 11.318 2.94 C 11.171 2.852 10.996 2.798 10.807 2.798 C 10.265 2.798 9.823 3.239 9.823 3.782 C 9.823 4.139 10.014 4.452 10.299 4.625 L 10.304 4.627 L 13.237 6.388 L 13.237 10.266 L 9.831 8.299 L 9.831 4.103 C 9.831 -1.332 1.565 -1.332 1.565 4.103 L 1.565 14.375 C 0.596 15.392 0 16.772 0 18.291 C 0 21.43 2.544 23.974 5.683 23.974 C 7.792 23.974 9.632 22.826 10.613 21.12 L 10.628 21.093 C 10.68 21.112 10.741 21.128 10.804 21.139 L 10.81 21.14 C 10.81 21.14 10.811 21.14 10.813 21.14 C 10.998 21.14 11.173 21.088 11.321 20.997 L 11.317 21 L 13.238 19.846 L 13.238 21.517 C 13.238 22.06 13.679 22.501 14.222 22.501 C 14.765 22.501 15.206 22.06 15.206 21.517 L 15.206 19.845 L 17.129 20.996 C 17.273 21.084 17.448 21.137 17.636 21.137 C 18.178 21.137 18.62 20.695 18.62 20.153 C 18.62 19.796 18.43 19.483 18.145 19.31 L 18.141 19.308 L 15.206 17.551 L 15.206 13.674 L 18.56 15.61 L 18.62 19.036 C 18.629 19.572 19.065 20.003 19.604 20.003 C 19.604 20.003 19.604 20.003 19.604 20.003 L 19.621 20.003 C 20.157 19.994 20.588 19.557 20.588 19.019 C 20.588 19.013 20.588 19.008 20.588 19.002 L 20.588 19.003 L 20.549 16.758 L 21.999 17.595 C 22.138 17.676 22.305 17.724 22.485 17.724 C 23.029 17.724 23.47 17.284 23.47 16.74 C 23.47 16.38 23.276 16.065 22.987 15.894 L 22.983 15.892 L 21.533 15.056 L 23.492 13.967 C 23.794 13.796 23.995 13.475 23.995 13.109 C 23.995 12.565 23.554 12.125 23.011 12.125 C 22.837 12.125 22.673 12.171 22.531 12.25 L 22.536 12.248 L 22.534 12.245 Z M 12.25 11.966 L 9.83 13.365 L 9.83 10.568 L 12.25 11.966 Z M 5.696 22.004 C 3.631 22.004 1.957 20.329 1.957 18.265 C 1.957 17.159 2.438 16.165 3.2 15.48 L 3.203 15.477 C 3.211 15.47 3.214 15.461 3.221 15.454 C 3.268 15.405 3.31 15.349 3.345 15.29 L 3.347 15.286 C 3.381 15.244 3.413 15.197 3.441 15.148 L 3.443 15.143 C 3.459 15.1 3.473 15.047 3.482 14.994 L 3.483 14.988 C 3.504 14.925 3.52 14.851 3.527 14.774 L 3.527 14.77 L 3.532 14.744 L 3.532 4.101 C 3.531 4.077 3.531 4.048 3.531 4.018 C 3.531 2.821 4.501 1.852 5.697 1.852 C 6.893 1.852 7.864 2.821 7.864 4.018 C 7.864 4.048 7.863 4.077 7.862 4.105 L 7.862 4.101 L 7.862 14.744 L 7.868 14.77 C 7.874 14.851 7.891 14.925 7.914 14.995 L 7.912 14.987 C 7.922 15.047 7.936 15.099 7.952 15.149 L 7.95 15.143 C 7.981 15.197 8.012 15.243 8.047 15.287 L 8.046 15.286 C 8.084 15.349 8.126 15.405 8.173 15.455 L 8.171 15.454 C 8.179 15.461 8.181 15.47 8.188 15.477 C 8.955 16.165 9.435 17.159 9.435 18.265 C 9.435 20.329 7.761 22.004 5.696 22.004 C 5.696 22.004 5.696 22.004 5.696 22.004 Z M 11.362 18.67 C 11.372 18.534 11.404 18.404 11.404 18.265 C 11.394 17.143 11.061 16.1 10.493 15.223 L 10.506 15.245 L 13.234 13.67 L 13.234 17.544 L 11.362 18.67 Z"/>
</symbol>
</svg>