<?xml version="1.0" encoding="UTF-8" standalone="no"?>
<!-- Created with Inkscape (http://www.inkscape.org/) -->

<svg
   width="338.50253"
   height="32.866791"
   viewBox="0 0 338.50253 32.866791"
   version="1.1"
   id="svg1"
   xmlns="http://www.w3.org/2000/svg"
   xmlns:svg="http://www.w3.org/2000/svg">
  <defs
     id="defs1" />
  <g
     id="layer1"
     transform="translate(-374.37155,-365.49747)">
    <path
       d="m 390.38286,398.31598 q -1.91949,0 -4.11987,-0.2809 -2.15357,-0.2809 -4.26032,-1.17042 -2.10676,-0.88952 -3.83897,-2.62173 -1.73222,-1.73222 -2.76219,-4.58804 -1.02997,-2.90264 -1.02997,-7.16296 0,-4.68167 1.59177,-8.52063 1.59177,-3.83897 4.82212,-6.13299 3.23035,-2.29402 8.09929,-2.29402 3.51125,0 5.71164,0.60862 2.2472,0.60861 3.51125,1.59176 1.26405,0.98315 1.73222,2.15357 0.51498,1.17042 0.51498,2.34084 0,1.21723 -0.65543,2.34083 -0.60862,1.1236 -1.9663,1.77904 -1.31087,0.60861 -2.71537,0.5618 -1.4045,-0.0936 -2.5281,-0.0936 -2.43447,0 -3.83897,0.88952 -1.35769,0.8427 -1.91949,2.62174 0.74907,-0.0468 1.63859,-0.0468 0.93633,-0.0468 1.91948,-0.0468 1.91949,0 3.6517,0.0936 1.77904,0.0468 2.48129,0.18726 1.63858,0.32772 2.48128,1.31087 0.84271,0.93633 0.84271,2.15357 0,1.17042 -0.79589,2.10675 -0.79588,0.93633 -2.57492,1.31087 -0.65543,0.14045 -2.5281,0.23408 -1.82585,0.0468 -3.83897,0.0468 -0.79588,0 -1.54495,0 -0.74907,-0.0468 -1.35768,-0.0468 0.65543,1.45132 1.9663,2.29402 1.35768,0.79588 3.46443,0.79588 0.79589,0 2.29402,-0.14045 1.49814,-0.18726 2.90264,0.23409 2.2472,0.70225 2.2472,2.94945 0,1.21723 -0.8427,2.29402 -0.79589,1.02996 -2.90264,1.63858 -2.05993,0.60862 -5.85208,0.60862 z m 34.93536,0 q -1.87267,0 -2.66855,-1.02997 -0.74907,-1.07678 -0.88952,-2.66855 -0.14045,-1.63858 -0.14045,-3.27717 0,-2.48128 -0.70225,-3.97942 -0.70225,-1.54495 -2.48128,-1.54495 -1.59177,0 -2.34084,1.54495 -0.74906,1.49814 -0.74906,3.97942 0,1.63859 -0.14045,3.23035 -0.0936,1.59177 -0.84271,2.66855 -0.74906,1.02997 -2.71536,1.02997 -1.45132,0 -2.43447,-1.07678 -0.93634,-1.07679 -1.45132,-2.809 -0.51498,-1.73222 -0.74907,-3.74534 -0.18726,-2.01312 -0.18726,-3.88579 0,-1.87266 0.18726,-3.83897 0.18727,-1.9663 0.65544,-3.6517 0.51498,-1.6854 1.45131,-2.71537 0.93634,-1.02996 2.43447,-1.02996 2.66855,0 3.32399,2.43446 0.5618,-0.60861 1.77903,-1.1236 1.26405,-0.5618 2.85582,-0.5618 3.60489,0 5.89891,1.82585 2.29401,1.82586 3.32398,5.05621 1.07679,3.18353 1.02997,7.39704 0,2.15357 -0.42135,3.9326 -0.37453,1.73222 -1.35769,2.809 -0.93633,1.02997 -2.66855,1.02997 z m 16.48965,-0.0936 q -3.13672,0 -4.35395,-3.83897 -1.21723,-3.88579 -1.21723,-12.50006 0,-4.82212 0.32771,-8.47383 0.32772,-3.69851 1.49814,-5.75845 1.21723,-2.10675 3.74533,-2.10675 1.82586,0 2.76219,1.07678 0.98315,1.07679 1.35768,3.04309 0.42135,1.9663 0.46817,4.68167 0.0468,2.71537 0.0468,5.99254 l 0.14045,-0.0936 q 2.34083,-1.59176 4.54122,-2.71537 2.20038,-1.17041 4.02623,-1.17041 1.35769,0 2.2472,0.65543 0.93634,0.60862 1.40451,1.59177 0.46816,0.93633 0.46816,1.91948 0,1.77904 -1.26405,3.23036 -1.26405,1.45131 -3.27717,2.94945 0.5618,0.70225 1.07679,1.54495 0.5618,0.79588 1.17041,1.77903 0.79589,1.21724 1.31087,2.5281 0.51499,1.31087 0.51499,2.38766 0,1.26405 -0.60862,2.01311 -0.60862,0.70226 -1.49814,1.02997 -0.88951,0.2809 -1.77903,0.23409 -1.35768,-0.0936 -2.71537,-1.31087 -1.35768,-1.21724 -2.62173,-2.85582 -0.5618,-0.70225 -1.1236,-1.45132 -0.51499,-0.79588 -0.98316,-1.54495 -0.70225,0.2809 -1.35768,0.46817 -0.32772,3.46443 -1.31087,5.10302 -0.93633,1.59177 -2.99627,1.59177 z m 30.95594,0.0936 q -2.29402,0 -4.21351,-0.70225 -1.87267,-0.70225 -2.99627,-2.10675 -1.1236,-1.45132 -1.1236,-3.65171 0,-1.87266 1.1236,-3.18353 1.1236,-1.31087 2.99627,-2.01312 1.91949,-0.70225 4.21351,-0.70225 1.35768,0 2.48128,0.23408 1.1236,0.18727 1.54495,0.46817 0,-1.07678 -0.88952,-1.87267 -0.88951,-0.8427 -3.0899,-0.8427 -1.02997,0 -1.63858,0.18727 -0.5618,0.14045 -1.02997,0.37453 -0.46817,0.23409 -1.07678,0.42135 -0.5618,0.14045 -1.54496,0.14045 -1.45131,0 -2.34083,-0.74906 -0.8427,-0.79589 -0.8427,-2.38766 0,-1.45131 0.79588,-2.48128 0.8427,-1.07679 2.15357,-1.77904 1.31087,-0.70225 2.809,-1.02996 1.54495,-0.32772 2.94946,-0.32772 4.16668,0 6.78842,1.54495 2.62173,1.49814 3.88578,3.9326 1.26405,2.43447 1.26405,5.29029 0,1.59177 -0.2809,2.94945 -0.23408,1.35769 -0.65543,2.10675 0.65543,0.56181 0.98315,1.31087 0.37453,0.74907 0.37453,1.54495 0,1.31087 -0.88951,2.34084 -0.8427,0.98315 -2.43447,0.98315 -1.21724,0 -1.91949,-0.37453 -0.70225,-0.37454 -1.4045,-0.98316 -1.1236,0.65544 -2.48128,1.02997 -1.35769,0.32772 -3.51125,0.32772 z m 0.93633,-4.72849 q 1.07678,0 1.59177,-0.42135 0.5618,-0.46816 0.5618,-1.02997 0,-0.5618 -0.5618,-0.98315 -0.51499,-0.46816 -1.59177,-0.46816 -1.02997,0 -1.59177,0.46816 -0.5618,0.42135 -0.5618,0.98315 0,0.56181 0.5618,1.02997 0.5618,0.42135 1.59177,0.42135 z m 52.40811,4.63486 q -4.44759,0 -8.09929,-1.77904 -3.65171,-1.82585 -5.80527,-5.47755 -2.15357,-3.65171 -2.15357,-9.12926 0,-3.23035 1.1236,-6.13299 1.1236,-2.94945 3.13672,-5.24347 2.05993,-2.29402 4.82212,-3.60488 2.76218,-1.31087 6.08617,-1.31087 4.16668,0 7.3034,1.54495 3.13672,1.49813 4.86894,4.11987 1.77903,2.62173 1.77903,5.85209 0,1.26405 -0.51498,2.43447 -0.46817,1.1236 -1.49813,1.87266 -0.98315,0.74907 -2.57492,0.74907 -1.49814,0 -2.38765,-0.46817 -0.8427,-0.46816 -1.45132,-1.1236 -0.5618,-0.70225 -1.17042,-1.4045 -0.60862,-0.70225 -1.49813,-1.17042 -0.88952,-0.46816 -2.43447,-0.46816 -1.45132,0 -2.66855,0.74906 -1.21724,0.74907 -1.9663,2.05994 -0.70226,1.26405 -0.70226,2.90263 0,2.43447 1.26406,4.26032 1.31086,1.82586 3.69851,1.82586 1.87267,0 2.94946,-0.5618 1.1236,-0.5618 1.87266,-1.26406 0.79589,-0.74906 1.68541,-1.31086 0.93633,-0.5618 2.38765,-0.5618 2.05993,0 3.0899,1.35768 1.07678,1.35769 0.88952,3.32399 -0.18727,2.01311 -1.77904,3.83897 -1.54495,1.82585 -4.2135,2.99626 -2.62174,1.12361 -6.03935,1.12361 z m 29.3642,0.14045 q -3.46444,0.0468 -6.08617,-1.40451 -2.57492,-1.49813 -4.07306,-4.02623 -1.45131,-2.57492 -1.54495,-5.66482 -0.0468,-3.18354 1.45132,-5.61801 1.49813,-2.48128 4.16669,-3.9326 2.66855,-1.45132 6.08617,-1.45132 3.3708,-0.0468 5.94572,1.4045 2.62173,1.45132 4.16668,3.93261 1.54496,2.48128 1.63859,5.66482 0.0468,3.04308 -1.45132,5.57119 -1.49813,2.48128 -4.16669,3.97941 -2.66855,1.45132 -6.13298,1.54496 z m 0.14045,-6.83524 q 1.26405,0 2.20038,-0.98315 0.93634,-0.98315 0.93634,-2.29402 0,-1.31087 -0.93634,-2.2472 -0.93633,-0.98315 -2.20038,-0.98315 -1.26405,0 -2.20039,0.98315 -0.93633,0.93633 -0.93633,2.2472 0,1.31087 0.93633,2.29402 0.93634,0.98315 2.20039,0.98315 z m 28.84923,6.83524 q -3.46443,0.0468 -6.08617,-1.40451 -2.57492,-1.49813 -4.07305,-4.02623 -1.45132,-2.57492 -1.54495,-5.66482 -0.0468,-3.18354 1.45131,-5.61801 1.49814,-2.48128 4.16669,-3.9326 2.66855,-1.45132 6.08617,-1.45132 3.3708,-0.0468 5.94572,1.4045 2.62174,1.45132 4.16669,3.93261 1.54495,2.48128 1.63858,5.66482 0.0468,3.04308 -1.45131,5.57119 -1.49814,2.48128 -4.16669,3.97941 -2.66855,1.45132 -6.13299,1.54496 z m 0.14045,-6.83524 q 1.26405,0 2.20039,-0.98315 0.93633,-0.98315 0.93633,-2.29402 0,-1.31087 -0.93633,-2.2472 -0.93634,-0.98315 -2.20039,-0.98315 -1.26405,0 -2.20038,0.98315 -0.93634,0.93633 -0.93634,2.2472 0,1.31087 0.93634,2.29402 0.93633,0.98315 2.20038,0.98315 z m 30.58144,6.78842 q -3.3708,0 -5.66482,-0.93633 -2.29402,-0.98316 -3.79215,-2.52811 -1.45132,-1.54495 -2.29402,-3.3708 -0.79589,-1.82585 -1.17042,-3.60489 -0.37453,-1.77903 -0.46817,-3.23035 -0.0468,-1.45132 -0.0468,-2.15357 0,-2.15356 0.23408,-4.4944 0.23408,-2.34083 0.74907,-4.54122 0.51498,-2.2472 1.35768,-4.02623 0.88952,-1.77904 2.10675,-2.85582 1.21724,-1.07679 2.90264,-1.07679 1.49813,0 2.71537,0.98315 1.26405,0.98315 1.26405,3.04309 0,2.01312 -0.65544,3.97942 -0.60861,1.91948 -0.79588,3.9326 1.07678,-0.60862 2.29402,-0.8427 1.21723,-0.2809 2.38765,-0.2809 2.48129,0 4.7753,1.17042 2.29402,1.1236 3.74534,3.46443 1.49813,2.34084 1.49813,5.99254 0,2.85582 -1.35768,5.47755 -1.31087,2.62174 -3.83897,4.26032 -2.48128,1.63859 -5.94572,1.63859 z m -0.2809,-7.39704 q 1.26405,0 2.20038,-0.93633 0.98316,-0.98315 0.98316,-2.29402 0,-1.31087 -0.98316,-2.29402 -0.93633,-0.98315 -2.20038,-0.98315 -1.26405,0 -2.20039,0.98315 -0.93633,0.98315 -0.93633,2.29402 0,1.31087 0.93633,2.29402 0.93634,0.93633 2.20039,0.93633 z m 28.66195,7.44386 q -3.46444,0.0468 -6.08617,-1.40451 -2.57492,-1.49813 -4.07306,-4.02623 -1.45131,-2.57492 -1.54495,-5.66482 -0.0468,-3.18354 1.45132,-5.61801 1.49814,-2.48128 4.16669,-3.9326 2.66855,-1.45132 6.08617,-1.45132 3.3708,-0.0468 5.94572,1.4045 2.62173,1.45132 4.16669,3.93261 1.54495,2.48128 1.63858,5.66482 0.0468,3.04308 -1.45132,5.57119 -1.49813,2.48128 -4.16668,3.97941 -2.66856,1.45132 -6.13299,1.54496 z m 0.14045,-6.83524 q 1.26405,0 2.20038,-0.98315 0.93634,-0.98315 0.93634,-2.29402 0,-1.31087 -0.93634,-2.2472 -0.93633,-0.98315 -2.20038,-0.98315 -1.26405,0 -2.20039,0.98315 -0.93633,0.93633 -0.93633,2.2472 0,1.31087 0.93633,2.29402 0.93634,0.98315 2.20039,0.98315 z m 28.84923,6.83524 q -3.46443,0.0468 -6.08617,-1.40451 -2.57492,-1.49813 -4.07305,-4.02623 -1.45132,-2.57492 -1.54495,-5.66482 -0.0468,-3.18354 1.45132,-5.61801 1.49813,-2.48128 4.16668,-3.9326 2.66855,-1.45132 6.08617,-1.45132 3.37081,-0.0468 5.94572,1.4045 2.62174,1.45132 4.16669,3.93261 1.54495,2.48128 1.63858,5.66482 0.0468,3.04308 -1.45131,5.57119 -1.49814,2.48128 -4.16669,3.97941 -2.66855,1.45132 -6.13299,1.54496 z m 0.14045,-6.83524 q 1.26405,0 2.20039,-0.98315 0.93633,-0.98315 0.93633,-2.29402 0,-1.31087 -0.93633,-2.2472 -0.93634,-0.98315 -2.20039,-0.98315 -1.26405,0 -2.20038,0.98315 -0.93634,0.93633 -0.93634,2.2472 0,1.31087 0.93634,2.29402 0.93633,0.98315 2.20038,0.98315 z m 22.71625,6.69479 q -3.13672,0 -4.35395,-3.83897 -1.21724,-3.88579 -1.21724,-12.50006 0,-4.82212 0.32772,-8.47383 0.32772,-3.69851 1.49813,-5.75845 1.21724,-2.10675 3.74534,-2.10675 1.82585,0 2.76219,1.07678 0.98315,1.07679 1.35768,3.04309 0.42135,1.9663 0.46817,4.68167 0.0468,2.71537 0.0468,5.99254 l 0.14045,-0.0936 q 2.34084,-1.59176 4.54122,-2.71537 2.20039,-1.17041 4.02624,-1.17041 1.35768,0 2.2472,0.65543 0.93634,0.60862 1.4045,1.59177 0.46817,0.93633 0.46817,1.91948 0,1.77904 -1.26405,3.23036 -1.26405,1.45131 -3.27717,2.94945 0.5618,0.70225 1.07678,1.54495 0.5618,0.79588 1.17042,1.77903 0.79589,1.21724 1.31087,2.5281 0.51498,1.31087 0.51498,2.38766 0,1.26405 -0.60861,2.01311 -0.60862,0.70226 -1.49814,1.02997 -0.88952,0.2809 -1.77903,0.23409 -1.35769,-0.0936 -2.71537,-1.31087 -1.35769,-1.21724 -2.62174,-2.85582 -0.5618,-0.70225 -1.1236,-1.45132 -0.51498,-0.79588 -0.98315,-1.54495 -0.70225,0.2809 -1.35768,0.46817 -0.32772,3.46443 -1.31087,5.10302 -0.93633,1.59177 -2.99627,1.59177 z"
       id="text1"
       style="font-size:46.8167px;font-family:'Cherry Bomb One';-inkscape-font-specification:'Cherry Bomb One, @wght=700';font-variation-settings:'wght' 700;text-align:center;letter-spacing:4.13px;text-anchor:middle;stroke-width:10;stroke-linecap:round;stroke-linejoin:round"
       aria-label="Enka Coobook" />
  </g>
</svg>
