<?xml version="1.0" encoding="UTF-8" standalone="no"?>
<!-- Created with Inkscape (http://www.inkscape.org/) -->

<svg
   version="1.1"
   id="svg1"
   width="235.06081"
   height="234.74574"
   viewBox="0 0 235.06081 234.74574"
   xmlns="http://www.w3.org/2000/svg"
   xmlns:svg="http://www.w3.org/2000/svg">
  <defs
     id="defs1" />
  <g
     id="g1"
     transform="translate(-1.0296025,-0.70712389)">
    <path
       style="fill:#000000"
       d="M 110.56486,235.28159 C 53.126305,230.64755 8.4143476,187.78648 1.5678115,130.79657 l -0.538209,-4.48 0.00494,-8.16 0.00494,-8.16 0.5324715,-4.96 C 6.4439299,59.6538 37.121971,21.563931 80.644855,6.859618 88.320281,4.2664563 92.460818,3.3187909 104.00486,1.5130985 c 0.528,-0.082589 3.68732,-0.2977191 7.02071,-0.4780678 l 6.0607,-0.32790684 6.4193,0.33707504 C 183.86065,4.2134262 231.18939,50.235565 235.71572,110.15657 l 0.37467,4.96 -0.19082,6.56 -0.19082,6.56 -0.64063,4.64 c -3.27011,23.68469 -11.49296,42.32147 -26.68136,60.47226 -19.55006,23.36316 -45.54952,37.44287 -76.5419,41.45037 l -3.84,0.49653 -7.04,0.12847 c -3.872,0.0707 -8.552,0.006 -10.4,-0.14261 z m 53.44777,-26.60783 c 1.46146,-0.82139 2.65435,-2.43022 3.20708,-4.32534 l 0.38737,-1.32815 -0.21073,-1.39185 c -0.11589,-0.76552 -0.53312,-1.96454 -0.92716,-2.66449 l -0.71644,-1.27264 -11.52639,-8.64736 c -6.33951,-4.75605 -13.74478,-10.37536 -16.45614,-12.48736 -2.71136,-2.112 -5.67657,-4.416 -6.58934,-5.12 -3.71589,-2.86596 -10.74163,-8.38279 -19.97602,-15.68578 -9.41442,-7.44535 -17.05708,-13.40107 -27.520005,-21.44558 -11.35006,-8.7266 -22.894123,-16.81936 -33.759999,-23.66685 -2.464,-1.55277 -5.2,-3.27713 -6.08,-3.83191 -3.705957,-2.33636 -4.992474,-3.10069 -8.62701,-5.12538 -7.396155,-4.120167 -8.012024,-3.842301 -5.017692,2.26387 7.344658,14.97755 20.05809,28.95531 46.258165,50.85848 14.507522,12.12823 13.169925,11.21494 14.618972,9.98164 0.457839,-0.38967 2.231662,-1.89649 3.941829,-3.34849 l 3.109393,-2.64 h 0.87223 0.87223 l 5.278737,4.4 c 10.29308,8.57962 22.55419,19.25851 40.47096,35.24843 5.7982,5.17464 10.78465,9.61633 11.081,9.87043 0.29635,0.2541 1.08835,0.66622 1.76,0.91583 l 1.22119,0.45383 1.53217,-0.15062 c 0.84269,-0.0829 2.10071,-0.47017 2.7956,-0.86071 z m -5.78566,-4.38732 -0.72878,-0.59013 v -1.02765 -1.02764 l 0.67556,-0.67556 0.67555,-0.67555 h 1.02765 1.02764 l 0.59013,0.72878 c 0.32458,0.40083 0.59014,1.11973 0.59014,1.59755 v 0.86877 l -0.74063,0.69578 c -0.90604,0.85118 -2.14472,0.89316 -3.11726,0.10565 z m -75.552683,3.87013 c 0.892382,-0.484 3.676024,-2.752 6.18587,-5.04 2.509846,-2.288 7.088534,-6.464 10.174866,-9.28 3.086327,-2.816 7.699127,-7.01435 10.250667,-9.32967 2.55154,-2.31532 5.10828,-4.69931 5.68163,-5.29777 l 1.04246,-1.0881 -0.88246,-0.8248 c -0.48536,-0.45363 -2.29561,-1.92163 -4.02279,-3.26222 l -3.14033,-2.43744 h -0.86847 c -1.07785,0 -1.06028,-0.0123 -8.874057,6.22923 -8.066643,6.44355 -13.111202,10.40168 -19.016818,14.92124 -5.820163,4.45415 -6.037033,4.65351 -6.755186,6.20953 l -0.590758,1.28 -0.007,1.69064 -0.007,1.69064 0.795335,1.56952 c 1.307353,2.57994 3.378936,3.77871 6.608123,3.82394 l 1.803459,0.0253 z m -4.565923,-4.9874 -0.823509,-0.82351 v -1.14909 -1.14909 l 0.785455,-0.78545 c 2.245827,-2.24583 5.708491,1.09085 3.759728,3.62293 l -0.560587,0.72839 -1.168789,0.18966 -1.168788,0.18967 z m 62.536496,-44.74072 c 10.48999,-9.52148 23.23734,-21.13336 27.50204,-25.05229 l 3.34204,-3.07107 1.17523,-0.35211 1.17523,-0.35211 4.44273,1.04999 4.44273,1.04999 2.72,0.0279 2.72,0.0279 1.76,-0.83213 1.76,-0.83213 5.28,-4.95561 c 10.29603,-9.66349 16.47461,-16.4326 17.27316,-18.92412 l 0.39231,-1.224 -0.20611,-1.37444 C 213.82902,99.645106 198.8278,84.262818 194.34526,83.025128 l -1.16728,-0.3223 -1.45168,0.309612 -1.45167,0.309611 -2.01489,1.778387 c -1.10818,0.978112 -4.39088,4.103385 -7.29488,6.94505 -2.904,2.841665 -7.40683,7.247536 -10.00629,9.790822 l -4.72628,4.62416 -0.6318,1.30511 c -0.34748,0.71782 -0.79354,2.11052 -0.99123,3.0949 l -0.35944,1.78978 0.3275,1.71315 c 0.18012,0.94224 0.57146,2.92901 0.86963,4.41505 l 0.54213,2.70189 -0.34718,1.15878 -0.34718,1.15879 -4.08493,3.98988 c -7.1119,6.94643 -16.27862,15.0009 -33.36493,29.31661 -1.672,1.40088 -3.04,2.71363 -3.04,2.91722 0,0.51753 6.52355,5.81511 7.15971,5.81419 0.28616,-4.2e-4 4.19229,-3.33373 8.68029,-7.40737 z m 46.28959,-35.41708 c -0.29128,-0.32185 -0.52959,-0.8776 -0.52959,-1.23498 v -0.64979 l 6.8,-6.53546 c 3.74,-3.5945 7.97888,-7.64676 9.41973,-9.00501 l 2.61974,-2.46956 h 0.58906 c 0.32398,0 0.9091,0.22417 1.30026,0.49815 l 0.71121,0.49814 v 0.74001 0.74001 l -6.64,6.37082 c -3.652,3.50395 -7.88946,7.55478 -9.41656,9.00184 l -2.77656,2.63103 h -0.77385 c -0.42561,0 -1.01216,-0.26334 -1.30344,-0.5852 z m -6.72,-5.76 c -0.29128,-0.32185 -0.52959,-0.9596 -0.52959,-1.41721 v -0.83202 l 7.57841,-7.14278 c 4.16813,-3.92853 8.491,-7.970788 9.60638,-8.982788 l 2.02796,-1.84 h 0.94236 0.94237 l 0.35847,0.669805 c 0.19715,0.368392 0.27875,0.987406 0.18133,1.375585 l -0.17714,0.705781 -8.25007,7.845437 c -11.94841,11.36239 -11.44652,10.9817 -12.68048,9.61819 z m -6.49136,-7.59363 -0.53651,-0.81882 0.44914,-0.89598 c 0.24702,-0.49279 3.24918,-3.54432 6.67145,-6.78118 3.42228,-3.236852 7.6295,-7.217189 9.34939,-8.845189 l 3.12708,-2.96 h 0.78775 c 0.9924,0 1.79347,0.782046 1.79347,1.750881 v 0.745166 l -7.28,7.010129 c -4.004,3.855573 -8.38849,8.045963 -9.74331,9.311973 l -2.4633,2.30185 h -0.80932 -0.80932 z m -54.1633,38.89221 c 6.68615,-1.26801 16.12237,-9.28475 18.89463,-16.05235 l 0.69681,-1.70103 0.0268,-2.66795 0.0268,-2.66795 -0.74972,-0.6074 -0.74971,-0.60741 -0.60698,0.32484 c -0.80036,0.42834 -1.44359,1.73082 -1.73138,3.50587 -0.12841,0.792 -0.58609,2.19219 -1.01707,3.11153 l -0.7836,1.67152 -1.29429,1.10787 c -1.66754,1.42735 -4.66005,2.61508 -8.18597,3.24901 l -2.80128,0.50365 -4,0.003 c -8.69955,0.006 -14.38809,-1.87369 -16.85799,-5.56936 l -1.017967,-1.52319 -0.3791,-1.83681 c -0.2085,-1.01024 -0.59187,-2.37138 -0.851937,-3.02474 l -0.472844,-1.18793 -0.647694,-0.20557 -0.647693,-0.20557 -0.68239,0.68322 -0.68239,0.68322 0.01429,2.31028 0.01429,2.31028 0.831025,2.00622 c 3.250113,7.84628 13.75579,16.02361 21.41672,16.6702 0.28398,0.024 1.29135,-0.1034 2.23861,-0.28304 z m 4.44507,-16.95455 c 5.63133,-0.48311 7.72438,-1.61379 8.16023,-4.40825 0.77708,-4.98227 2.31326,-6.33079 7.74157,-6.79587 1.62163,-0.13894 3.87115,-0.55968 4.99894,-0.93499 l 2.05052,-0.68237 1.2992,-1.11206 1.29919,-1.11207 0.54076,-1.41594 0.54075,-1.41595 -0.13749,-1.22066 c -0.0756,-0.67137 -0.40602,-2.46539 -0.7342,-3.98672 l -0.59671,-2.76605 0.70206,-3.63395 c 0.87318,-4.519752 1.65518,-10.626736 1.65518,-12.926043 V 87.44516 l -1.2,-0.504524 c -15.13147,-6.361823 -33.34701,-8.302066 -49.04,-5.223534 -6.18128,1.212596 -16.517178,4.377132 -18.116812,5.546813 l -0.577528,0.422299 0.389715,4.915179 c 0.214343,2.703348 0.676089,6.355179 1.026103,8.115177 0.700156,3.52065 0.810137,6.06694 0.317959,7.36147 -0.176307,0.46372 -0.473372,1.82804 -0.660145,3.03182 l -0.339587,2.1887 0.37254,1.3835 0.37254,1.38351 1.328079,1.32808 1.328079,1.32808 2.239526,0.6925 c 1.231739,0.38088 3.5766,0.81933 5.210801,0.97434 l 2.971276,0.28183 1.416657,0.68579 1.41665,0.68579 0.643767,1.04163 c 0.35407,0.5729 0.87329,2.03868 1.15382,3.2573 l 0.51005,2.21566 0.95753,0.99513 c 2.00049,2.07903 10.54344,2.92007 20.75898,2.0437 z m -12.79709,-11.67532 -0.39545,-0.47649 0.22278,-1.18754 c 0.28684,-1.52902 2.13893,-6.11703 3.46033,-8.572 l 1.02943,-1.91252 0.84312,-0.46844 0.84313,-0.46845 0.84611,0.5544 0.84611,0.55439 2.04632,4.22657 c 1.12547,2.32462 2.21853,4.91107 2.42903,5.74768 l 0.38271,1.5211 -0.39745,0.4789 -0.39745,0.47889 h -5.68163 -5.68164 z m -12.115947,-8.81031 c -3.098639,-0.64753 -5.905214,-3.15933 -7.115104,-6.36781 l -0.673257,-1.78539 0.133379,-2.72 0.133378,-2.719998 0.699282,-1.351103 c 1.083174,-2.092828 2.491774,-3.50106 4.477241,-4.47607 l 1.818111,-0.892828 2.720007,0.0017 2.72,0.0017 1.81137,0.887813 c 2.08631,1.022567 3.8839,2.866927 4.86307,4.989583 l 0.68232,1.47917 -0.001,2.880003 -10e-4,2.88 -0.87702,1.6693 c -2.23713,4.25809 -6.8175,6.47944 -11.390117,5.52389 z m 31.953037,0.0386 c -3.04383,-0.67661 -5.85102,-2.92727 -7.14559,-5.72895 l -0.69441,-1.50284 v -3.2 -3.199998 l 0.95075,-1.716552 c 1.67053,-3.016087 4.3575,-4.723367 7.95312,-5.053337 l 1.97613,-0.18135 1.81216,0.530233 c 4.55905,1.333966 6.98784,4.747083 6.98784,9.819864 v 2.17713 l -0.65067,1.73908 c -0.35787,0.95649 -1.22699,2.3938 -1.93138,3.19403 l -1.28071,1.45497 -1.66862,0.81054 -1.66862,0.81054 -1.76,0.14781 c -0.968,0.0813 -2.264,0.0358 -2.88,-0.10117 z M 71.820054,99.225556 c 2.655924,-2.764025 4.411908,-7.715902 4.731831,-13.343766 l 0.188433,-3.31478 -3.800573,1.935272 c -2.090315,1.0644 -3.868452,1.867393 -3.951416,1.78443 -0.08296,-0.08296 1.223275,-1.550185 2.90275,-3.260492 3.65791,-3.72506 4.433776,-4.72097 4.433776,-5.69124 v -0.735281 l -0.66782,-0.211958 c -2.703573,-0.858081 -9.38817,3.267675 -13.994471,8.637435 -1.844029,2.149662 -3.897708,5.312413 -3.897708,6.002629 v 0.556573 l 0.861222,0.216153 c 0.473672,0.118884 2.062962,0.05536 3.531755,-0.141161 l 2.670532,-0.357313 2.77864,-1.115682 c 3.27486,-1.314925 3.185294,-1.353851 2.715435,1.180154 -0.202948,1.094523 -0.603337,3.274639 -0.889752,4.844701 l -0.520754,2.854658 0.3396,0.745342 c 0.48754,1.07003 1.115059,0.92695 2.56852,-0.585674 z M 83.91838,81.853199 c 9.827737,-3.77455 20.98399,-5.708649 33.04648,-5.72909 l 7.2,-0.0122 3.68,0.409441 c 6.65299,0.740218 14.0048,2.431144 21.2211,4.88088 l 2.82109,0.957686 0.45891,-0.380854 0.4589,-0.380854 v -2.797141 c 0,-5.899693 -0.64096,-7.283229 -4.17447,-9.01081 -6.72452,-3.2877 -16.50476,-5.619976 -26.70553,-6.368414 l -4.8,-0.352179 -3.36,0.201758 c -12.77796,0.76728 -27.585735,4.59059 -30.647647,7.913097 -1.213822,1.317129 -2.186028,7.761865 -1.551986,10.288089 l 0.211822,0.843964 h 0.467427 c 0.257086,0 1.010342,-0.208517 1.673904,-0.463373 z m 0.566475,-17.081056 c 5.530963,-2.413627 12.791532,-4.429127 20.000005,-5.551909 l 2.72,-0.423663 h 9.44 9.44 l 2.88,0.430447 c 7.1235,1.064684 15.00579,3.275203 21.12,5.922919 l 1.92,0.831443 1.9499,0.0076 1.9499,0.0076 1.78506,-0.61415 c 15.89983,-5.470343 12.73479,-28.431582 -4.3995,-31.916787 l -2.55464,-0.519626 -2.08536,0.358355 c -1.14695,0.197095 -2.44536,0.436121 -2.88536,0.531168 l -0.8,0.172813 -1.5195,-3.193639 -1.51949,-3.19364 -2.00051,-2.139459 c -5.1774,-5.537023 -11.57039,-8.251327 -20.43646,-8.676816 l -3.71595,-0.178331 -3.16405,0.389126 c -10.78367,1.326214 -18.640377,7.079826 -22.268458,16.307615 -1.14301,2.907173 -0.965061,2.814108 -3.726,1.94865 -1.116728,-0.350056 -2.988728,-0.723862 -4.16,-0.830681 l -2.129587,-0.194216 -1.908166,0.356546 c -1.049491,0.1961 -2.837148,0.791268 -3.972569,1.322596 l -2.064404,0.966051 -2.296845,2.334406 -2.296845,2.334407 -0.899325,1.897806 c -3.048353,6.432803 -2.076475,13.171569 2.607917,18.082665 l 1.735398,1.819383 1.863364,0.993163 c 1.02485,0.546239 2.639189,1.210189 3.58742,1.475442 l 1.724055,0.48228 1.6,-0.141384 1.6,-0.141384 z"
       id="path1" />
  </g>
</svg>
