<?xml version="1.0" encoding="UTF-8" standalone="no"?>
<svg
   viewBox="0 0 64 64"
   version="1.1"
   id="svg1271"
   sodipodi:docname="logo.svg"
   inkscape:version="1.4.3 (0d15f75042, 2025-12-25)"
   xmlns:inkscape="http://www.inkscape.org/namespaces/inkscape"
   xmlns:sodipodi="http://sodipodi.sourceforge.net/DTD/sodipodi-0.dtd"
   xmlns="http://www.w3.org/2000/svg"
   xmlns:svg="http://www.w3.org/2000/svg">
  <defs
     id="defs1" />
  <sodipodi:namedview
     id="namedview1"
     pagecolor="#ffffff"
     bordercolor="#000000"
     borderopacity="0.25"
     inkscape:showpageshadow="2"
     inkscape:pageopacity="0.0"
     inkscape:pagecheckerboard="0"
     inkscape:deskcolor="#d1d1d1"
     inkscape:zoom="8"
     inkscape:cx="44.9375"
     inkscape:cy="54.25"
     inkscape:window-width="1872"
     inkscape:window-height="1044"
     inkscape:window-x="0"
     inkscape:window-y="0"
     inkscape:window-maximized="1"
     inkscape:current-layer="svg1271" />
  <path
     style="fill:#000000;stroke-width:0.0659061"
     d="M 29.802,63.806 C 2.879282,62.494578 -8.4240305,30.152914 8.24,13.69 9.356,12.587 9.979,12.004 10.301,11.765 10.8,11.395 10.856,11.313 11.087,10.616 11.746,8.623 13.435,6.53 15.439,5.224 17.23,4.055 18.853,3.427 20.935,3.091 21.771,2.957 22.119,2.936 23.463,2.936 h 1.558 L 25.35,2.7 c 0.18,-0.131 0.329,-0.257 0.329,-0.282 0,-0.154 2.082,-1.289 3.021,-1.646 0.273,-0.105 0.883,-0.284 1.356,-0.4 l 0.86,-0.209 c 0,0 2.826,-0.26 4.075,0.115 2.185,0.655 4.164,1.395 5.877,2.872 l 0.286,0.246 1.099,0.057 c 1.492,0.075 2.517,0.279 4.175,0.833 0.903,0.301 1.186,0.429 2.197,0.993 1.041,0.582 1.42,0.867 2.505,1.89 0.709,0.669 1.075,1.075 1.438,1.596 0.547,0.781 1.116,1.834 1.43,2.648 0.279,0.721 0.393,0.871 1.404,1.862 0.904,0.886 1.686,1.773 2.181,2.472 0.161,0.228 0.432,0.588 0.601,0.802 0.17,0.214 0.393,0.514 0.496,0.67 0.103,0.154 0.339,0.503 0.524,0.775 0.336,0.49 0.446,0.679 1.311,2.229 1.3,2.332 2.215,4.891 2.842,7.945 1.710404,8.340859 -0.898199,17.115048 -6.246,23.595 -1.334,1.611 -4.444,4.527 -6.29,5.898 -1.147998,0.853549 -5.294188,3.747076 -10.442,5.093 -0.335,0.088 -0.883,0.231 -1.217,0.318 -0.766,0.199 -2.741,0.51 -4.022,0.634 -1.22,0.116 -3.949,0.168 -5.338,0.1 z m -3.279,-1.809 c 0.768,-0.194 0.95,-0.343 2.939,-2.399 0.997,-1.031 1.691,-1.842 1.691,-1.974 0,-0.189 -0.478,-0.755 -0.731,-0.866 -0.307,-0.133 -0.495,-0.29 -0.834,-0.689 -0.503,-0.165 -0.029,-0.395 -0.04,-0.542 0.122,-0.127 0.294,-0.343 0.384,-0.481 0.352,-0.167 -0.015,-0.288 -0.021,-0.397 -0.248,-0.201 -0.487,-0.249 -0.706,-0.142 -0.1,0.047 -1.156,1.005 -2.349,2.127 -2.024,1.902 -2.187,2.072 -2.428,2.532 -0.242,0.462 -0.259,0.532 -0.263,1.084 -0.005,0.635 0.054,0.804 0.44,1.268 0.229,0.274 0.52,0.416 1.015,0.494 0.511,0.079 0.527,0.079 0.903,-0.015 z m 13.634,-0.032 c 0.598,-0.157 0.761,-0.266 0.977,-0.664 0.139,-0.256 0.188,-0.454 0.211,-0.858 0.038,-0.647 -0.057,-1.028 -0.37,-1.483 -0.134,-0.196 -1.17,-1.221 -2.351,-2.326 -3.057,-2.862 -9.728,-9.232 -11.253,-10.747 -0.72,-0.715 -1.632,-1.567 -2.025,-1.896 l -0.715,-0.596 -0.08,-0.87 c 0,-0.568 -0.195,-1.149 -0.496,-1.631 -0.697,1.979 -1.803,3.034 -4.102,3.914 -1.38,0.437 -0.253,0.52 0.588,0.614 0.475,0.034 0.644,0.018 0.969,-0.087 0.432,-0.138 0.415,-0.149 0.482,0.304 0.024,0.158 0.089,0.355 0.147,0.436 0.113,0.163 0.194,0.164 0.773,0.008 l 0.31,-0.082 0.502,0.304 c 1.326,0.569 -0.104,0.284 -0.141,0.387 -1.292,0.592 4.366,4.921 5.371,5.895 4.002,3.879 5.763,5.615 6.719,6.622 1.05,1.107 2.23,2.216 2.61,2.455 0.672,0.422 1.129,0.496 1.874,0.301 z m -8.004,-7.961 c -1.39,-1.323 -4.551,-4.323 -3.533,-4.414 0,0 6.222,4.317 6.719,6.337 -1.108,1.036 -2.401,-1.178 -3.186,-1.923 z m 4.407,-1.66 c 0.116,-0.13 1.297,-1.268 2.625,-2.53 1.327,-1.262 2.503,-2.409 2.612,-2.549 0.109,-0.141 0.431,-0.486 0.716,-0.767 0.285,-0.282 0.537,-0.569 0.56,-0.638 0.056,-0.167 0.542,-0.449 0.932,-0.54 0.271,-0.065 0.338,-0.06 0.492,0.035 0.14,0.087 0.261,0.102 0.564,0.071 0.615,-0.064 0.894,-0.156 0.894,-0.299 0,-0.157 -0.167,-0.257 -0.894,-0.531 -0.993,-0.377 -1.509,-0.699 -2.249,-1.405 -0.523,-0.499 -0.746,-0.769 -0.988,-1.197 -0.855,-1.958 -1.39,-1.21 -0.887,0.683 0.601,2.258 -0.111,-0.112 -0.357,0.809 -0.023,0.089 -0.114,0.196 -0.2,0.24 -0.087,0.044 -0.713,0.629 -1.392,1.299 -0.68,0.671 -2.187,2.142 -3.353,3.269 -1.164,1.128 -2.117,2.078 -2.117,2.114 0,0.034 0.449,0.503 0.998,1.041 0.549,0.538 1.085,1.085 1.19,1.215 l 0.191,0.238 0.225,-0.162 c 0.124,-0.089 0.321,-0.267 0.438,-0.396 z m 3.918,-8.207 c -0.083,-0.208 -0.083,-0.282 0.002,-0.282 0.037,0 0.068,0.065 0.068,0.146 0,0.081 0.036,0.181 0.081,0.223 0.063,0.06 0.062,0.077 -0.002,0.077 -0.045,0 -0.112,-0.074 -0.149,-0.164 z M 17.736,44.039 c 0.335,-0.106 0.898,-0.337 1.251,-0.513 1.72,-0.863 2.938,-2.031 3.792,-3.636 0.609,-1.147 0.723,-1.732 0.441,-2.285 -0.122,-0.239 -1.18,-1.609 -1.834,-2.373 -0.564,-0.661 -1.699,-2.043 -2.145,-2.614 -0.158,-0.203 -0.416,-0.511 -0.572,-0.685 -0.158,-0.173 -0.568,-0.659 -0.914,-1.082 -0.344,-0.421 -0.847,-1.031 -1.116,-1.354 -0.269,-0.324 -0.634,-0.771 -0.812,-0.994 -0.759,-0.954 -1.746,-2.071 -2.06,-2.33 -0.374,-0.308 -1.106,-0.613 -1.793,-0.746 -0.924,-0.178 -2.655,0.184 -3.557,0.746 -1.163,0.725 -2.137,1.67 -2.786,2.704 -0.91,1.451 -1.035,2.966 -0.363,4.377 0.428,0.897 0.742,1.222 5.947,6.171 2.25,2.138 4.302,4.113 4.56,4.389 l 0.471,0.502 0.441,-0.043 c 0.243,-0.023 0.715,-0.129 1.049,-0.234 z M 8.267,32.57 c 2.133,0.709 8.311,6.273 7.966,7.652 C 15.62,40.769 6.818,34.285 8.267,32.57 Z m 1.844,-1.725 c -1.273,-3.398 5.945,4.879 7.69,7.487 1.064,1.59 -6.422,-4.102 -7.69,-7.487 z m 9.032,6.516 c -0.738,-0.719 -2.365,-2.399 -4.077,-4.255 -0.315,-0.343 -0.756,-0.798 -0.98,-1.013 -0.749,-1.048 -2.996,-2.075 -1.846,-3.13 0.573,-0.524 2.725,1.765 3.432,2.59 0.166,0.194 0.409,0.468 0.541,0.61 0.131,0.142 0.534,0.588 0.895,0.988 0.36,0.401 1.176,1.302 1.813,2.004 0.639,0.701 0.993,2.909 0.222,2.206 z m 30.066,6.81 c 0.177,-0.046 0.357,-0.184 0.639,-0.493 0.76,-0.83 1.177,-1.235 6.077,-5.878 2.718,-2.577 4.997,-3.814 5.064,-4.859 0.022,-0.363 -0.145,-0.373 -0.222,-0.574 -0.575,-0.672 -6.775,-6.455 -7.074,-6.599 -0.665,-0.317 -1.247,-0.233 -1.977,0.288 -0.387,0.277 -0.69,0.613 -1.621,1.793 -0.398,0.504 -0.506,0.635 -1.64,1.993 -1.284,1.539 -2.144,2.583 -2.817,3.422 -0.179,0.223 -0.759,0.921 -1.29,1.549 -0.53,0.629 -1.093,1.312 -1.25,1.516 -0.158,0.204 -0.415,0.521 -0.572,0.702 -0.358,0.414 -0.446,0.719 -0.408,1.406 0.026,0.473 0.064,0.606 0.299,1.052 1.108,2.096 2.357,3.27 4.521,4.247 0.992,0.448 1.703,0.585 2.271,0.435 z M 49.16,40.235 c 2.088,-2.643 8.118,-8.023 8.312,-7.272 0.154,0.6 -6.205,8.591 -8.312,7.272 z m -1.74,-1.601 c -2.456,0.45 7.521,-8.663 8.018,-7.481 0.265,0.631 -5.191,6.962 -8.018,7.481 z m -1.697,-1.619 c -0.423,-0.344 -0.465,-0.492 -0.225,-0.784 0.245,-0.298 1.93,-2.185 2.384,-2.67 0.229,-0.245 0.617,-0.683 0.862,-0.973 0.444,-0.525 0.898,-1.022 1.608,-1.76 0.94,-0.996 1.46,-2.278 2.933,-1.802 0.817,0.382 -1.791,2.84 -1.857,2.879 -0.04,0.023 -0.196,0.19 -0.347,0.371 -0.254,0.304 -1.162,1.286 -2.659,2.879 -0.334,0.356 -0.852,0.912 -1.149,1.235 -0.768,0.932 -0.714,1.027 -1.55,0.625 z m -3.108,-9.557 0.048,-4.573 h 0.548 c 2.025,0 3.877,-0.431 5.346,-1.245 0.654,-0.362 1.801,-1.229 2.128,-1.611 0.111,-0.129 0.311,-0.362 0.444,-0.518 0.928,-1.078 1.653,-2.793 1.861,-4.402 0.093,-0.718 0.04,-2.245 -0.101,-2.905 C 52.359,9.724 50.641,7.75 47.824,6.385 46.386,5.689 44.628,5.216 43.036,5.097 42.11,5.027 40.983,5.054 40.48,5.157 40.249,5.204 40.224,5.188 39.433,4.485 38.987,4.09 38.439,3.661 38.216,3.533 37.163,2.927 36.885,2.789 36.254,2.556 34.996,2.091 34.041,1.917 32.741,1.916 31.939,1.916 30.77,2.019 30.139,2.145 28.81,2.412 27.013,3.326 26.07,4.143 l -0.491,0.209 c 0,0 -3.748,-0.345 -5.071,-0.038 -0.591,0.136 -1.648,0.468 -1.961,0.615 -0.148,0.068 -0.696,0.393 -1.216,0.72 -1.501,0.942 -2.469,1.913 -3.329,3.342 -0.564,0.936 -0.705,1.258 -0.97,2.199 -0.509,1.815 -0.375,4.405 0.326,6.243 0.223,0.585 0.776,1.623 1.122,2.106 0.655,0.915 1.184,1.423 2.033,1.953 1.173,0.731 1.85,1.014 2.947,1.226 0.63,0.121 1.35325,0.32475 2.05625,0.32475 0.443,-0.069 1.08575,-0.96075 0.09575,-1.23875 -1.362,-0.113 -2.677,-0.406 -3.426,-0.762 -0.599,-0.286 -1.519,-0.931 -1.96,-1.375 -0.493,-0.497 -1.141,-1.404 -1.469,-2.055 -0.43,-0.854 -0.771,-2.4 -0.771,-3.49 0,-1.249 0.344,-2.661 0.91,-3.73 0.57,-1.075 0.924,-1.544 1.757,-2.327 0.774,-0.728 1.469,-1.209 2.477,-1.715 1.758,-0.883 3.822,-1.111 6.008,-0.666 0.352,0.072 0.72,0.146 0.815,0.163 0.144,0.027 0.27,-0.052 0.728,-0.448 0.786,-0.681 1.848,-1.225 2.9,-1.488 6.926447,-1.7285684 9.090583,6.792663 8.652,7.22 -0.014,0.014 -0.081,-0.197 -0.148,-0.468 C 36.32745,3.4673328 27.638,5.942713 27.638,7.792 c 0,0.036 0.111,0.264 0.246,0.506 0.136,0.243 0.233,0.453 0.219,0.468 C 28.088,8.78 27.772,8.677 27.4,8.539 26.417,8.17 25.903,8.049 24.963,7.963 23.168,7.799 21.5,8.198 19.957,9.16 c -0.45,0.281 -1.544,1.294 -1.924,1.781 -0.977,1.253 -1.404,2.837 -1.215,4.5 0.148,1.284 0.775,2.55 1.745,3.517 0.842,0.84 4.17616,1.439145 4.162068,2.284027 L 22.636,26.582 l 0.078,5.691 c 1.36,0.539 1.637,-0.79 7.076,-1.234 1.23,-0.101 5.283,-0.042 6.5,0.094 1.833,0.205 4.16,0.631 5.406,0.988 1.858,0.466 0.907,-3.547 0.919,-4.663 z m -3.757,0.198 c -0.211,-0.082 -2.29,-0.334 -3.843,-0.467 -5.364,-0.458 -8.109,-0.206 -8.244,-0.369 -0.604,-0.729 -0.081,-1.084 0.094,-1.258 0.256,-0.256 3.619,-0.345 5.132,-0.344 1.264,0.001 2.808,0.024 3.431,0.049 2.462951,0.192106 2.220202,-3.031929 1.132,-3.21 l -1.369,0.001 c -1.422,0 -2.915,0.053 -6.395,0.227 -1.72,0.086 -2.037,0.058 -2.116,0.017 -0.511,-0.267 -0.013,-0.638 0.085,-0.695 0.086,-0.049 2.327,-0.537 4.117,-0.895 1.27,-0.254 4.683,-0.988 6.967,-1.498 0.691,-0.154 1.307,-0.274 1.37,-0.28 0.656,-0.063 0.620233,0.278951 0.112,3.814 -0.298559,2.076648 -0.02,4.077 -0.044,4.398 -0.043,0.362 -0.324,0.385 -0.429,0.51 z m 3.832,-6.584 c -0.078,-0.523 1.965,-0.17 4.127,-1.554 5.668689,-3.638507 1.254764,-11.4110307 -4.577,-9.709 -1.051,0.31 -2.225,0.954 -2.972,1.63 l -0.569,0.515 0.192,-0.318 c 0.347,-0.579 0.501,-0.758 1.269,-1.488 5.749374,-5.474603 13.208752,-0.2873091 10.895,6.405 -0.762,2.204 -4.058,4.2 -7.29,5.008 -0.825,0.206 -1.106,-0.351 -1.075,-0.489 z"
     id="path1277"
     sodipodi:nodetypes="ccccccsccscccccccccccccccccccccccccccscccccccccccccccccccccccccccccccccccccccccccccccsccccccscsscccccsscsccccccccccccccccccccccccccccccccccccccccccccccccccccccccccccccccccccccccscccccccccccccccccccccccccccccscccccccccsccccccccsccccccccccccccsccsccscccccccccscc" />
</svg>
