<?xml version="1.0" standalone="no"?>
<!DOCTYPE svg PUBLIC "-//W3C//DTD SVG 20010904//EN"
 "http://www.w3.org/TR/2001/REC-SVG-20010904/DTD/svg10.dtd">
<svg version="1.0" xmlns="http://www.w3.org/2000/svg"
 width="512.000000pt" height="512.000000pt" viewBox="0 0 512.000000 512.000000"
 preserveAspectRatio="xMidYMid meet">
<metadata>
Created by potrace 1.16, written by Peter Selinger 2001-2019
</metadata>
<g transform="translate(0.000000,512.000000) scale(0.100000,-0.100000)"
fill="#000000" stroke="none">
<path d="M2158 4847 c-35 -32 -44 -77 -23 -117 23 -45 67 -60 179 -60 149 0
242 -37 323 -128 l32 -36 -81 -38 c-140 -66 -254 -204 -287 -348 -6 -25 -11
-83 -11 -130 l0 -85 -903 -409 c-1288 -585 -1254 -569 -1304 -618 -26 -26 -51
-63 -63 -96 -20 -52 -20 -79 -20 -1177 0 -1098 0 -1125 20 -1177 23 -63 85
-128 150 -157 45 -20 55 -21 2390 -21 l2345 0 50 24 c28 12 69 44 92 69 78 84
74 6 71 1328 l-3 1174 -58 140 c-259 624 -615 1031 -1114 1272 -174 84 -355
144 -454 150 -72 5 -80 3 -172 -37 l-97 -43 -55 52 c-58 55 -174 117 -238 128
-33 5 -41 12 -70 67 -45 85 -145 183 -234 229 -94 49 -180 67 -324 67 -108 0
-118 -2 -141 -23z m572 -556 c0 -11 12 -33 26 -50 21 -25 33 -31 66 -31 52 0
77 14 94 56 l15 35 41 -23 c176 -99 217 -347 82 -497 -26 -29 -69 -62 -102
-78 -49 -24 -69 -28 -142 -28 -68 0 -94 5 -131 23 -68 34 -121 83 -154 143
-28 50 -30 62 -30 154 0 91 2 104 29 152 35 64 66 94 136 132 65 36 70 37 70
12z m852 -105 c120 -35 305 -116 412 -180 359 -214 625 -531 831 -991 l63
-140 -1094 -3 c-602 -1 -1588 -1 -2191 0 l-1097 3 929 422 c824 375 930 421
938 405 21 -38 135 -139 193 -169 261 -138 585 -34 714 231 58 118 69 206 43
353 -5 32 -3 34 58 63 77 36 93 37 201 6z m1338 -1639 l0 -124 -42 -13 c-24
-7 -77 -31 -118 -53 -69 -38 -81 -42 -150 -42 -69 0 -81 4 -150 42 -99 54
-167 73 -260 73 -93 0 -161 -19 -260 -73 -69 -38 -81 -42 -150 -42 -69 0 -81
4 -150 42 -99 54 -167 73 -260 73 -93 0 -161 -19 -260 -73 -69 -38 -81 -42
-150 -42 -69 0 -81 4 -150 42 -99 54 -167 73 -260 73 -93 0 -161 -19 -260 -73
-69 -38 -81 -42 -150 -42 -69 0 -81 4 -150 42 -99 54 -167 73 -260 73 -93 0
-161 -19 -260 -73 -69 -38 -81 -42 -150 -42 -69 0 -81 4 -150 42 -99 54 -167
73 -260 73 -93 0 -161 -19 -260 -73 -69 -38 -81 -42 -150 -42 -69 0 -81 4
-150 42 -41 22 -94 46 -117 53 l-43 13 0 124 0 123 2360 0 2360 0 0 -123z
m-3837 -366 c180 -92 310 -92 492 -1 89 45 107 50 165 50 58 0 76 -5 165 -50
182 -91 312 -91 492 1 86 44 102 49 162 49 59 0 76 -5 166 -50 182 -91 312
-91 492 1 86 44 102 49 162 49 59 0 76 -5 166 -50 182 -91 312 -91 492 1 86
44 102 49 162 49 59 0 76 -5 166 -50 175 -88 318 -90 472 -9 41 22 76 39 78
39 3 0 5 -74 5 -165 l0 -165 -2360 0 -2360 0 0 165 c0 91 2 165 5 165 2 0 37
-17 78 -39 154 -81 298 -79 471 9 90 45 105 50 166 50 61 0 77 -5 163 -49z
m3837 -856 l0 -355 -576 0 -576 0 -29 -29 c-40 -40 -40 -89 0 -133 l29 -33
576 -3 576 -3 0 -133 c0 -120 -2 -136 -21 -160 l-20 -26 -2319 0 -2319 0 -20
26 c-19 24 -21 40 -21 160 l0 134 1419 2 c1416 3 1420 3 1447 24 52 38 56 103
9 150 l-24 24 -1426 0 -1425 0 0 355 0 355 2360 0 2360 0 0 -355z"/>
<path d="M2185 3481 c-65 -27 -80 -108 -30 -162 47 -49 144 -115 236 -159 215
-102 453 -115 688 -38 166 55 331 171 331 233 0 58 -47 105 -105 105 -13 0
-54 -21 -92 -47 -148 -101 -263 -138 -433 -137 -198 1 -287 34 -502 192 -32
23 -59 27 -93 13z"/>
<path d="M1052 1565 c-38 -17 -63 -66 -55 -107 21 -112 193 -99 193 15 0 51
-15 76 -55 93 -41 17 -42 17 -83 -1z"/>
<path d="M3056 1565 c-41 -22 -55 -44 -56 -88 0 -55 43 -97 100 -97 101 0 133
128 46 181 -37 23 -52 23 -90 4z"/>
<path d="M3764 1471 c-65 -28 -84 -113 -35 -162 49 -49 125 -38 157 23 40 78
-42 172 -122 139z"/>
<path d="M544 1361 c-60 -37 -65 -128 -9 -165 65 -42 155 4 155 79 0 49 -15
74 -55 91 -44 18 -54 18 -91 -5z"/>
<path d="M1853 1365 c-38 -16 -53 -42 -53 -91 0 -84 104 -128 163 -69 34 34
40 67 23 110 -11 24 -26 40 -50 50 -42 18 -43 18 -83 0z"/>
<path d="M4364 1371 c-65 -28 -84 -113 -35 -162 60 -60 156 -27 168 57 4 35 1
46 -23 73 -31 33 -76 46 -110 32z"/>
<path d="M2560 1359 c-65 -26 -81 -110 -31 -160 54 -54 140 -32 162 40 14 47
-6 93 -51 116 -33 17 -45 18 -80 4z"/>
<path d="M3339 941 c-40 -40 -40 -89 0 -133 76 -85 209 9 157 110 -32 61 -108
72 -157 23z"/>
</g>
</svg>
