<?xml version="1.0" standalone="no"?>
<!DOCTYPE svg PUBLIC "-//W3C//DTD SVG 20010904//EN"
 "http://www.w3.org/TR/2001/REC-SVG-20010904/DTD/svg10.dtd">
<svg version="1.0" xmlns="http://www.w3.org/2000/svg"
 width="512.000000pt" height="512.000000pt" viewBox="0 0 512.000000 512.000000"
 preserveAspectRatio="xMidYMid meet">
<metadata>
Created by potrace 1.16, written by Peter Selinger 2001-2019
</metadata>
<g transform="translate(0.000000,512.000000) scale(0.100000,-0.100000)"
fill="#000000" stroke="none">
<path d="M1100 5010 c-30 -30 -53 -123 -48 -200 3 -57 11 -83 57 -172 52 -104
52 -105 37 -141 -8 -21 -26 -52 -40 -70 -31 -41 -34 -87 -6 -112 47 -43 104
-8 161 98 50 94 46 146 -19 271 -57 108 -63 146 -38 230 16 54 9 88 -23 105
-30 16 -59 13 -81 -9z"/>
<path d="M1778 5020 c-30 -18 -53 -99 -53 -191 0 -83 1 -88 54 -192 60 -119
60 -124 0 -207 -56 -77 -21 -149 61 -127 34 9 106 118 121 183 14 63 -1 118
-58 216 -43 74 -52 132 -29 206 10 36 12 60 6 77 -15 40 -64 56 -102 35z"/>
<path d="M2448 5019 c-23 -13 -58 -128 -58 -190 0 -60 28 -142 71 -212 45 -71
44 -109 -4 -175 -41 -57 -47 -100 -19 -125 22 -19 40 -23 74 -14 35 9 102 109
118 177 16 65 5 110 -55 224 -49 94 -54 125 -30 202 20 65 19 71 -10 99 -25
26 -58 31 -87 14z"/>
<path d="M1332 4017 c-21 -22 -22 -32 -22 -231 0 -206 0 -207 25 -231 l24 -25
484 0 c462 0 486 1 508 19 24 19 24 20 24 236 0 216 0 217 -24 236 -22 18 -46
19 -510 19 l-488 0 -21 -23z m908 -232 l0 -115 -395 0 -395 0 0 115 0 115 395
0 395 0 0 -115z"/>
<path d="M3831 3914 c-12 -15 -21 -35 -21 -45 0 -18 -11 -19 -171 -19 -201 0
-238 -8 -294 -66 -34 -35 -71 -113 -260 -547 l-219 -507 -155 0 -156 0 148
148 c124 124 147 152 147 177 0 26 -23 53 -147 177 -82 81 -155 147 -163 148
-8 2 -24 2 -35 1 -11 -1 -154 -135 -345 -326 l-325 -325 -618 0 -618 0 -24
-25 -25 -24 0 -346 c0 -289 -2 -345 -14 -345 -8 0 -47 14 -87 31 -220 92 -298
108 -337 66 l-22 -23 0 -965 0 -966 23 -21 23 -22 2425 0 2426 0 21 23 22 23
0 965 0 966 -25 23 c-21 20 -31 22 -79 17 -30 -3 -94 -22 -143 -42 -188 -78
-223 -88 -293 -82 -39 3 -127 25 -221 55 -85 28 -186 56 -224 63 -91 16 -206
6 -330 -26 -55 -15 -110 -29 -122 -32 l-23 -5 0 321 0 322 -25 24 c-22 23 -32
25 -120 25 -52 0 -95 4 -95 8 0 4 67 161 148 348 l148 339 92 3 c85 3 92 1 92
-16 0 -11 9 -31 21 -46 l20 -26 568 0 568 0 21 23 c21 23 22 30 22 278 0 254
0 256 -23 277 l-23 22 -566 0 -567 0 -20 -26z m1059 -274 l0 -160 -470 0 -470
0 0 160 0 160 470 0 470 0 0 -160z m-1080 0 l0 -70 -124 0 c-103 0 -127 -3
-145 -17 -11 -10 -97 -194 -194 -418 l-174 -400 -78 -3 c-60 -2 -76 0 -72 10
123 296 413 938 428 951 18 15 44 17 190 17 l169 0 0 -70z m-1205 -510 l80
-80 -160 -160 -160 -160 -165 0 -165 0 240 240 c132 132 242 240 245 240 3 0
41 -36 85 -80z m825 -655 l0 -115 -1370 0 -1370 0 0 115 0 115 1370 0 1370 0
0 -115z m-2400 -425 l0 -170 -170 0 -170 0 0 170 0 170 170 0 170 0 0 -170z
m480 0 l0 -170 -170 0 -170 0 0 170 0 170 170 0 170 0 0 -170z m480 0 l0 -170
-170 0 -170 0 0 170 0 170 170 0 170 0 0 -170z m480 0 l0 -170 -170 0 -170 0
0 170 0 170 170 0 170 0 0 -170z m480 0 l0 -170 -170 0 -170 0 0 170 0 170
170 0 170 0 0 -170z m480 0 l0 -170 -170 0 -170 0 0 170 0 170 170 0 170 0 0
-170z m630 -96 c36 -8 128 -36 205 -61 131 -44 147 -47 245 -47 111 -1 115 1
343 98 l37 16 0 -865 0 -865 -2330 0 -2330 0 0 865 0 865 23 -9 c12 -5 60 -26
107 -46 47 -20 108 -42 135 -49 l50 -13 5 -419 c5 -399 6 -421 26 -465 31 -66
78 -114 142 -146 l57 -28 1285 0 1285 0 46 21 c60 28 125 93 153 153 20 45 21
60 24 488 l3 442 34 11 c18 6 84 24 147 40 128 33 212 37 308 14z m-3030 -384
l0 -170 -170 0 -170 0 0 170 0 170 170 0 170 0 0 -170z m480 0 l0 -170 -170 0
-170 0 0 170 0 170 170 0 170 0 0 -170z m480 0 l0 -170 -170 0 -170 0 0 170 0
170 170 0 170 0 0 -170z m480 0 l0 -170 -170 0 -170 0 0 170 0 170 170 0 170
0 0 -170z m480 0 l0 -170 -170 0 -170 0 0 170 0 170 170 0 170 0 0 -170z m480
0 l0 -170 -170 0 -170 0 0 170 0 170 170 0 170 0 0 -170z m-2400 -481 l0 -171
-117 3 c-105 4 -122 7 -152 28 -53 38 -71 89 -71 209 l0 102 170 0 170 0 0
-171z m480 1 l0 -170 -170 0 -170 0 0 170 0 170 170 0 170 0 0 -170z m480 0
l0 -170 -170 0 -170 0 0 170 0 170 170 0 170 0 0 -170z m480 0 l0 -170 -170 0
-170 0 0 170 0 170 170 0 170 0 0 -170z m480 0 l0 -170 -170 0 -170 0 0 170 0
170 170 0 170 0 0 -170z m480 68 c0 -120 -18 -171 -71 -209 -30 -21 -47 -24
-151 -28 l-118 -3 0 171 0 171 170 0 170 0 0 -102z"/>
<path d="M3922 1757 c-42 -45 -20 -119 38 -132 59 -13 110 46 89 102 -21 56
-88 72 -127 30z"/>
<path d="M4422 1287 c-30 -32 -29 -81 3 -112 71 -72 174 37 105 110 -31 33
-79 33 -108 2z"/>
<path d="M3821 1164 c-27 -35 -26 -66 2 -100 17 -20 33 -27 57 -27 24 0 40 7
57 27 28 34 29 65 2 100 -29 37 -89 37 -118 0z"/>
<path d="M585 608 c-49 -28 -59 -78 -24 -122 41 -52 139 -18 139 48 0 53 -72
99 -115 74z"/>
<path d="M4411 584 c-43 -54 -10 -124 58 -124 70 0 104 68 60 124 -16 20 -29
26 -59 26 -30 0 -43 -6 -59 -26z"/>
<path d="M2130 567 c-38 -19 -55 -61 -40 -98 34 -80 150 -57 150 29 0 30 -28
72 -49 72 -5 0 -15 2 -23 5 -7 3 -24 -1 -38 -8z"/>
<path d="M2902 537 c-40 -43 -17 -125 36 -128 62 -4 96 23 96 77 0 68 -85 101
-132 51z"/>
<path d="M1381 533 c-11 -10 -24 -32 -27 -50 -5 -27 -1 -37 25 -64 27 -26 37
-30 64 -25 65 13 89 85 42 131 -29 30 -74 33 -104 8z"/>
<path d="M3685 445 c-27 -26 -32 -70 -12 -96 15 -20 51 -39 72 -39 26 0 75 55
75 85 0 36 -41 75 -80 75 -19 0 -40 -9 -55 -25z"/>
<path d="M677 3528 c-20 -18 -36 -63 -76 -216 -51 -190 -54 -219 -26 -242 13
-10 925 -260 951 -260 36 0 55 39 104 222 27 102 50 198 50 212 0 15 -9 34
-20 44 -17 14 -910 261 -947 262 -7 0 -23 -10 -36 -22z m461 -233 c196 -53
364 -98 373 -101 14 -4 13 -17 -13 -111 -16 -59 -31 -109 -32 -111 -4 -4 -746
194 -752 201 -3 3 7 47 21 98 32 115 33 119 40 119 4 0 167 -43 363 -95z"/>
</g>
</svg>
