<?xml version="1.0" standalone="no"?>
<!DOCTYPE svg PUBLIC "-//W3C//DTD SVG 20010904//EN"
 "http://www.w3.org/TR/2001/REC-SVG-20010904/DTD/svg10.dtd">
<svg version="1.0" xmlns="http://www.w3.org/2000/svg"
 width="512.000000pt" height="512.000000pt" viewBox="0 0 512.000000 512.000000"
 preserveAspectRatio="xMidYMid meet">
<metadata>
Created by potrace 1.16, written by Peter Selinger 2001-2019
</metadata>
<g transform="translate(0.000000,512.000000) scale(0.100000,-0.100000)"
fill="#000000" stroke="none">
<path d="M679 4618 c-39 -42 -94 -158 -108 -226 -32 -154 5 -294 119 -450 65
-89 82 -139 83 -237 1 -86 -15 -135 -74 -226 -36 -57 -37 -91 -3 -118 39 -31
71 -27 110 14 76 81 131 254 119 372 -12 115 -41 184 -124 298 -116 158 -119
316 -8 479 32 47 33 65 6 100 -30 39 -81 36 -120 -6z"/>
<path d="M4321 4624 c-27 -35 -26 -53 6 -100 110 -161 109 -314 -4 -471 -72
-101 -102 -161 -120 -247 -27 -127 2 -268 77 -385 56 -86 99 -103 145 -56 33
33 31 61 -8 120 -53 79 -72 139 -71 225 2 93 21 145 84 232 145 198 168 378
75 573 -46 95 -84 135 -129 135 -25 0 -40 -7 -55 -26z"/>
<path d="M2460 4485 c-185 -52 -306 -236 -280 -425 10 -69 30 -119 75 -180 67
-92 81 -159 46 -236 -31 -68 -79 -99 -203 -129 -643 -157 -1140 -554 -1423
-1137 -130 -268 -194 -526 -202 -820 l-6 -177 -28 -11 c-41 -18 -106 -92 -118
-136 -6 -22 -11 -64 -11 -96 l0 -56 -120 -4 -120 -3 -32 -33 c-31 -30 -33 -38
-36 -111 -9 -191 81 -345 248 -425 l65 -31 2245 0 2245 0 65 31 c162 78 250
222 250 410 0 57 -4 78 -23 105 -34 51 -59 59 -179 59 l-108 0 0 58 c0 31 -5
74 -11 96 -12 45 -77 119 -119 136 l-30 12 0 124 c0 251 -69 603 -125 640 -33
22 -74 14 -98 -18 l-21 -28 32 -127 c43 -170 62 -312 62 -460 l0 -123 -1940 0
-1940 0 0 120 c0 485 209 978 566 1334 159 158 305 263 509 366 741 375 1651
227 2240 -365 112 -112 215 -244 298 -384 73 -121 73 -121 117 -121 45 0 70
24 70 68 0 39 -90 194 -192 330 -85 114 -282 313 -388 394 -246 186 -519 314
-816 383 -125 29 -173 60 -205 129 -35 77 -22 144 47 237 51 70 75 139 76 219
1 87 -8 123 -45 193 -82 156 -270 238 -437 192z m207 -164 c79 -40 125 -118
125 -212 0 -65 -23 -118 -74 -166 -144 -139 -389 -35 -390 166 -2 180 181 293
339 212z m-17 -613 c0 -14 8 -52 18 -85 l18 -58 -126 0 -126 0 18 58 c10 33
18 71 18 85 l0 27 90 0 90 0 0 -27z m1989 -2494 c15 -20 21 -41 21 -80 l0 -54
-1510 0 -1511 0 -24 -25 c-14 -13 -25 -31 -25 -39 0 -28 22 -64 47 -75 17 -8
488 -11 1680 -11 l1656 0 -6 -59 c-6 -73 -46 -151 -98 -192 -80 -63 90 -59
-2309 -59 -2399 0 -2229 -4 -2309 59 -52 41 -92 119 -98 192 l-6 59 595 0
c587 0 596 0 622 21 33 26 35 73 4 106 l-21 23 -444 0 -443 0 0 54 c0 39 6 60
21 80 l20 26 2059 0 2059 0 20 -26z"/>
<path d="M1173 4390 c-17 -17 -42 -55 -56 -84 -75 -153 -60 -308 45 -457 63
-90 77 -126 77 -204 1 -61 -19 -118 -59 -175 -27 -38 -26 -81 3 -108 53 -50
110 -15 169 106 31 63 33 72 33 177 0 125 -13 164 -98 288 -90 130 -89 231 4
375 19 29 20 36 9 63 -24 57 -81 66 -127 19z"/>
<path d="M3842 4403 c-35 -30 -37 -64 -6 -108 58 -85 77 -174 53 -258 -5 -20
-31 -68 -56 -105 -85 -123 -98 -162 -98 -287 0 -104 2 -114 33 -177 18 -36 45
-80 61 -97 73 -78 173 12 111 99 -40 57 -60 114 -59 175 0 78 14 114 77 204
105 149 120 304 45 457 -50 102 -111 139 -161 97z"/>
<path d="M2405 3249 c-223 -18 -452 -85 -665 -195 -143 -74 -310 -192 -324
-229 -14 -35 4 -77 39 -94 34 -16 31 -18 201 98 60 41 151 94 203 118 94 45
266 106 331 118 30 5 26 1 -30 -31 -367 -208 -648 -528 -798 -909 -39 -99 -95
-305 -107 -397 l-6 -48 -155 0 c-105 0 -154 3 -154 11 0 6 9 55 20 109 42 208
149 451 275 625 69 96 78 127 47 166 -25 30 -74 30 -108 -2 -45 -42 -171 -240
-225 -353 -88 -187 -159 -445 -159 -577 0 -42 5 -55 34 -87 l34 -37 221 -3
c301 -4 296 -7 331 203 101 603 508 1084 1088 1286 108 37 132 60 132 124 0
53 -28 91 -78 105 -20 5 -39 9 -42 9 -3 -1 -50 -5 -105 -10z"/>
</g>
</svg>
