<?xml version="1.0" standalone="no"?>
<!DOCTYPE svg PUBLIC "-//W3C//DTD SVG 20010904//EN"
 "http://www.w3.org/TR/2001/REC-SVG-20010904/DTD/svg10.dtd">
<svg version="1.0" xmlns="http://www.w3.org/2000/svg"
 width="512.000000pt" height="512.000000pt" viewBox="0 0 512.000000 512.000000"
 preserveAspectRatio="xMidYMid meet">
<metadata>
Created by potrace 1.16, written by Peter Selinger 2001-2019
</metadata>
<g transform="translate(0.000000,512.000000) scale(0.100000,-0.100000)"
fill="#000000" stroke="none">
<path d="M2448 5110 c-213 -39 -401 -171 -502 -353 -36 -65 -76 -182 -76 -223
0 -17 -8 -27 -26 -34 -55 -21 -69 -14 -104 55 -67 132 -180 243 -314 308 -105
52 -184 70 -306 71 -126 0 -201 -18 -320 -76 -68 -33 -102 -58 -171 -127 -141
-143 -209 -304 -209 -500 0 -53 4 -110 9 -127 9 -32 9 -32 -64 -69 -219 -111
-365 -360 -365 -621 0 -172 72 -354 190 -476 l69 -72 -31 -35 c-257 -292 -200
-713 134 -997 34 -29 144 -99 243 -156 664 -376 1000 -617 1205 -865 98 -118
144 -205 159 -301 41 -262 216 -447 471 -498 188 -37 383 14 523 136 95 84
174 241 192 380 18 136 156 318 393 516 229 191 515 379 945 619 203 113 286
175 373 276 238 277 249 637 26 890 l-31 35 69 72 c118 123 190 304 190 477 0
260 -150 514 -366 621 l-71 36 8 36 c16 67 10 214 -11 296 -32 127 -91 228
-189 326 -95 95 -173 142 -301 181 -94 29 -251 32 -350 6 -205 -54 -386 -199
-467 -374 -26 -57 -43 -64 -97 -43 -19 7 -26 17 -26 35 0 47 -50 178 -95 251
-52 83 -168 197 -246 241 -94 54 -199 84 -313 88 -55 2 -122 0 -148 -5z m276
-220 c200 -69 336 -262 336 -475 0 -46 5 -60 29 -87 28 -32 29 -32 132 -34 57
0 124 -7 149 -13 111 -31 220 -113 283 -213 121 -192 108 -414 -35 -592 -52
-64 -59 -96 -33 -146 10 -19 30 -34 62 -45 182 -66 270 -134 326 -253 27 -58
32 -80 35 -168 5 -118 -11 -193 -64 -300 -35 -71 -72 -120 -245 -325 -498
-592 -705 -1036 -738 -1584 -5 -85 -16 -168 -24 -191 -36 -98 -118 -187 -215
-232 -50 -24 -69 -27 -162 -27 -93 0 -112 3 -162 27 -67 31 -147 103 -183 163
-34 59 -55 146 -55 231 0 188 -56 461 -136 664 -130 327 -320 617 -686 1048
-118 138 -160 203 -195 300 -35 92 -43 237 -18 328 36 135 140 245 276 293 35
13 77 28 92 33 15 6 34 23 42 39 25 48 19 82 -25 135 -87 105 -123 200 -123
324 0 134 54 267 146 358 109 107 233 155 388 150 80 -3 81 -3 110 30 24 27
29 41 29 87 0 241 164 442 405 495 61 14 193 4 259 -20z m-1509 -165 c142 -30
273 -124 337 -241 l27 -49 -82 -55 c-194 -131 -307 -348 -307 -591 0 -121 12
-183 56 -278 19 -41 34 -77 34 -80 0 -3 -26 -19 -58 -36 -87 -45 -201 -165
-245 -256 -55 -113 -70 -192 -64 -334 3 -101 9 -135 36 -215 49 -146 87 -206
234 -379 294 -344 465 -589 588 -846 51 -108 129 -310 129 -337 0 -6 -37 25
-82 68 -220 211 -543 432 -1043 714 -220 124 -247 142 -326 220 -134 132 -186
255 -177 417 8 136 60 221 216 354 36 31 42 41 42 75 0 52 -18 75 -85 113
-213 120 -304 393 -208 626 27 66 99 161 152 199 53 39 137 79 188 90 43 10
83 58 83 99 -1 18 -9 57 -20 87 -24 67 -26 191 -5 269 52 195 206 338 400 370
75 13 103 12 180 -4z m2948 -16 c159 -53 278 -183 322 -350 21 -78 19 -202 -5
-269 -11 -30 -19 -69 -20 -87 0 -46 39 -88 97 -103 126 -31 246 -129 306 -249
46 -91 61 -166 54 -266 -11 -160 -84 -291 -207 -371 -104 -68 -120 -86 -120
-135 0 -38 5 -47 47 -83 92 -79 143 -139 175 -204 32 -64 33 -72 33 -183 l0
-116 -44 -89 c-36 -73 -59 -104 -130 -174 -74 -73 -109 -98 -246 -174 -564
-315 -898 -543 -1137 -775 -38 -36 -68 -60 -68 -54 0 32 79 235 139 358 113
230 265 452 497 729 178 211 212 257 258 346 68 131 87 205 93 350 5 108 2
136 -16 205 -12 44 -38 109 -58 145 -44 80 -159 195 -233 234 -30 16 -57 31
-59 32 -2 2 10 34 27 71 46 101 62 174 62 289 0 245 -113 463 -307 594 l-81
54 15 31 c30 60 94 133 152 173 139 98 300 123 454 71z"/>
<path d="M2507 4479 c-46 -27 -47 -39 -47 -548 l0 -480 -206 174 c-197 167
-208 175 -249 175 -36 0 -48 -5 -69 -31 -34 -40 -35 -96 -3 -130 12 -13 136
-120 275 -238 l252 -214 0 -479 0 -479 -23 18 c-13 10 -166 140 -341 288 -175
149 -328 274 -339 278 -34 13 -84 -1 -107 -30 -32 -41 -27 -96 13 -137 17 -19
203 -180 412 -357 l380 -322 5 -709 5 -710 28 -24 c30 -26 83 -32 118 -14 49
27 49 19 49 762 l1 693 395 335 c218 184 405 346 415 359 25 32 25 91 -1 124
-23 29 -73 43 -107 30 -12 -4 -164 -129 -338 -277 -174 -148 -327 -278 -340
-288 l-25 -19 0 479 0 479 252 214 c139 118 263 225 275 238 56 59 8 161 -75
161 -37 0 -54 -13 -246 -175 l-206 -175 0 481 c0 513 -1 523 -49 549 -25 13
-81 12 -104 -1z"/>
</g>
</svg>
