<?xml version="1.0" standalone="no"?>
<!DOCTYPE svg PUBLIC "-//W3C//DTD SVG 20010904//EN"
 "http://www.w3.org/TR/2001/REC-SVG-20010904/DTD/svg10.dtd">
<svg version="1.0" xmlns="http://www.w3.org/2000/svg"
 width="512.000000pt" height="512.000000pt" viewBox="0 0 512.000000 512.000000"
 preserveAspectRatio="xMidYMid meet">
<metadata>
Created by potrace 1.16, written by Peter Selinger 2001-2019
</metadata>
<g transform="translate(0.000000,512.000000) scale(0.100000,-0.100000)"
fill="#000000" stroke="none">
<path d="M2464 5105 c-91 -20 -187 -63 -293 -133 -52 -34 -129 -76 -170 -94
l-76 -32 -215 -2 c-225 -2 -303 -12 -397 -54 -100 -44 -207 -163 -288 -322
-109 -210 -163 -265 -373 -373 -159 -81 -278 -188 -322 -288 -42 -94 -52 -172
-54 -397 l-2 -215 -32 -75 c-17 -41 -61 -120 -97 -175 -73 -112 -118 -218
-135 -318 -23 -127 23 -281 135 -452 36 -55 80 -134 97 -175 l32 -75 2 -215
c2 -225 12 -303 54 -397 44 -100 163 -207 322 -288 210 -109 265 -163 373
-373 75 -147 180 -268 273 -316 84 -43 178 -58 373 -57 102 1 210 -3 240 -9
69 -13 176 -64 271 -129 110 -74 221 -119 338 -136 106 -15 269 39 433 144 60
38 138 82 175 97 66 27 72 28 282 30 225 2 304 13 397 54 100 44 207 163 288
322 108 210 162 264 374 373 151 78 266 177 315 273 44 84 58 178 57 373 -1
102 3 210 9 240 13 70 63 173 133 278 64 95 110 205 127 304 23 127 -23 281
-135 452 -36 55 -80 134 -97 175 l-32 75 -2 215 c-3 292 -25 386 -119 496 -60
69 -142 130 -256 189 -211 108 -265 162 -374 373 -81 159 -188 278 -288 322
-94 42 -172 52 -397 54 l-215 2 -75 32 c-41 17 -120 61 -175 97 -108 70 -215
117 -309 134 -73 13 -95 13 -172 -4z m225 -188 c37 -13 110 -51 162 -85 209
-135 310 -163 584 -161 227 2 296 -15 371 -88 59 -58 86 -97 144 -207 116
-224 202 -310 427 -426 56 -29 127 -74 158 -99 118 -98 137 -156 136 -417 -2
-277 25 -372 161 -583 146 -226 146 -356 0 -582 -135 -209 -163 -310 -161
-584 2 -227 -15 -296 -88 -371 -58 -59 -97 -86 -208 -145 -225 -117 -310 -202
-425 -424 -57 -111 -85 -150 -144 -208 -76 -74 -144 -90 -376 -88 -270 2 -369
-25 -576 -159 -99 -64 -158 -91 -244 -110 -47 -10 -65 -9 -120 5 -77 20 -156
58 -241 115 -87 60 -217 119 -300 136 -49 10 -126 14 -252 13 -240 -1 -307 14
-383 88 -59 58 -87 97 -144 208 -117 224 -213 319 -444 435 -46 23 -109 63
-140 89 -118 97 -138 157 -137 411 2 281 -25 379 -161 589 -146 226 -146 356
0 582 136 210 163 308 161 589 -1 255 19 313 138 412 31 26 91 64 132 84 227
110 334 214 452 441 30 57 74 127 97 157 95 118 150 135 458 139 196 3 226 6
283 26 82 28 171 73 244 123 123 83 249 131 325 123 24 -3 74 -15 111 -28z"/>
<path d="M2180 4597 c-49 -25 -60 -88 -22 -130 35 -40 218 -98 352 -112 123
-13 397 53 448 108 31 33 35 67 13 103 -29 47 -60 50 -151 15 -43 -17 -120
-38 -169 -46 -83 -15 -99 -15 -182 0 -51 8 -125 29 -166 45 -84 34 -89 34
-123 17z"/>
<path d="M1806 4473 c-78 -90 -165 -173 -213 -203 -57 -37 -176 -76 -276 -91
-86 -13 -117 -36 -117 -86 0 -76 39 -97 152 -82 98 14 246 64 319 108 128 78
289 252 289 313 0 39 -48 88 -86 88 -21 0 -38 -12 -68 -47z"/>
<path d="M3185 4478 c-20 -24 -25 -38 -21 -60 13 -66 167 -227 285 -299 73
-44 221 -94 320 -108 108 -14 150 8 151 80 0 53 -30 76 -117 89 -97 13 -218
53 -276 90 -48 30 -139 117 -208 198 -30 35 -42 42 -71 42 -28 0 -42 -7 -63
-32z"/>
<path d="M975 3896 c-13 -13 -26 -41 -29 -62 -11 -78 -46 -208 -69 -258 -32
-69 -112 -163 -197 -231 -39 -31 -72 -66 -76 -80 -13 -52 28 -105 81 -105 64
0 237 158 316 289 67 111 131 357 109 416 -21 55 -94 72 -135 31z"/>
<path d="M4033 3896 c-25 -22 -28 -30 -26 -77 5 -118 59 -289 122 -386 81
-126 244 -273 303 -273 39 0 88 48 88 86 0 21 -12 38 -47 68 -106 92 -193 189
-223 249 -28 58 -63 182 -76 271 -11 78 -84 111 -141 62z"/>
<path d="M2492 3657 c-49 -15 -115 -78 -144 -139 -112 -229 8 -528 212 -528
63 0 114 25 164 81 72 79 103 197 86 321 -28 195 -170 313 -318 265z m90 -168
c49 -26 77 -177 48 -254 -14 -38 -49 -75 -70 -75 -21 0 -56 37 -70 75 -28 74
-3 217 43 250 26 18 23 18 49 4z"/>
<path d="M1763 3218 c-95 -16 -160 -71 -183 -154 -45 -160 124 -358 337 -395
222 -39 365 139 267 332 -72 142 -269 244 -421 217z m152 -192 c56 -26 108
-77 124 -119 46 -121 -201 -78 -274 48 -29 49 -30 58 -9 79 23 24 100 20 159
-8z"/>
<path d="M3175 3201 c-181 -65 -307 -245 -265 -378 38 -118 153 -179 293 -154
215 38 382 236 336 399 -16 58 -79 123 -135 140 -60 18 -170 14 -229 -7z m190
-167 c30 -30 -12 -107 -83 -153 -76 -49 -173 -61 -203 -25 -28 34 41 129 126
172 50 26 136 29 160 6z"/>
<path d="M554 2971 c-47 -29 -50 -60 -15 -151 17 -43 38 -120 46 -169 15 -83
15 -99 0 -182 -8 -51 -29 -126 -46 -167 -20 -51 -28 -85 -24 -103 15 -67 97
-86 144 -33 34 38 77 167 98 295 15 91 15 107 0 198 -9 55 -29 137 -44 182
-42 127 -94 170 -159 130z"/>
<path d="M4495 2981 c-11 -5 -27 -17 -36 -27 -39 -46 -90 -219 -104 -349 -8
-73 14 -212 52 -328 42 -126 95 -168 160 -128 44 27 49 63 19 136 -28 70 -51
159 -60 231 -8 68 17 209 55 302 36 90 32 124 -14 153 -35 21 -42 22 -72 10z"/>
<path d="M1900 2450 c-72 -15 -171 -70 -225 -124 -120 -120 -136 -266 -41
-361 138 -137 448 -50 551 155 48 96 41 186 -21 258 -54 64 -162 93 -264 72z
m117 -170 c7 0 17 -9 23 -19 23 -43 -39 -127 -125 -167 -59 -28 -136 -32 -159
-8 -21 21 -20 30 9 79 39 67 158 132 220 119 11 -2 25 -4 32 -4z"/>
<path d="M3077 2450 c-56 -14 -90 -35 -125 -74 -110 -126 -25 -338 175 -436
54 -27 83 -34 145 -38 105 -6 161 11 213 63 109 108 70 285 -87 400 -98 73
-229 107 -321 85z m113 -171 c64 -15 136 -64 165 -114 14 -23 25 -47 25 -53 0
-24 -33 -42 -78 -42 -136 0 -296 171 -198 210 28 11 33 11 86 -1z"/>
<path d="M2469 2110 c-192 -101 -222 -450 -52 -599 89 -79 197 -79 286 0 140
123 148 415 16 547 -71 72 -173 93 -250 52z m129 -172 c31 -34 43 -75 43 -145
0 -108 -51 -190 -102 -162 -50 26 -79 176 -49 254 14 38 49 75 70 75 9 0 26
-10 38 -22z"/>
<path d="M629 1931 c-44 -44 -39 -76 18 -125 90 -78 173 -165 203 -213 37 -58
77 -180 90 -277 8 -56 15 -76 36 -94 33 -29 76 -28 111 2 25 22 28 30 26 77
-5 118 -59 289 -122 386 -81 126 -244 273 -303 273 -19 0 -40 -10 -59 -29z"/>
<path d="M4380 1942 c-50 -24 -219 -197 -259 -265 -68 -116 -133 -363 -111
-422 19 -50 84 -70 127 -40 24 17 38 56 47 131 8 65 48 184 81 241 26 44 124
147 203 214 34 29 42 42 42 70 -1 38 -14 60 -47 77 -29 16 -41 15 -83 -6z"/>
<path d="M1254 1110 c-53 -21 -70 -91 -31 -134 17 -21 37 -28 93 -36 97 -13
219 -53 277 -90 48 -30 139 -117 208 -198 29 -34 42 -42 70 -42 68 0 104 61
73 126 -25 52 -176 203 -252 252 -120 77 -374 148 -438 122z"/>
<path d="M3760 1109 c-86 -13 -245 -68 -317 -110 -71 -42 -242 -210 -267 -262
-31 -66 4 -127 73 -127 28 0 41 8 70 42 67 79 170 177 214 203 63 36 175 72
265 85 87 11 122 37 122 90 0 35 -36 78 -70 84 -14 2 -54 0 -90 -5z"/>
<path d="M2440 755 c-41 -8 -113 -26 -159 -41 -129 -42 -172 -95 -132 -161 27
-44 63 -49 136 -19 70 28 159 51 231 60 68 8 209 -17 302 -55 51 -20 85 -28
103 -24 67 15 86 97 33 144 -36 33 -160 75 -279 96 -103 18 -135 18 -235 0z"/>
</g>
</svg>
