<?xml version="1.0" standalone="no"?>
<!DOCTYPE svg PUBLIC "-//W3C//DTD SVG 20010904//EN"
 "http://www.w3.org/TR/2001/REC-SVG-20010904/DTD/svg10.dtd">
<svg version="1.0" xmlns="http://www.w3.org/2000/svg"
 width="512.000000pt" height="512.000000pt" viewBox="0 0 512.000000 512.000000"
 preserveAspectRatio="xMidYMid meet">
<metadata>
Created by potrace 1.16, written by Peter Selinger 2001-2019
</metadata>
<g transform="translate(0.000000,512.000000) scale(0.100000,-0.100000)"
fill="#000000" stroke="none">
<path d="M2265 5108 c-30 -17 -44 -40 -45 -70 0 -66 -35 -111 -163 -210 -127
-100 -177 -185 -177 -304 0 -78 28 -156 75 -212 20 -23 76 -72 124 -111 101
-80 131 -116 138 -170 9 -68 -22 -119 -128 -203 -155 -123 -199 -186 -207
-298 -4 -59 -2 -67 19 -87 56 -51 133 -27 144 44 11 70 14 80 36 107 11 15 63
60 115 102 149 118 187 181 188 314 2 139 -36 196 -230 351 -77 61 -104 105
-104 166 0 57 38 107 141 188 136 106 185 179 196 290 5 50 4 56 -25 84 -32
32 -63 38 -97 19z"/>
<path d="M2846 5097 c-14 -14 -26 -42 -30 -69 -9 -59 -37 -101 -106 -156 -136
-109 -169 -142 -200 -205 -25 -52 -31 -76 -32 -134 -1 -137 45 -211 208 -339
100 -78 126 -117 126 -185 0 -66 -23 -98 -140 -193 -141 -113 -189 -186 -193
-291 -3 -57 8 -83 42 -101 25 -12 37 -13 65 -4 40 14 48 26 63 101 13 61 45
98 172 197 119 92 162 171 163 294 0 66 -5 85 -32 141 -33 66 -62 97 -191 200
-88 71 -111 106 -111 171 0 67 25 103 125 182 154 119 207 201 209 317 1 41
-3 52 -27 73 -36 31 -81 31 -111 1z"/>
<path d="M3445 5098 c-18 -16 -28 -38 -34 -74 -10 -67 -35 -100 -134 -177
-160 -125 -201 -191 -201 -322 -1 -134 45 -205 212 -335 87 -68 122 -118 122
-177 0 -73 -29 -110 -171 -221 -101 -79 -150 -153 -164 -252 -8 -58 6 -95 45
-115 53 -27 120 11 120 69 0 58 37 113 125 181 167 131 215 206 215 336 0 126
-45 200 -194 319 -52 41 -104 89 -116 107 -52 76 -27 164 70 241 184 146 229
207 238 323 4 62 3 69 -21 93 -33 33 -77 34 -112 4z"/>
<path d="M1470 3484 c-153 -50 -340 -138 -450 -209 -115 -75 -239 -204 -283
-295 -21 -41 -42 -99 -47 -129 -6 -31 -10 -265 -10 -557 l0 -503 -102 -77
c-139 -104 -166 -131 -194 -189 -48 -101 -21 -223 65 -297 28 -23 76 -48 137
-69 l94 -33 0 -131 c0 -154 17 -234 65 -320 235 -417 1111 -698 2100 -672 671
18 1227 155 1592 392 109 71 237 199 280 281 65 123 63 79 63 1156 0 686 -3
993 -11 1030 -22 102 -73 185 -178 288 -143 141 -329 244 -608 336 -131 43
-145 46 -174 34 -55 -23 -70 -98 -28 -136 11 -10 78 -37 151 -61 328 -108 572
-271 647 -433 35 -76 35 -155 -1 -233 l-27 -58 -78 54 c-187 130 -422 228
-719 301 -98 24 -113 31 -128 56 -27 46 -74 89 -130 117 -98 50 -239 30 -321
-46 -30 -27 -31 -27 -125 -20 -52 4 -185 8 -295 8 l-201 1 -37 50 c-197 264
-596 276 -824 26 -50 -54 -113 -166 -113 -199 0 -22 -10 -27 -135 -68 -141
-47 -295 -121 -415 -201 -52 -34 -101 -67 -108 -71 -22 -15 -66 97 -66 169 0
201 257 410 670 545 134 44 168 64 178 105 12 46 -38 105 -87 104 -7 -1 -73
-21 -147 -46z m715 -339 c161 -42 264 -171 273 -340 5 -93 -18 -167 -73 -239
-42 -56 -55 -80 -55 -105 0 -29 40 -70 76 -77 26 -5 38 0 69 28 53 46 100 123
131 214 22 67 25 91 22 176 l-3 98 146 0 c80 0 180 -3 221 -6 l76 -7 6 -54
c13 -107 75 -196 172 -244 66 -32 177 -34 246 -2 66 30 133 100 155 162 10 28
21 51 25 51 4 0 58 -13 121 -29 193 -50 394 -138 556 -244 l83 -54 -78 -53
c-255 -170 -642 -289 -1129 -347 -116 -13 -227 -17 -495 -17 -371 0 -509 10
-780 60 -233 43 -470 113 -643 192 -80 37 -228 126 -252 152 -15 16 -13 20 32
52 116 85 396 218 458 218 7 0 15 -18 19 -40 23 -143 137 -310 213 -310 31 0
72 39 79 75 5 26 -2 41 -40 92 -26 33 -53 78 -62 99 -86 206 30 440 246 498
72 19 113 19 185 1z m1228 -169 c55 -23 82 -61 82 -114 0 -117 -132 -174 -213
-92 -65 64 -43 168 43 206 38 17 49 17 88 0z m-2532 -593 c8 -9 46 -40 85 -69
274 -203 715 -347 1254 -410 189 -21 637 -30 840 -15 612 45 1123 195 1430
422 36 26 74 57 84 68 11 12 23 21 28 21 5 0 7 -344 6 -783 l-3 -782 -33 -67
c-94 -191 -405 -371 -826 -478 -335 -85 -593 -114 -1016 -114 -399 0 -654 26
-960 99 -247 59 -515 167 -662 266 -92 62 -190 164 -223 233 -25 52 -29 73
-33 173 -3 65 -1 113 5 113 5 0 162 -54 348 -121 385 -136 433 -146 551 -114
64 17 162 74 249 145 l40 32 5 -97 c4 -87 8 -99 29 -116 26 -21 78 -25 102 -6
36 28 39 51 39 332 l0 277 -29 29 c-38 37 -82 39 -116 4 -23 -22 -25 -32 -25
-117 l-1 -93 -138 -103 c-151 -111 -206 -137 -279 -130 -26 3 -274 85 -552
182 -529 186 -550 196 -550 252 0 40 17 61 83 110 l62 46 8 -41 c9 -43 45 -81
79 -81 27 0 74 26 82 45 3 9 6 217 6 461 0 248 4 444 9 444 5 0 15 -8 22 -17z"/>
<path d="M2040 2979 c-84 -25 -140 -100 -140 -189 0 -64 19 -109 60 -144 27
-22 40 -26 64 -22 62 13 90 70 62 125 -25 47 -20 59 24 71 66 18 90 86 48 134
-27 30 -69 39 -118 25z"/>
<path d="M2929 2531 c-17 -18 -29 -40 -29 -56 0 -38 50 -85 90 -85 82 0 112
118 39 155 -42 22 -67 18 -100 -14z"/>
<path d="M3351 2444 c-25 -32 -27 -71 -5 -102 53 -76 169 -21 149 70 -14 60
-106 81 -144 32z"/>
<path d="M2589 2361 c-40 -40 -36 -93 10 -128 47 -36 131 9 131 69 0 38 -48
88 -85 88 -16 0 -38 -12 -56 -29z"/>
<path d="M4299 1431 c-24 -19 -24 -21 -29 -277 l-5 -258 -50 -39 c-65 -50
-245 -138 -365 -178 -105 -35 -140 -62 -140 -110 0 -42 39 -79 84 -79 85 0
422 149 528 234 32 26 70 65 85 88 l28 42 0 274 0 274 -28 24 c-34 29 -76 31
-108 5z"/>
</g>
</svg>
