<?xml version="1.0" standalone="no"?>
<!DOCTYPE svg PUBLIC "-//W3C//DTD SVG 20010904//EN"
 "http://www.w3.org/TR/2001/REC-SVG-20010904/DTD/svg10.dtd">
<svg version="1.0" xmlns="http://www.w3.org/2000/svg"
 width="512.000000pt" height="512.000000pt" viewBox="0 0 512.000000 512.000000"
 preserveAspectRatio="xMidYMid meet">
<metadata>
Created by potrace 1.16, written by Peter Selinger 2001-2019
</metadata>
<g transform="translate(0.000000,512.000000) scale(0.100000,-0.100000)"
fill="#000000" stroke="none">
<path d="M1965 5105 c-55 -19 -142 -114 -183 -198 -57 -117 -76 -219 -76 -406
l-1 -163 -39 -45 c-112 -129 -163 -242 -153 -341 l6 -54 -30 40 c-60 82 -188
154 -333 188 -78 19 -79 20 -131 84 -76 95 -175 184 -242 216 -52 26 -68 29
-153 29 -80 0 -103 -4 -144 -24 -67 -34 -154 -117 -196 -189 -21 -37 -47 -66
-67 -78 -80 -42 -167 -170 -198 -291 -28 -107 -14 -227 39 -330 l23 -47 -28
-60 c-97 -209 -71 -426 71 -577 l50 -54 -15 -61 c-8 -33 -15 -84 -15 -112 l0
-52 -50 0 c-41 0 -56 -5 -77 -26 l-26 -26 7 -126 c24 -438 138 -904 306 -1256
206 -431 612 -890 976 -1104 l70 -42 1206 0 1205 0 89 56 c178 111 321 233
492 419 99 106 259 316 332 435 232 373 384 869 429 1395 17 190 15 222 -14
250 -22 23 -32 25 -109 25 l-84 0 45 68 c59 87 127 230 148 311 72 282 -27
542 -259 676 -15 8 -16 15 -6 39 36 96 32 251 -10 341 -13 28 -20 71 -23 145
-5 129 -29 197 -94 270 -83 92 -183 129 -316 115 -72 -7 -220 -45 -264 -69
-22 -11 -34 -10 -91 11 -35 13 -107 31 -159 40 -171 29 -293 -10 -423 -135
l-65 -63 -60 17 c-126 36 -256 19 -358 -46 -72 -45 -74 -111 -5 -149 25 -15
31 -13 99 19 87 43 160 46 254 10 33 -12 77 -25 97 -27 32 -4 41 -1 60 22 69
84 134 145 181 171 46 25 62 29 132 28 65 -1 101 -8 189 -38 65 -23 120 -36
135 -33 14 3 73 22 131 43 86 31 119 37 185 38 97 1 140 -21 183 -92 25 -44
27 -55 28 -167 0 -107 3 -124 21 -150 44 -61 51 -144 21 -247 l-11 -38 -61 0
c-76 0 -176 -21 -254 -53 l-60 -24 -12 41 c-63 209 -237 344 -451 349 -69 2
-81 -1 -101 -20 -27 -27 -29 -84 -5 -111 13 -14 37 -21 90 -26 39 -3 93 -13
119 -22 99 -32 192 -152 204 -262 5 -46 4 -48 -39 -79 -51 -38 -57 -40 -57
-15 0 34 -51 121 -96 162 -154 142 -395 111 -593 -76 -43 -40 -90 -91 -105
-113 -25 -35 -30 -38 -47 -28 -26 16 -25 23 20 81 59 79 158 172 243 229 82
55 105 89 88 131 -11 29 -47 56 -75 56 -34 0 -169 -95 -264 -186 l-88 -84 -6
74 c-8 86 -43 206 -81 271 -28 48 -59 68 -137 91 -28 8 -57 25 -68 41 -19 24
-20 34 -15 137 5 88 3 123 -10 168 -29 102 -132 188 -276 232 -143 44 -133 36
-207 167 -83 146 -144 224 -203 261 -57 34 -104 42 -155 23z m112 -199 c21
-24 69 -98 108 -166 91 -160 113 -179 262 -227 103 -33 124 -44 166 -84 l47
-46 -2 -144 c-3 -138 -2 -146 22 -189 32 -56 96 -105 165 -125 52 -16 55 -18
75 -71 31 -83 39 -131 40 -218 0 -71 -2 -77 -17 -71 -45 19 -181 56 -230 61
-29 4 -56 11 -59 16 -3 5 10 47 30 93 42 97 43 113 15 149 -24 31 -81 36 -110
10 -10 -9 -39 -66 -65 -128 -25 -61 -51 -116 -58 -123 -6 -6 -33 -13 -60 -15
l-49 -3 -25 77 -25 76 106 232 c59 128 107 240 107 249 0 49 -64 90 -112 70
-28 -12 -31 -15 -124 -216 -24 -51 -45 -93 -47 -93 -3 0 -15 39 -26 88 l-22
87 45 118 c26 65 46 129 46 143 0 60 -87 97 -130 54 -11 -11 -22 -20 -24 -20
-2 0 -12 53 -21 118 -11 72 -24 124 -34 136 -38 43 -95 40 -127 -9 -19 -30
-13 -90 37 -338 16 -81 29 -149 29 -152 0 -3 -14 -5 -30 -5 -60 0 -102 -77
-67 -122 6 -9 46 -43 87 -75 l75 -59 49 -158 c27 -86 47 -159 44 -161 -2 -2
-49 23 -103 55 -57 34 -112 60 -127 60 -33 0 -65 -29 -74 -66 -10 -38 19 -70
124 -134 l92 -57 -77 -50 -77 -50 -32 46 c-17 26 -35 62 -39 81 -4 19 -32 82
-63 140 -131 245 -140 278 -99 362 15 29 50 82 80 118 92 110 92 111 93 305 1
177 13 262 53 349 28 63 79 126 100 126 11 0 37 -20 58 -44z m-1354 -627 c52
-27 149 -124 207 -208 48 -68 47 -68 171 -95 216 -48 306 -141 328 -342 9 -77
14 -92 36 -111 14 -13 39 -23 55 -23 16 0 59 -10 95 -22 77 -25 143 -78 170
-137 17 -40 17 -42 0 -61 -18 -20 -18 -19 -65 24 -92 86 -226 136 -365 136
-193 0 -369 -96 -471 -256 -86 -135 -109 -320 -58 -472 14 -42 32 -87 40 -99
8 -12 14 -25 14 -28 0 -3 -129 -5 -286 -5 l-287 0 6 71 c15 181 151 329 329
361 93 16 126 58 97 122 -20 42 -57 51 -144 31 -107 -23 -200 -73 -274 -146
-60 -60 -62 -61 -81 -44 -11 10 -32 43 -48 74 -23 49 -27 68 -27 146 0 81 4
97 34 163 19 39 40 77 47 83 7 5 15 27 19 48 11 67 59 136 111 162 57 27 144
30 190 6 35 -18 84 -71 84 -91 0 -15 37 -50 61 -59 9 -3 45 3 79 14 94 29 170
25 251 -12 61 -28 69 -30 95 -17 16 7 35 26 43 42 23 48 -3 87 -85 127 -58 29
-80 34 -158 37 -50 2 -107 0 -126 -5 -34 -9 -37 -7 -87 43 -69 70 -139 97
-248 97 -101 -1 -176 -28 -243 -88 -27 -25 -52 -42 -56 -38 -12 12 -6 92 12
151 28 89 72 146 136 176 50 24 58 32 86 92 35 72 94 138 143 159 48 21 121
18 170 -6z m907 -631 c0 -3 -9 -4 -20 -1 -11 3 -20 11 -20 18 0 7 -2 28 -5 46
-6 34 -6 34 19 -11 14 -25 25 -48 26 -52z m2170 -110 c63 -33 90 -88 90 -184
l0 -74 -80 -107 c-43 -59 -114 -167 -157 -240 -43 -72 -80 -132 -83 -132 -3
-1 -15 38 -28 86 -28 109 -94 247 -161 335 l-51 67 46 60 c92 123 232 210 339
211 23 0 60 -10 85 -22z m900 -24 c29 -9 69 -26 89 -39 101 -63 171 -203 171
-338 -1 -148 -100 -367 -231 -510 l-44 -48 -225 3 -226 3 136 130 135 131 168
58 c114 40 172 65 182 79 23 33 18 75 -11 104 -21 21 -32 25 -65 20 -21 -3
-39 -3 -39 -1 0 2 20 29 44 58 24 30 47 64 51 76 16 52 -43 110 -98 96 -14 -3
-53 -41 -91 -88 -77 -95 -269 -308 -273 -304 -2 1 4 67 12 145 8 79 15 158 15
175 0 46 -31 76 -80 76 -68 0 -73 -15 -99 -281 -31 -322 -20 -289 -114 -370
-45 -39 -83 -66 -85 -61 -2 6 4 50 12 99 21 117 20 149 -4 173 -21 21 -69 26
-99 10 -26 -13 -37 -48 -62 -197 l-22 -133 -105 0 -104 0 58 108 c122 230 279
454 407 585 199 201 424 292 597 241z m-1905 -69 c353 -103 598 -408 622 -772
l6 -93 -40 0 -40 0 -6 88 c-9 117 -29 189 -82 298 -57 117 -91 154 -139 154
-77 0 -99 -71 -45 -150 64 -95 109 -234 109 -339 l0 -51 -40 0 -40 0 0 48 c-1
166 -94 339 -237 435 -251 169 -589 104 -752 -146 -51 -77 -55 -125 -15 -156
50 -39 94 -22 137 52 35 59 107 124 175 155 49 23 70 27 152 27 87 0 101 -3
161 -32 125 -62 205 -178 216 -313 l6 -70 -502 0 -501 0 0 53 c0 143 74 312
185 423 183 182 448 232 687 130 21 -9 51 -16 67 -16 54 0 91 78 58 121 -18
24 -86 56 -174 81 -110 32 -294 32 -406 0 -175 -50 -344 -168 -433 -302 l-27
-41 -18 47 -18 48 46 54 c128 150 315 255 520 292 89 16 269 4 368 -25z
m-1273 -202 c137 -65 220 -189 226 -340 6 -116 -25 -203 -101 -290 l-29 -33
-263 0 -263 0 -37 43 c-21 23 -49 67 -64 97 -23 49 -26 67 -26 165 0 99 3 115
27 165 51 104 127 173 231 211 40 15 73 19 142 17 77 -3 100 -8 157 -35z
m3432 -875 c-48 -497 -149 -881 -320 -1214 -185 -362 -506 -727 -824 -938
l-84 -56 -1166 0 -1166 0 -84 56 c-148 98 -303 234 -428 374 -438 490 -641
994 -716 1778 l-5 52 2399 0 2399 0 -5 -52z"/>
<path d="M4612 2013 c-21 -8 -44 -63 -45 -110 -2 -36 3 -48 22 -64 13 -10 38
-19 55 -19 48 0 76 35 83 102 5 51 4 56 -22 76 -26 21 -64 27 -93 15z"/>
<path d="M4524 1656 c-26 -11 -35 -26 -59 -92 -92 -259 -265 -540 -472 -767
-45 -49 -53 -64 -53 -97 0 -30 6 -43 26 -59 44 -35 72 -27 134 37 207 214 417
550 509 815 37 106 37 109 9 141 -30 32 -56 38 -94 22z"/>
</g>
</svg>
