<?xml version="1.0" standalone="no"?>
<!DOCTYPE svg PUBLIC "-//W3C//DTD SVG 20010904//EN"
 "http://www.w3.org/TR/2001/REC-SVG-20010904/DTD/svg10.dtd">
<svg version="1.0" xmlns="http://www.w3.org/2000/svg"
 width="512.000000pt" height="512.000000pt" viewBox="0 0 512.000000 512.000000"
 preserveAspectRatio="xMidYMid meet">
<metadata>
Created by potrace 1.16, written by Peter Selinger 2001-2019
</metadata>
<g transform="translate(0.000000,512.000000) scale(0.100000,-0.100000)"
fill="#000000" stroke="none">
<path d="M4260 4126 c-143 -31 -260 -95 -365 -201 -85 -85 -130 -160 -170
-278 l-30 -90 -135 -53 c-164 -64 -282 -99 -384 -113 -206 -29 -534 -22 -751
15 -312 53 -571 152 -897 343 -343 201 -543 273 -797 288 -170 9 -396 -29
-519 -89 -150 -72 -256 -302 -193 -415 27 -46 21 -43 234 -155 204 -107 237
-129 310 -208 76 -82 135 -206 186 -390 77 -282 152 -456 273 -632 107 -157
296 -334 453 -423 28 -16 52 -30 54 -32 2 -1 -14 -22 -36 -46 -50 -54 -90
-135 -104 -211 -6 -33 -9 -128 -7 -212 3 -166 8 -181 72 -228 27 -21 36 -21
958 -24 925 -2 931 -2 974 18 72 35 84 74 84 266 -1 219 -19 286 -106 383
l-44 49 67 45 c313 209 517 535 594 950 28 151 36 414 19 618 -11 127 -11 170
-1 214 55 244 318 384 553 295 107 -41 212 -151 244 -257 21 -70 28 -191 15
-254 -36 -172 -162 -256 -413 -277 -71 -6 -115 -15 -133 -26 -93 -61 -84 -208
15 -258 85 -43 337 -6 499 73 227 112 355 348 337 624 -13 215 -71 350 -206
486 -95 96 -178 148 -298 186 -96 31 -256 39 -352 19z m-3365 -415 c143 -36
255 -87 490 -226 293 -173 534 -273 819 -340 373 -88 863 -98 1161 -23 44 11
135 40 202 64 67 24 127 44 134 44 20 0 5 -404 -20 -520 -82 -381 -269 -638
-578 -794 -312 -157 -849 -176 -1238 -44 -305 103 -549 319 -695 615 -50 103
-85 201 -145 418 -100 360 -249 542 -586 715 -54 28 -99 53 -99 55 0 7 103 37
173 51 95 18 277 11 382 -15z m2211 -2246 c43 -18 64 -63 64 -140 l0 -55 -745
0 -745 0 0 56 c0 71 24 122 64 140 48 21 1312 20 1362 -1z"/>
</g>
</svg>
