<?xml version="1.0" standalone="no"?>
<!DOCTYPE svg PUBLIC "-//W3C//DTD SVG 20010904//EN"
 "http://www.w3.org/TR/2001/REC-SVG-20010904/DTD/svg10.dtd">
<svg version="1.0" xmlns="http://www.w3.org/2000/svg"
 width="512.000000pt" height="512.000000pt" viewBox="0 0 512.000000 512.000000"
 preserveAspectRatio="xMidYMid meet">
<metadata>
Created by potrace 1.16, written by Peter Selinger 2001-2019
</metadata>
<g transform="translate(0.000000,512.000000) scale(0.100000,-0.100000)"
fill="#000000" stroke="none">
<path d="M3058 4950 c-267 -93 -505 -178 -528 -190 -101 -51 -175 -163 -191
-288 -4 -37 -8 -210 -9 -384 l0 -318 -447 0 c-373 -1 -451 -3 -467 -15 -12 -9
-47 -95 -91 -222 l-72 -208 -84 -6 c-96 -7 -131 -21 -182 -78 -82 -90 -76
-216 13 -303 54 -52 96 -68 183 -68 37 0 57 -4 57 -12 0 -20 290 -2751 296
-2786 2 -17 15 -41 26 -52 21 -20 36 -20 998 -20 962 0 977 0 998 20 11 11 24
35 26 52 6 35 296 2767 296 2786 0 8 21 12 56 12 85 0 133 18 184 70 88 88 94
206 14 298 -50 59 -85 74 -183 81 l-84 6 -72 208 c-44 127 -79 213 -91 222
-16 12 -94 14 -467 15 l-447 0 2 306 3 307 435 148 c239 82 446 155 460 162
13 7 31 25 40 40 14 25 12 35 -39 184 -55 164 -80 204 -124 202 -12 0 -241
-76 -509 -169z m490 -78 l21 -63 -22 -8 c-12 -5 -213 -75 -447 -155 -256 -88
-433 -155 -445 -167 -19 -19 -20 -35 -23 -364 l-3 -345 -69 0 -70 0 0 360 c0
336 1 363 19 398 44 85 61 94 437 223 192 67 399 138 459 159 61 21 113 35
116 31 4 -3 16 -34 27 -69z m110 -1402 l50 -150 -1052 0 c-1050 0 -1053 0
-1080 -21 -36 -28 -36 -80 0 -108 27 -21 28 -21 1221 -21 l1194 0 24 -25 c14
-13 25 -36 25 -50 0 -14 -11 -37 -25 -50 l-24 -25 -1431 0 -1431 0 -24 25
c-14 13 -25 36 -25 50 0 14 11 37 25 50 22 23 31 25 125 25 91 0 103 2 123 23
13 13 49 101 91 225 l69 202 1047 0 1048 0 50 -150z m69 -647 c-4 -27 -67
-628 -142 -1338 -75 -710 -138 -1300 -141 -1312 l-4 -23 -880 0 -880 0 -4 23
c-3 12 -66 602 -141 1312 -75 710 -138 1311 -142 1338 l-6 47 1173 0 1173 0
-6 -47z"/>
</g>
</svg>
