<?xml version="1.0" standalone="no"?>
<!DOCTYPE svg PUBLIC "-//W3C//DTD SVG 20010904//EN"
 "http://www.w3.org/TR/2001/REC-SVG-20010904/DTD/svg10.dtd">
<svg version="1.0" xmlns="http://www.w3.org/2000/svg"
 width="512.000000pt" height="512.000000pt" viewBox="0 0 512.000000 512.000000"
 preserveAspectRatio="xMidYMid meet">
<metadata>
Created by potrace 1.16, written by Peter Selinger 2001-2019
</metadata>
<g transform="translate(0.000000,512.000000) scale(0.100000,-0.100000)"
fill="#000000" stroke="none">
<path d="M1830 5000 c-26 -26 -25 -29 7 -119 23 -62 28 -93 28 -171 l0 -95
-72 -150 c-84 -177 -100 -241 -83 -348 11 -74 49 -175 94 -252 29 -48 61 -64
94 -46 39 21 37 48 -12 150 -55 115 -73 198 -57 270 6 28 38 105 71 171 69
138 90 207 90 301 0 73 -28 197 -59 257 -29 56 -65 68 -101 32z"/>
<path d="M4270 4961 c-83 -26 -70 -12 -730 -750 l-495 -553 -80 6 c-898 68
-1825 -98 -2271 -406 -84 -57 -190 -164 -226 -228 -58 -100 -60 -123 -55 -568
5 -424 7 -448 56 -639 102 -396 366 -778 717 -1035 106 -78 113 -85 114 -118
1 -90 50 -199 118 -266 81 -81 414 -208 672 -258 309 -59 572 -61 885 -6 261
46 590 167 693 255 57 50 112 162 119 246 4 40 11 67 20 73 64 37 237 180 323
266 251 251 411 527 495 855 49 192 57 298 53 720 l-3 370 -31 65 c-17 36 -52
91 -77 122 -129 157 -431 317 -779 412 l-119 32 418 374 c640 573 617 547 618
700 0 77 -3 92 -33 152 -61 124 -166 189 -305 187 -40 0 -83 -4 -97 -8z m209
-135 c60 -32 111 -119 111 -191 0 -56 -24 -107 -69 -151 -25 -24 -361 -327
-746 -673 -585 -526 -702 -626 -710 -612 -15 25 -108 117 -129 128 -17 9 54
92 639 744 362 404 671 743 688 753 56 36 148 37 216 2z m-1686 -1273 c76 -3
137 -10 137 -14 0 -4 -30 -42 -67 -83 l-68 -76 -66 0 c-148 0 -287 -47 -436
-147 l-98 -66 -100 -8 c-347 -29 -695 -98 -963 -190 -204 -71 -416 -182 -519
-272 l-32 -28 -22 42 c-107 212 98 449 536 618 432 167 1089 254 1698 224z
m1119 -194 c318 -108 547 -261 619 -413 41 -87 38 -181 -9 -254 l-14 -22 -34
29 c-205 181 -658 348 -1124 417 -63 9 -121 18 -129 21 -17 5 -36 -14 176 176
l163 145 130 -33 c71 -19 171 -48 222 -66z m-1056 -127 c99 -51 151 -161 137
-293 l-5 -54 -439 0 c-242 0 -439 2 -439 5 0 11 109 130 160 175 98 87 216
152 329 180 80 21 205 14 257 -13z m-786 -196 c0 -2 -14 -21 -31 -42 -48 -60
-99 -153 -99 -179 0 -52 -13 -50 572 -50 406 1 550 4 560 13 18 14 36 95 42
182 5 75 -15 70 171 44 368 -52 711 -155 943 -283 79 -43 157 -98 185 -129 18
-19 16 -21 -50 -71 -264 -198 -753 -344 -1348 -403 -197 -20 -790 -16 -985 5
-328 36 -621 97 -855 177 -157 53 -363 156 -447 222 -78 62 -78 60 37 138 257
174 676 303 1185 364 63 8 116 14 118 15 1 1 2 -1 2 -3z m-1445 -585 c621
-499 2274 -629 3340 -261 223 77 392 168 530 285 l68 58 -6 -239 c-6 -267 -19
-353 -81 -538 -65 -193 -137 -330 -263 -497 -183 -244 -413 -429 -708 -574
-315 -154 -603 -219 -965 -219 -351 1 -649 69 -955 218 -208 102 -345 198
-509 356 -270 261 -439 558 -512 903 -22 106 -26 154 -30 362 -4 171 -2 235 6
223 5 -9 44 -44 85 -77z m897 -1872 c213 -107 472 -184 738 -220 123 -17 448
-16 570 0 279 38 508 106 734 218 49 24 91 42 93 39 10 -10 -18 -73 -48 -109
-48 -58 -257 -150 -473 -207 -496 -132 -1007 -96 -1476 103 -127 54 -170 85
-203 145 -26 47 -33 72 -22 72 3 0 42 -18 87 -41z"/>
<path d="M1555 2791 c-141 -35 -208 -182 -143 -310 35 -68 93 -104 172 -109
56 -4 71 -1 115 23 28 16 62 45 78 68 25 36 28 49 28 118 0 70 -3 81 -30 121
-50 70 -144 108 -220 89z m80 -125 c93 -39 65 -176 -37 -176 -52 0 -88 35 -88
85 0 48 15 74 53 90 40 18 32 17 72 1z"/>
<path d="M3491 2778 c-23 -13 -57 -43 -75 -67 -28 -39 -31 -49 -31 -121 0 -71
3 -82 30 -121 76 -109 245 -123 331 -27 63 69 75 175 29 253 -39 67 -93 99
-174 103 -54 3 -74 -1 -110 -20z m158 -115 c31 -26 42 -73 26 -111 -16 -37
-42 -52 -90 -52 -51 0 -85 36 -85 90 0 56 34 90 88 90 23 0 49 -7 61 -17z"/>
<path d="M3158 2703 c-8 -10 -20 -36 -26 -58 -5 -22 -16 -54 -23 -71 -28 -70
54 -116 100 -58 21 27 51 112 51 146 0 25 -36 58 -63 58 -13 0 -31 -8 -39 -17z"/>
<path d="M3982 2694 c-17 -12 -22 -24 -20 -47 3 -32 42 -66 116 -102 30 -15
35 -15 57 -1 29 19 39 49 26 75 -12 21 -120 91 -143 91 -7 0 -24 -7 -36 -16z"/>
<path d="M1067 2659 c-76 -46 -97 -75 -79 -114 20 -43 54 -42 132 5 67 40 90
64 90 90 0 15 -46 60 -62 60 -7 0 -44 -19 -81 -41z"/>
<path d="M2455 2596 c-87 -60 -104 -83 -105 -139 0 -54 36 -86 194 -176 158
-91 174 -93 272 -28 87 57 111 83 119 127 11 66 -15 94 -176 186 -182 106
-192 107 -304 30z m242 -133 l115 -66 -23 -18 c-13 -10 -38 -26 -55 -35 l-30
-16 -112 63 c-61 35 -112 67 -112 70 0 6 90 69 99 69 2 0 55 -30 118 -67z"/>
<path d="M1989 2476 c-17 -8 -25 -21 -27 -47 -3 -31 3 -41 57 -92 64 -61 75
-65 109 -41 40 28 30 72 -30 130 -62 60 -77 66 -109 50z"/>
<path d="M787 1922 c-23 -25 -21 -56 7 -138 52 -153 99 -234 136 -234 27 0 60
30 60 54 0 13 -15 56 -34 97 -18 41 -43 104 -56 142 -12 37 -28 74 -37 82 -20
20 -56 19 -76 -3z"/>
<path d="M1057 1402 c-10 -10 -17 -28 -17 -40 0 -61 284 -328 446 -418 50 -27
52 -28 78 -11 18 12 26 26 26 45 0 36 -5 42 -80 92 -107 71 -204 155 -297 255
-94 101 -122 115 -156 77z"/>
<path d="M2514 4804 c-16 -24 -16 -29 7 -92 39 -111 34 -166 -34 -308 -63
-134 -74 -184 -58 -269 12 -62 60 -177 88 -207 32 -36 103 -13 103 32 0 10
-17 53 -37 96 -55 116 -53 160 14 300 64 131 79 201 64 290 -14 77 -36 142
-58 166 -24 27 -69 23 -89 -8z"/>
<path d="M1160 4800 c-25 -25 -25 -37 0 -99 29 -74 41 -164 30 -224 -6 -29
-34 -101 -64 -162 -29 -60 -59 -128 -67 -150 -18 -56 -16 -169 6 -235 21 -66
70 -168 92 -192 31 -35 103 -13 103 30 0 10 -17 52 -39 94 -54 108 -67 180
-46 260 8 34 33 94 55 134 99 178 109 312 38 492 -28 73 -68 92 -108 52z"/>
</g>
</svg>
