<svg xmlns="http://www.w3.org/2000/svg" viewBox="0 0 64 64"><path d="M30.205 62.97c-3.022-.154-6.457-.93-9.141-2.064-1.075-.455-2.948-1.379-3.774-1.862-2.936-1.72-6.239-4.56-8.509-7.317-.606-.737-1.744-2.281-2.078-2.822-.14-.227-.352-.546-.471-.71-.12-.165-.37-.573-.557-.907C4.43 45.056 3.9 43.89 3.273 42.01c-1.133-3.398-1.581-6.113-1.59-9.634-.004-1.323.024-1.99.111-2.688.326-2.604.921-5.153 1.688-7.232.48-1.3 1.247-2.996 1.666-3.68.172-.282.44-.742.593-1.024.25-.455.637-1.037 1.984-2.976a17.6 17.6 0 0 1 1.725-2.129c1.074-1.108 1.675-1.693 1.985-1.933.48-.372.533-.454.755-1.154.635-2.001 2.261-4.103 4.19-5.414 1.725-1.174 3.286-1.805 5.291-2.142.804-.134 1.14-.156 2.433-.156h1.5l.316-.237c.174-.13.317-.258.317-.283 0-.155 2.004-1.294 2.909-1.653.263-.105.85-.285 1.305-.4l.828-.211h1.692c1.375.001 1.792.022 2.23.115 2.153.454 4.01 1.4 5.658 2.884l.275.247 1.058.057c1.436.076 2.423.281 4.02.837.868.302 1.141.43 2.114.997 1.002.584 1.367.87 2.411 1.898.683.672 1.035 1.08 1.385 1.602.526.785 1.073 1.843 1.376 2.659.269.724.378.875 1.351 1.87.87.89 1.623 1.78 2.1 2.482.155.229.416.591.579.806.163.214.378.517.477.672s.326.505.505.778c.323.493.43.682 1.261 2.239 1.252 2.34 2.133 4.911 2.736 7.978.39 1.983.454 2.725.456 5.287.002 2.727-.037 3.123-.554 5.667-.721 3.543-1.574 5.798-3.424 9.053-.44.773-1.93 2.978-2.49 3.685-1.285 1.618-4.278 4.546-6.055 5.922-.63.489-3.172 2.195-3.546 2.38-.179.09-.687.36-1.13.6s-.815.437-.828.437-.53.22-1.148.488a26 26 0 0 1-3.4 1.21l-1.171.319c-.738.2-2.639.513-3.872.636-1.174.117-3.802.169-5.14.1m-3.155-1.817c.74-.194.914-.343 2.829-2.409.96-1.035 1.628-1.849 1.628-1.982 0-.19-.46-.758-.704-.869-.295-.134-.476-.29-.803-.692l-.252-.311.214-.233c.117-.128.284-.345.37-.483l.156-.25-.177-.15c-.238-.2-.468-.25-.68-.142-.095.048-1.113 1.01-2.261 2.136-1.947 1.91-2.105 2.081-2.337 2.543-.233.464-.25.534-.253 1.088-.005.638.052.807.424 1.273.22.276.5.418.976.496.492.08.508.08.87-.015m13.125-.032c.576-.157.732-.267.94-.666.134-.258.18-.456.203-.862.036-.65-.055-1.032-.356-1.489-.13-.197-1.126-1.226-2.263-2.336-2.944-2.874-9.365-9.27-10.833-10.79-.694-.719-1.57-1.575-1.95-1.904l-.688-.599-.076-.873c-.081-.921-.198-1.74-.279-1.956-.038-.102-.08-.036-.199.317-.67 1.987-1.736 3.047-3.948 3.93-.401.16-.738.32-.749.355-.025.083.615.211 1.315.262.456.034.619.019.932-.086.416-.14.4-.15.464.304.023.158.087.356.142.438.108.163.187.164.744.009l.298-.084.483.306c.581.368.553.344.478.413-.035.033-.295.022-.613-.025-.305-.045-.565-.072-.579-.06-.08.073.298.466 5.749 5.979 3.852 3.896 5.548 5.64 6.468 6.65 1.01 1.111 2.147 2.225 2.513 2.465.646.424 1.086.498 1.804.302m-7.706-7.994a346 346 0 0 1-3.002-3.005l-.57-.59.365-.434c.2-.238.38-.498.4-.578s.058-.144.083-.144c.09 0 5.98 5.937 6.08 6.13l.103.195-.392.357c-.215.196-.446.385-.512.42-.104.054-.463-.276-2.555-2.351m4.242-1.667c.112-.13 1.25-1.273 2.528-2.54s2.41-2.42 2.514-2.56c.105-.14.415-.487.69-.77.273-.283.516-.571.538-.64.055-.168.522-.45.897-.543.26-.065.326-.06.474.036.135.087.252.102.544.07.59-.062.86-.156.86-.299 0-.158-.161-.258-.86-.534-.957-.378-1.454-.701-2.166-1.41-.503-.501-.718-.773-.951-1.202-.268-.494-.496-1.002-.608-1.359-.108-.341-.17.177-.245 2.045-.07 1.735-.089 1.95-.124 1.416-.043-.64-.142-.912-.22-.603a.44.44 0 0 1-.193.24c-.083.044-.686.631-1.34 1.305s-2.106 2.15-3.227 3.282-2.038 2.087-2.038 2.122.432.506.96 1.046 1.044 1.09 1.145 1.22l.185.239.217-.163a3.3 3.3 0 0 0 .42-.398m3.773-8.24c-.08-.209-.08-.284.001-.284.036 0 .066.066.066.147a.36.36 0 0 0 .078.224c.06.06.06.077-.002.077-.044 0-.108-.074-.143-.164m-21.892-.099a10 10 0 0 0 1.203-.515c1.657-.867 2.83-2.04 3.65-3.651.587-1.152.696-1.74.425-2.294-.117-.24-1.136-1.616-1.765-2.383a109 109 0 0 1-2.064-2.625 15 15 0 0 0-.552-.687 41 41 0 0 1-.879-1.087c-.332-.423-.816-1.035-1.075-1.36s-.61-.774-.78-.997c-.731-.96-1.682-2.08-1.985-2.341-.359-.309-1.063-.615-1.726-.748-.889-.18-2.555.184-3.423.748-1.12.728-2.058 1.677-2.682 2.715-.876 1.457-.997 2.979-.35 4.396.412.9.714 1.227 5.725 6.196 2.165 2.147 4.141 4.13 4.39 4.407l.453.504.424-.043c.234-.023.689-.13 1.01-.235m-2.05-3.439c0-.032-.256-.274-.57-.538-.666-.563-5.757-5.549-6.525-6.391-.289-.317-.516-.598-.505-.624s.251-.262.534-.524l.513-.477 1.373 1.388c.756.763 2.146 2.174 3.09 3.136.944.961 2.02 2.055 2.391 2.43.371.376.675.726.675.78 0 .052-.168.244-.374.426-.407.358-.602.486-.602.394m1.204-2.036c-.351-.384-1.33-1.398-4.098-4.246-1.316-1.354-2.46-2.573-2.672-2.846l-.185-.239.46-.442c.254-.242.494-.441.534-.441.148 0 1.188 1.076 5.993 6.201.77.82 1.421 1.53 1.448 1.576.059.1-.243.479-.38.479-.051 0-.185.086-.297.192-.113.106-.251.192-.309.192s-.28-.192-.494-.426m1.652-1.8c-.71-.722-1.728-1.839-3.376-3.703a29 29 0 0 0-.944-1.016c-.556-.558-1.532-1.666-1.724-1.956-.09-.135-.222-.278-.296-.317a.7.7 0 0 1-.215-.198c-.074-.117-.03-.18.458-.673l.54-.543.293.312c.572.608 1.79 2.004 2.47 2.832.16.194.394.47.52.612.128.143.515.59.862.992.347.403 1.133 1.308 1.747 2.012s1.131 1.318 1.15 1.365c.035.082-.553.728-.77.845-.08.044-.238-.08-.715-.565m29.49 7.409c.17-.047.343-.186.615-.496.731-.834 1.133-1.24 5.85-5.903 2.617-2.587 4.81-4.783 4.874-4.879l.116-.174-.329-.402c-.554-.675-6.522-6.482-6.81-6.626-.64-.32-1.2-.234-1.902.29-.374.278-.665.614-1.562 1.8-.382.505-.487.638-1.577 2a232 232 0 0 0-2.713 3.438c-.172.223-.73.923-1.241 1.554a68 68 0 0 0-1.204 1.522c-.151.206-.399.523-.55.705-.345.416-.43.722-.393 1.412.025.475.062.609.288 1.056 1.066 2.105 2.269 3.284 4.351 4.265.956.45 1.64.587 2.187.438m-.046-3.954-.46-.429 2.867-2.92c1.577-1.607 3.287-3.344 3.799-3.861l.931-.94.565.55.565.551-3.838 3.742c-2.112 2.058-3.868 3.74-3.904 3.74-.036-.002-.272-.197-.525-.433m-1.677-1.607c-.238-.243-.433-.455-.433-.47 0-.03.393-.455 1.34-1.448.29-.303 1.18-1.258 1.978-2.12 2.291-2.476 3.97-4.224 4.055-4.224.089 0 1.02.9 1.02.985 0 .03-.504.577-1.12 1.215s-1.326 1.376-1.578 1.64c-2.62 2.744-4.691 4.864-4.753 4.864-.041 0-.27-.199-.509-.442m-1.161-1.277c-.06-.022-.273-.18-.472-.349-.406-.345-.447-.494-.216-.787.235-.299 1.857-2.194 2.294-2.681.221-.246.595-.686.83-.977.429-.527.865-1.025 1.548-1.767.198-.216.483-.55.632-.744s.532-.623.849-.954c.684-.713.674-.713 1.343-.112l.452.406-.322.369c-.769.88-1.854 2.077-1.918 2.116-.038.023-.188.19-.334.373-.245.305-1.118 1.291-2.56 2.89-.322.358-.82.916-1.106 1.241-.886 1.006-.902 1.021-1.02.976m-3.545-5.209c.019-.08.056-2.21.081-4.736l.047-4.592h.527c1.949 0 3.733-.433 5.147-1.25.63-.364 1.732-1.235 2.048-1.618l.428-.52c.892-1.083 1.59-2.805 1.79-4.42.09-.72.04-2.255-.096-2.917-.51-2.491-2.165-4.473-4.876-5.843a12.9 12.9 0 0 0-4.61-1.294c-.89-.07-1.976-.043-2.46.06-.222.048-.245.033-1.008-.673-.43-.398-.956-.829-1.171-.957-1.014-.609-1.281-.747-1.889-.981C35.206 1 34.287.826 33.036.825c-.773-.001-1.899.102-2.505.23-1.28.267-2.986 1.13-3.886 1.965l-.34.315-.44-.105c-1.295-.307-3.331-.306-4.606.002-.568.137-1.586.47-1.887.617-.143.07-.67.395-1.17.723-1.445.946-2.377 1.921-3.205 3.356-.543.94-.68 1.263-.934 2.208-.49 1.823-.36 4.424.314 6.27.215.587.747 1.629 1.08 2.114.631.92 1.14 1.43 1.957 1.961 1.128.735 1.78 1.018 2.837 1.23.606.123 1.754.233 2.43.233h.511l-.046-.528a7 7 0 0 0-.06-.543 11 11 0 0 0-.763-.079c-1.311-.113-2.577-.407-3.3-.765-.575-.287-1.461-.935-1.885-1.38-.476-.5-1.099-1.41-1.415-2.064-.413-.858-.742-2.41-.742-3.505 0-1.254.332-2.672.877-3.744.548-1.08.889-1.55 1.69-2.338.745-.73 1.415-1.214 2.385-1.722 1.693-.886 3.68-1.115 5.783-.668.34.073.693.146.785.163.139.027.26-.052.702-.45a6.9 6.9 0 0 1 2.791-1.494c.547-.142.773-.165 1.643-.168.769-.002 1.107.024 1.426.11.511.137 1.51.59 1.935.877.494.334 1.46 1.285 1.859 1.832.394.54.876 1.625 1.088 2.45.141.548.416 2.112.377 2.15-.014.013-.078-.199-.142-.47-.379-1.616-1.516-3.299-2.78-4.115-1.005-.65-1.816-.891-2.991-.892-1.231-.001-1.923.216-3.137.987-.504.32-1.149.957-1.149 1.137 0 .035.107.264.237.507.13.244.225.455.21.47-.014.014-.318-.089-.675-.228-.946-.37-1.442-.492-2.347-.578q-2.591-.247-4.819 1.202c-.433.282-1.487 1.299-1.852 1.788-.94 1.26-1.352 2.85-1.169 4.52.141 1.288.745 2.559 1.68 3.53.81.844 2.959 1.96 3.772 1.96h.149v11.392h.183c.1 0 .636-.127 1.19-.282 1.487-.416 3.602-.776 5.512-.94 1.185-.1 5.086-.041 6.258.096 1.765.206 4.005.633 5.205.993.765.229.759.228.801.053m-3.535-4.538c-.203-.082-2.205-.335-3.7-.468a97 97 0 0 0-6.063-.33l-1.883-.044v-.63c0-.528.016-.63.1-.63.057 0 .693-.078 1.416-.174 1.215-.16 1.48-.173 3.526-.172 1.217.001 2.703.024 3.302.05l1.09.049v-3.273h-1.318c-1.37.001-2.806.055-6.157.23-1.655.086-1.986.089-2.036.016-.074-.108-.012-.64.082-.697.082-.05 2.24-.54 3.963-.9a418 418 0 0 0 6.707-1.503c.665-.155 1.258-.282 1.318-.282.1 0 .108.293.108 3.83 0 2.107-.019 4.094-.042 4.416-.045.631-.063.653-.413.512m3.6-6.122c.02-.13.059-.35.089-.489l.053-.253.52-.074c1.236-.177 2.508-.638 3.4-1.233.207-.139.631-.515.942-.837 1.129-1.166 1.603-2.307 1.62-3.894.022-2.199-1.465-4.158-3.773-4.97-.543-.19-.6-.198-1.636-.197-.942 0-1.134.019-1.559.15-1.012.31-2.142.957-2.86 1.635l-.549.518.185-.32c.335-.58.482-.76 1.22-1.494 1.331-1.32 2.732-2.05 4.344-2.26.643-.085 1.504-.019 2.244.17.975.25 2.284 1.088 2.927 1.873.438.535.907 1.52 1.15 2.415.188.693.209.858.21 1.696.003 1.063-.082 1.62-.386 2.538-.733 2.213-2.19 3.864-4.094 4.641-.89.364-1.791.522-3.343.589l-.738.032z" style="fill:#000;stroke-width:.0645296" transform="translate(-.323 .968)"/><path d="M15.9 42.032a505 505 0 0 0-4.291-4.32c-4.466-4.448-4.742-4.763-5.141-5.86-.603-1.658-.05-3.573 1.507-5.222 1.272-1.346 2.402-1.958 3.986-2.16.647-.081.749-.076 1.278.064 1.252.333 1.522.559 3.212 2.69l2.479 3.12c4.027 5.061 4.916 6.23 5 6.582.133.551-.27 1.68-1.011 2.841-1.02 1.595-3.003 3.003-4.872 3.459-.836.204-.736.26-2.146-1.194m1.157-2.616c.427-.365.516-.49.457-.65-.034-.094-6.146-6.34-7.18-7.337l-.36-.348-.52.485c-.285.267-.531.52-.546.564-.064.181 7.435 7.594 7.697 7.609.039.002.242-.143.452-.323m1.535-1.49c.429-.272.65-.498.65-.66 0-.078-1.307-1.524-3.148-3.48-3.12-3.315-4.175-4.392-4.305-4.392-.037 0-.29.202-.563.448l-.497.447.136.195c.192.275 7.278 7.644 7.35 7.644.033 0 .202-.09.377-.201m1.978-1.885c.199-.22.362-.422.362-.45 0-.065-.34-.467-2.507-2.971-.963-1.113-2.23-2.583-2.818-3.267a52 52 0 0 0-1.425-1.608l-.358-.364-.527.546c-.29.3-.527.575-.527.609 0 .086.968 1.202 2.115 2.436.525.566 1.605 1.755 2.4 2.643 1.741 1.943 2.613 2.825 2.79 2.825.073 0 .295-.18.495-.399M38.927 61.063a3.4 3.4 0 0 1-.598-.337c-.184-.13-1.776-1.727-3.536-3.549a833 833 0 0 0-5.664-5.8c-3.028-3.058-5.383-5.488-5.383-5.553 0-.027.257-.03.572-.008.708.05.715-.031.039-.467l-.47-.302-.458.115c-.287.071-.483.088-.524.045-.036-.038-.105-.235-.154-.436-.048-.202-.11-.394-.135-.427s-.244-.006-.484.058c-.364.099-.545.106-1.083.042a8 8 0 0 1-.853-.136c-.196-.057-.176-.072.387-.306 2.315-.96 3.365-1.947 4.046-3.8.107-.294.205-.523.216-.51.048.049.236 1.451.28 2.09l.049.683.752.687a84 84 0 0 1 2.275 2.23 1285 1285 0 0 0 9.441 9.406c2.59 2.547 3.285 3.28 3.448 3.634.167.365.225 1.263.107 1.68-.148.524-.373.757-.89.923-.53.17-1 .184-1.38.038m-3.44-5.905c.232-.2.444-.405.473-.453.033-.055-.587-.743-1.703-1.891-2.172-2.234-4.445-4.484-4.529-4.484-.034 0-.083.068-.108.15-.025.083-.201.346-.392.584-.19.239-.346.453-.346.475 0 .079 4.353 4.441 5.484 5.496.287.268.563.488.612.488s.278-.164.51-.365M34.981 50.761c-.607-.64-1.103-1.198-1.103-1.238 0-.064 4.229-4.41 6.133-6.305l.676-.671.042.268c.024.147.043.365.043.484 0 .126.027.187.062.147.033-.038.096-.86.14-1.825.075-1.642.117-1.998.207-1.733.02.06.195.439.39.843.297.621.45.837.99 1.4.754.787 1.182 1.091 2.084 1.486.966.423 1.054.47 1.054.573 0 .21-.814.326-1.496.213-.602-.1-.815.045-1.932 1.304a45 45 0 0 1-1.474 1.594c-.264.261-1.408 1.409-2.542 2.55-1.134 1.142-2.086 2.076-2.116 2.076s-.55-.525-1.158-1.166m5.686-7.477a3 3 0 0 1-.086-.256c-.02-.071-.063-.129-.097-.129-.093 0-.076.324.022.426.125.13.22.107.161-.04M47.669 43.15c-.596-.164-2.157-.994-2.782-1.48-.99-.767-1.825-1.816-2.466-3.093-.221-.44-.277-.637-.3-1.045a4.3 4.3 0 0 1 .02-.76c.056-.316.222-.532 5.6-7.3a288 288 0 0 0 2.108-2.683c1.303-1.693 1.842-2.126 2.64-2.124.257.001.504.049.633.123.393.225 6.383 6.041 6.903 6.703l.267.34-1.052 1.078c-.579.593-2.636 2.643-4.57 4.556-1.935 1.912-3.979 3.965-4.542 4.562-.563.596-1.11 1.12-1.218 1.162-.266.105-.775.09-1.241-.04m2.45-4.05a883 883 0 0 0 5.971-5.797l1.07-1.054-.532-.528c-.292-.29-.574-.539-.626-.551-.08-.02-2.696 2.598-6.68 6.685l-.985 1.012.456.438c.25.24.5.438.555.438.054 0 .402-.289.772-.642m2.457-5.904c1.403-1.468 2.55-2.723 2.55-2.789 0-.125-.893-1.013-1.019-1.013-.072 0-2.435 2.463-5.688 5.927-1.977 2.107-1.879 1.895-1.164 2.515l.426.37 1.172-1.17c.645-.645 2.32-2.373 3.723-3.84m-4.41 1.024c1.09-1.22 2.608-2.914 3.372-3.761a100 100 0 0 0 1.583-1.783l.194-.241-.273-.252c-.509-.47-.786-.643-.958-.598-.224.059-1.402 1.343-3.712 4.048l-2.005 2.346c-1.261 1.474-1.256 1.467-1.202 1.694.05.209.697.767.888.767.081 0 .885-.844 2.113-2.22M41.618 31.111c-1.672-.5-4.433-.952-6.509-1.065-3.92-.214-7.222.08-10.462.93-.53.14-1.045.253-1.144.253h-.18V19.853h-.213c-.492 0-1.933-.651-2.882-1.303-1.114-.765-1.954-1.977-2.337-3.372-.13-.473-.157-.745-.152-1.563.007-1.198.144-1.808.634-2.81.292-.595.438-.786 1.218-1.594.975-1.008 1.511-1.38 2.599-1.806.909-.355 1.602-.483 2.611-.481 1.087.002 1.855.141 2.919.531.452.166.841.28.866.255.024-.026-.061-.246-.19-.49-.195-.371-.222-.473-.159-.617.126-.287.974-.958 1.699-1.343.94-.5 1.514-.625 2.697-.585.807.028 1.008.061 1.54.255 1.804.66 3.28 2.35 3.896 4.464.206.704.222.743.278.684.064-.066-.306-1.988-.5-2.594-.36-1.135-.763-1.832-1.539-2.666-1.014-1.09-1.522-1.44-2.852-1.96-.509-.2-.574-.208-1.794-.205-1.172.002-1.314.018-1.898.202-.803.254-1.636.685-2.219 1.147-.251.2-.572.448-.713.552l-.256.188-.764-.157c-.981-.203-2.488-.269-3.351-.147-1.709.242-3.297 1.024-4.731 2.33-1.642 1.493-2.61 3.54-2.754 5.827-.074 1.165.195 2.795.631 3.824.22.517.803 1.43 1.283 2.006.395.475 1.367 1.239 2.001 1.574.722.381 1.871.665 3.288.813l.86.09.034.228c.02.125.045.352.058.503l.024.275h-.466c-1.042 0-2.535-.217-3.373-.491-.494-.162-1.374-.631-2.037-1.087-1.694-1.165-2.986-3.472-3.352-5.981-.209-1.438-.104-3.234.264-4.514.461-1.606 1.777-3.501 3.21-4.623 1.376-1.077 2.531-1.64 4.093-1.991.87-.196 3.21-.195 4.16.001l.675.14.423-.367c1.11-.964 2.775-1.737 4.26-1.979 1.026-.167 2.929-.167 3.734 0 1.794.372 3.369 1.2 4.831 2.543.653.598.635.592 1.475.497.543-.062.983-.06 1.753.004 1.831.154 3.246.554 4.828 1.365 2.512 1.287 4.101 3.138 4.69 5.463.208.82.26 2.678.099 3.57-.519 2.89-2.13 5.094-4.648 6.355-1.254.63-2.529.933-4.193 1l-1.028.042-.051 4.623c-.028 2.543-.068 4.669-.088 4.724-.047.128-.076.125-.796-.09m-2.29-4.485c.072-.198.135-6.614.076-7.752l-.053-1.016-.256.048c-.141.027-1.27.28-2.508.562-1.239.282-3.518.79-5.066 1.128-4.543.994-4.262.922-4.334 1.12-.122.333-.08.598.103.646.092.024 1.177-.01 2.41-.077s3.312-.14 4.618-.163l2.374-.042v3.153l-3.5-.006c-3.498-.007-3.956.017-5.664.294l-.264.042v1.28l2.515.089c3.678.128 7.177.412 8.708.706.692.133.787.131.84-.012m5.491-5.97c2.48-.354 4.323-1.738 5.47-4.106.853-1.759 1.037-3.884.483-5.59-.5-1.544-1.21-2.511-2.38-3.24-1.099-.686-1.95-.931-3.23-.931-1.94 0-3.546.77-5.257 2.519-.53.54-1.216 1.496-1.136 1.58.017.018.245-.16.507-.394.961-.86 2.206-1.55 3.186-1.766.628-.14 2.042-.134 2.57.01 1.114.302 2.444 1.204 3.09 2.096.664.914.957 1.81.958 2.927.001 1.09-.182 1.825-.665 2.661-1.066 1.848-2.74 2.85-5.542 3.319-.253.042-.258.049-.334.506-.042.254-.077.489-.077.522 0 .068 1.63-.01 2.357-.114" style="font-variation-settings:&quot;wght&quot;700;fill:#fff;stroke-width:.718616;stroke-linecap:round;stroke-linejoin:round" transform="translate(-.323 .968)"/><path d="M41.618 31.111c-1.673-.5-4.433-.952-6.509-1.065-3.897-.212-7.245.085-10.462.93-.53.14-1.045.253-1.144.253h-.18V19.853h-.213c-.492 0-1.933-.651-2.882-1.303-1.114-.765-1.954-1.977-2.337-3.372-.218-.791-.217-2.285.002-3.125.332-1.274 1.037-2.326 2.335-3.486 1.305-1.166 3.388-1.81 5.26-1.626.909.089 1.271.171 2.247.513.451.158.833.275.848.26.015-.017-.073-.236-.195-.488-.181-.375-.209-.49-.149-.627.124-.283.977-.957 1.697-1.34.94-.5 1.514-.624 2.697-.584.807.028 1.008.061 1.54.255 1.838.672 3.33 2.407 3.929 4.567.169.61.32.811.24.32-.17-1.051-.405-2.07-.607-2.63-.416-1.152-.699-1.598-1.633-2.567-.73-.759-.942-.932-1.485-1.221-.349-.185-.871-.43-1.161-.543-.508-.198-.576-.206-1.794-.203-1.166.002-1.316.018-1.885.198-.8.253-1.683.71-2.243 1.162-.245.197-.561.442-.702.544l-.256.185-.764-.158c-1.611-.335-3.443-.263-4.776.188-1.497.506-3.2 1.687-4.174 2.892-1.64 2.029-2.25 4.714-1.672 7.345.212.965.388 1.433.796 2.118.766 1.287 1.677 2.196 2.844 2.836.736.404 2.16.747 3.665.885.608.055.568.007.637.796l.025.286-.954-.047c-2.175-.107-3.405-.495-4.937-1.557-1.684-1.168-2.975-3.48-3.339-5.977-.208-1.433-.105-3.228.26-4.514.452-1.588 1.784-3.503 3.214-4.623 1.376-1.077 2.531-1.64 4.093-1.991.872-.197 3.21-.195 4.165.003l.682.14.292-.275c.999-.941 2.867-1.827 4.37-2.072 1.035-.168 2.935-.169 3.743-.001.846.175 1.785.51 2.54.907.863.452 1.252.72 2.02 1.398.984.867.886.825 1.749.733.54-.057 1.012-.055 1.759.007 1.821.153 3.239.554 4.82 1.364 2.512 1.287 4.102 3.14 4.689 5.463.177.7.256 2.587.14 3.356-.273 1.82-1.154 3.66-2.33 4.868-.932.956-2.423 1.862-3.695 2.244-.96.29-1.727.412-2.857.458l-1.028.041-.051 4.623c-.028 2.543-.068 4.669-.088 4.724-.047.128-.076.125-.796-.09m-2.274-4.56c.066-.265.073-8.578.007-8.647-.028-.029-1.247.219-2.71.55-1.461.333-3.845.863-5.296 1.18-2.925.639-3.86.852-4.026.919-.116.046-.193.253-.195.52-.002.34.056.346 2.514.214 1.267-.068 3.374-.142 4.68-.165l2.374-.042v3.153l-3.5-.006c-3.498-.007-3.956.017-5.664.294l-.264.042v1.287l1.706.05c3.911.113 7.856.42 9.516.738.762.146.8.142.858-.088m5.65-5.932c1.11-.18 1.945-.504 2.83-1.101 1.126-.758 2.195-2.169 2.724-3.591.418-1.127.515-1.673.514-2.9-.001-.938-.023-1.142-.19-1.724-.243-.856-.637-1.719-1.047-2.294-.579-.812-1.959-1.734-3.071-2.05-.665-.19-2.45-.187-3.131.006-1.413.398-2.844 1.336-3.964 2.599-.334.376-.94 1.272-.893 1.32.016.018.245-.16.508-.393.97-.86 2.212-1.547 3.188-1.763.628-.14 2.042-.134 2.57.01.659.178 1.638.702 2.219 1.185a5.15 5.15 0 0 1 1.718 2.7c.125.498.147 1.645.044 2.205-.214 1.159-.862 2.241-1.894 3.16-1.008.9-2.277 1.423-4.246 1.753-.253.042-.258.049-.334.506-.042.254-.077.489-.077.522 0 .082 1.725-.02 2.533-.15M25.857 61.035c-1.197-.442-1.411-1.974-.45-3.212.274-.351 3.783-3.782 4.143-4.048.263-.196.468-.184.737.043l.157.132-.306.393a21 21 0 0 0-.375.491c-.085.121.57.848.949 1.055.26.14.467.351.662.672.117.192.115.196-.325.768-.244.316-1.044 1.21-1.78 1.987-1.111 1.174-1.406 1.445-1.749 1.608-.553.262-1.148.302-1.663.111" style="font-variation-settings:&quot;wght&quot;700;fill:#fff;stroke-width:.718616;stroke-linecap:round;stroke-linejoin:round" transform="translate(-.323 .968)"/></svg>