<?xml version="1.0" encoding="utf-8"?>
<svg fill="#000000" height="512px" width="512px" version="1.1" id="Capa_1" viewBox="0 0 512 512" xmlns="http://www.w3.org/2000/svg">
  <g transform="matrix(1.256644, 0, 0, 1.260245, -0.000074, -1.079535)">
    <path d="M176.55,188.844c-2.442-1.283-5.467-0.34-6.75,2.105c-4.957,9.452-7.339,19.618-7.08,30.216 c0.066,2.719,2.291,4.878,4.996,4.878c0.041,0,0.083,0,0.124-0.001c2.761-0.067,4.943-2.36,4.876-5.121 c-0.217-8.878,1.782-17.4,5.939-25.328C179.938,193.149,178.995,190.126,176.55,188.844z"/>
    <path d="M281.262,283.553c0.155,0.107,15.659,10.903,26.471,29.069c0.936,1.571,2.597,2.444,4.302,2.444 c0.869,0,1.751-0.228,2.553-0.705c2.372-1.412,3.151-4.48,1.739-6.854c-11.981-20.131-28.703-31.719-29.409-32.202 c-2.275-1.56-5.384-0.978-6.944,1.297C278.411,278.877,278.989,281.989,281.262,283.553z"/>
    <path d="M319.214,258.89c0.569,2.267,2.605,3.781,4.845,3.781c0.397,0,0.801-0.047,1.203-0.147 c2.681-0.662,4.317-3.373,3.655-6.053c-0.082-0.331-2.074-8.185-8.625-16.373c-1.726-2.157-4.872-2.506-7.027-0.782 c-2.156,1.725-2.507,4.872-0.781,7.028C317.562,252.695,319.18,258.763,319.214,258.89z"/>
    <path d="M391.986,145.659c4.067-6.687,3.832-12.219,2.802-15.816c-1.036-3.615-3.765-8.428-10.724-12.301 c2.273-8.33,0.345-13.85-1.9-17.158c-2.23-3.285-6.601-7.087-15.063-8.064c-0.884-7.528-4.009-11.742-6.717-14.03 c-2.504-2.115-6.738-4.349-13.163-3.862c-27.282-27.386-61.543-45.527-99.344-52.598c-1.066-1.189-2.176-2.125-3.238-2.845 c-3.674-2.495-9.859-4.625-19.278-1.926c-4.596-8.539-10.455-11.533-14.832-12.49c-4.53-0.989-11.396-0.655-19.579,5.694 c-8.188-6.347-15.054-6.684-19.582-5.694c-4.376,0.957-10.235,3.951-14.836,12.491c-9.42-2.699-15.605-0.568-19.28,1.926 c-3.647,2.476-7.879,7.387-8.862,16.998c-9.613,0.983-14.523,5.216-16.999,8.865c-0.799,1.178-1.558,2.617-2.135,4.334 c-9,5.849-17.52,12.46-25.387,19.726c-7.061-5.143-13.014-5.397-16.99-4.526c-3.938,0.861-9.185,3.514-13.334,10.984 c-8.332-2.269-13.852-0.336-17.158,1.91c-3.282,2.229-7.081,6.597-8.059,15.046c-8.448,0.979-12.817,4.777-15.047,8.059 c-2.246,3.308-4.178,8.827-1.909,17.159c-7.47,4.149-10.123,9.395-10.984,13.333c-0.892,4.077-0.618,10.217,4.896,17.504 c-5.512,7.29-5.786,13.43-4.896,17.504c0.86,3.938,3.513,9.183,10.984,13.337c-2.27,8.33-0.337,13.85,1.909,17.158 c1.678,2.472,4.571,5.235,9.502,6.869c-0.05,1.786-0.082,3.56-0.082,5.3c0,104.75,85.225,189.97,189.979,189.97 c104.756,0,189.98-85.22,189.98-189.97C402.661,186.956,399.064,165.815,391.986,145.659z M357.344,97.03 c-0.015,1.345,0.514,2.639,1.465,3.59c0.951,0.951,2.208,1.497,3.591,1.463c5.641-0.054,9.733,1.328,11.49,3.917 c1.77,2.606,1.548,6.956-0.622,12.247c-0.506,1.233-0.498,2.617,0.021,3.845c0.52,1.228,1.508,2.197,2.745,2.693 c5.029,2.017,8.276,4.791,9.142,7.812c0.96,3.352-0.975,6.976-2.776,9.44c-0.681,0.937-1.499,1.912-2.434,2.898 c-1.827,1.928-1.828,4.949-0.001,6.877c4.15,4.383,6.038,8.621,5.314,11.933c-0.697,3.19-3.982,6.113-9.25,8.23 c-1.236,0.497-2.223,1.467-2.741,2.694c-0.518,1.227-0.525,2.611-0.02,3.843c2.171,5.287,2.392,9.635,0.621,12.243 c-1.758,2.59-5.817,3.969-11.489,3.919c-1.374-0.044-2.641,0.513-3.591,1.464c-0.952,0.952-1.479,2.246-1.465,3.591 c0.063,5.648-1.327,9.725-3.914,11.481c-2.604,1.768-6.951,1.547-12.237-0.622c-1.232-0.506-2.615-0.498-3.842,0.019 c-1.228,0.518-2.197,1.504-2.694,2.739c-1.105,2.741-2.44,4.97-3.914,6.564c-1.862-0.189-3.769-0.292-5.722-0.292 c-2.344,0-4.743,0.142-7.187,0.407c-1.101-0.767-2.219-1.681-3.341-2.743c-1.93-1.826-4.95-1.827-6.878,0.001 c-4.38,4.152-8.612,6.04-11.931,5.316c-3.19-0.697-6.113-3.982-8.229-9.25c-0.496-1.236-1.466-2.223-2.692-2.742 c-0.776-0.328-1.614-0.427-2.438-0.346c4.005-6.509,6.415-13.05,6.599-19.381l22.295-18.496c2.3,0.973,4.789,1.501,7.328,1.501 c0.001,0,0.001,0,0.001,0c4.711,0,9.185-1.763,12.594-4.959c0.53-0.497,0.924-0.937,1.246-1.396 c2.179-3.122,3.438-6.781,3.641-10.58l0.854-15.932c0.541-10.101-6.538-19.173-16.467-21.104l-4.065-0.791 c-5.649-1.097-11.704,0.323-16.276,3.818l-8.304,6.349c-3.382,2.587-5.535,6.505-5.905,10.748c-0.231,2.65,0.244,5.294,1.336,7.671 l-20.382,16.905c-3.748-1.078-8.262-1.891-13.474-2.331c0.054-0.395,0.116-0.785,0.158-1.19c9.612-0.983,14.523-5.214,17-8.862 c2.494-3.674,4.626-9.86,1.925-19.281c8.54-4.6,11.535-10.459,12.492-14.835c0.99-4.526,0.656-11.393-5.688-19.582 c2.822-3.644,4.436-7.018,5.29-10.032c4.275-6.11,9.096-13.9,11.168-14.353c3.317-0.723,7.549,1.164,11.927,5.313 c1.927,1.828,4.95,1.829,6.879,0c4.377-4.149,8.614-6.037,11.927-5.313c3.193,0.697,6.117,3.982,8.234,9.249 c0.498,1.237,1.469,2.225,2.698,2.743c1.228,0.518,2.613,0.524,3.847,0.016c1.796-0.74,3.507-1.259,5.093-1.542 c3.327-0.6,5.897-0.158,7.639,1.314C356.188,87.836,357.401,91.779,357.344,97.03z M243.544,358.766 c-0.144-21.604-10.127-36.382-10.584-37.046c-1.566-2.274-4.679-2.85-6.954-1.282c-2.274,1.566-2.849,4.68-1.282,6.954 c0.093,0.135,8.519,12.609,8.814,30.872c-18.297-1.351-36.831-5.098-51.669-10.603c-11.619-4.31-31.113-13.541-31.122-26.936 c-0.006-8.732,8.383-16.547,21.275-22.798c3.239,3.563,9.075,10.514,12.491,17.741c0.854,1.807,2.65,2.864,4.523,2.864 c0.716,0,1.443-0.154,2.134-0.48c2.497-1.18,3.563-4.161,2.384-6.657c-3.237-6.848-8.135-13.259-11.822-17.58 c14.477-5.373,32.404-9.1,50.138-10.575c3.943,1.444,21.62,8.906,29.816,29.071c0.789,1.941,2.659,3.119,4.634,3.119 c0.627,0,1.265-0.119,1.881-0.37c2.558-1.04,3.789-3.957,2.749-6.515c-7.635-18.785-21.844-28.236-30.28-32.397 c8.215-9.408,18.352-18.285,29.655-25.919c19.962-13.483,38.876-20.61,54.695-20.61c13.045,0,23.123,4.967,29.145,14.363 c11.223,17.512,9.985,42.729-2.757,56.213c-12.929,13.681-31.196,28.271-48.867,39.029c-21.05,12.815-39.777,19.594-54.158,19.604 h-0.126C246.695,358.829,245.122,358.805,243.544,358.766z M113.431,306.73c0.304,3.778-0.877,7.451-3.326,10.345 c-2.725,3.221-6.682,5.068-10.856,5.068c-1.344,0-4.423-0.725-4.523-0.761c-1.563-1.009-2.825-2.416-3.658-4.081l-7.141-14.268 c-2.307-4.609-0.844-10.288,3.403-13.208l3.41-2.346c2.431-1.672,5.516-2.234,8.381-1.525l10.146,2.509 c1.435,0.354,2.613,1.265,3.318,2.563c0.705,1.298,0.827,2.782,0.344,4.177C112.702,295.856,113.431,306.73,113.431,306.73z M123.399,305.93l-0.058-0.717l19.769,5.134c-1.567,3.334-2.367,6.804-2.364,10.387c0.001,0.927,0.057,1.891,0.179,2.884 l-19.664-5.614C122.985,314.268,123.737,310.138,123.399,305.93z M216.86,251.814c-6.932-16.722-4.273-31.61-4.233-31.827 c0.521-2.706-1.247-5.324-3.953-5.852c-2.714-0.529-5.337,1.24-5.864,3.951c-0.155,0.792-3.412,18.326,5.077,38.192 c-1.472,0.687-2.943,1.352-4.408,1.988c-13.192,5.729-33.068,6.983-57.485,3.633c-5.051-0.693-10.228-1.587-15.421-2.648 c-3.911-29.77,12.545-56.61,12.714-56.882c1.467-2.34,0.759-5.426-1.581-6.892c-2.339-1.467-5.425-0.758-6.892,1.581 c-0.759,1.21-17.289,28.054-14.548,59.865c-12.377-3.049-24.433-6.949-34.654-11.308c-17.063-7.278-28.259-29.908-24.955-50.449 c1.343-8.363,5.747-15.228,13.091-20.404c5.69-4.012,12.899-6.812,21.304-8.414c-8.693,14.934-6.387,29.462-6.261,30.204 c0.415,2.437,2.525,4.152,4.918,4.152c0.272,0,0.548-0.022,0.825-0.068c2.716-0.449,4.556-3.02,4.119-5.737 c-0.11-0.685-2.459-16.404,9.798-30.03c9.543-0.381,20.146,0.452,31.566,2.571c15.802,2.934,30.831,8.098,43.464,14.932 c1.23,0.667,2.687,0.786,4.009,0.329c6.839-2.358,13.664-4.342,20.33-5.943c1.532-0.368,11.258-2.397,14.281-2.887 c5.763-0.936,11.306-1.546,16.519-1.82c-2.776,9.015-6.221,24.472-1.462,35.046c0.834,1.853,2.655,2.95,4.563,2.95 c0.686,0,1.383-0.142,2.049-0.442c2.519-1.133,3.641-4.093,2.508-6.611c-3.622-8.048,0.151-22.998,2.891-31.02 c3.011,0.134,5.85,0.411,8.494,0.832c-4.726,6.209-4.756,15.086,0.434,21.344c2.927,3.53,7.053,5.709,11.619,6.135 c0.544,0.05,1.085,0.076,1.624,0.076c1.852,0,3.665-0.309,5.391-0.884C269.219,216.696,243.624,237.661,216.86,251.814z M312.031,161.026l-14.854-16.146c-1-1.087-1.48-2.497-1.352-3.969s0.846-2.777,2.019-3.674l8.303-6.349 c1.802-1.378,4.043-2.137,6.311-2.137c0.663,0,1.331,0.064,1.982,0.191l4.065,0.791c5.059,0.983,8.666,5.606,8.39,10.752 l-0.854,15.933c-0.1,1.861-0.696,3.656-1.723,5.197l-0.016,0.015c-1.552,1.456-3.596,2.257-5.756,2.257 C316.079,163.887,313.704,162.844,312.031,161.026z M293.409,155.554l9.712,10.556l-27.238,22.597 c-1.473,1.222-3.334,1.798-5.239,1.619c-1.906-0.178-3.629-1.087-4.851-2.561c-2.521-3.041-2.099-7.566,0.941-10.087 L293.409,155.554z M320.669,64.512c-2.873,0.681-6.11,2.111-9.616,4.763c-7.282-5.509-13.425-5.786-17.499-4.896 c-3.368,0.735-7.691,2.796-11.471,8.043c-1.935-2.862-4.956-5.773-9.657-8.3c2.7-9.419,0.568-15.604-1.926-19.278 c-2.477-3.648-7.386-7.88-16.999-8.863c-0.103-1.008-0.25-1.954-0.42-2.861C277.707,38.746,300.605,49.401,320.669,64.512z M120.306,64.845c-2.527-6.158-2.755-11.267-0.64-14.384c2.101-3.095,6.863-4.742,13.459-4.688 c1.372,0.055,2.641-0.513,3.591-1.464c0.951-0.951,1.479-2.246,1.465-3.591c-0.073-6.579,1.593-11.359,4.688-13.461 c3.118-2.116,8.227-1.892,14.385,0.633c1.233,0.505,2.615,0.499,3.843-0.021c1.228-0.519,2.196-1.505,2.693-2.742 c1.741-4.335,4.84-9.726,9.714-10.791c3.938-0.863,8.916,1.322,14.008,6.146c1.931,1.828,4.953,1.828,6.88-0.001 c5.089-4.825,10.064-7.003,14.002-6.145c4.874,1.065,7.969,6.455,9.707,10.788c0.496,1.237,1.466,2.225,2.692,2.744 c1.229,0.519,2.61,0.527,3.845,0.021c6.161-2.524,11.271-2.749,14.385-0.633c3.096,2.102,4.762,6.882,4.688,13.461 c-0.015,1.345,0.514,2.64,1.465,3.591c0.95,0.951,2.259,1.511,3.591,1.464c6.585-0.071,11.359,1.593,13.461,4.688 c2.116,3.118,1.892,8.227-0.633,14.386c-0.506,1.233-0.498,2.617,0.021,3.844c0.52,1.227,1.506,2.196,2.743,2.693 c4.462,1.791,9.967,4.987,10.856,10.03c0.688,3.942-1.456,8.672-6.203,13.68c-1.827,1.928-1.828,4.949-0.002,6.877 c4.821,5.092,7.002,10.067,6.14,14.008c-1.066,4.874-6.458,7.973-10.793,9.714c-1.235,0.497-2.223,1.466-2.741,2.693 c-0.519,1.227-0.526,2.61-0.021,3.843c2.524,6.16,2.749,11.269,0.633,14.386c-2.102,3.096-6.856,4.764-13.461,4.688 c-1.336-0.026-2.641,0.513-3.593,1.466c-0.951,0.952-1.479,2.248-1.463,3.594c0.025,2.047-0.137,3.892-0.442,5.564 c-7.907,0.067-16.956,0.901-27.015,2.762c-0.12-16.271,1.872-62.486,27.032-83.834c2.105-1.787,2.363-4.942,0.577-7.047 c-1.786-2.104-4.939-2.364-7.048-0.578c-5.774,4.9-10.745,11.053-14.921,18.387c-2.049-13.322-6.157-29.958-14.308-38.11 c-1.951-1.952-5.119-1.952-7.07,0c-1.953,1.953-1.953,5.119,0,7.071c9.252,9.252,12.669,38.085,13.299,49.671 c-2.297,7.108-4.1,14.921-5.395,23.437c-2.18,14.345-2.29,26.815-2.152,33.121c-2.207,0.525-4.455,1.099-6.743,1.721 c-2.034-87.398-39.623-119.942-41.261-121.316c-2.111-1.769-5.246-1.492-7.024,0.61c-1.777,2.104-1.513,5.255,0.585,7.041 c0.37,0.315,36.524,32.086,37.758,116.607c-1.089,0.348-2.184,0.704-3.289,1.075c-0.552-0.287-1.131-0.553-1.691-0.834 c-0.958-18.124-8.945-37.513-23.801-57.685c-11.483-15.594-22.772-25.666-23.247-26.087c-2.067-1.833-5.226-1.642-7.059,0.424 c-1.832,2.066-1.643,5.227,0.424,7.059c0.405,0.359,38.003,34.105,43.199,71.557c-9.07-3.673-18.832-6.632-28.931-8.715 c-1.111-0.229-5.199-0.992-6.119-1.148l-1.353-2.916c-0.819-1.767-2.59-2.896-4.535-2.896c-0.019,0-0.037,0-0.056,0 c-6.595,0.077-11.359-1.592-13.459-4.688c-2.115-3.117-1.888-8.226,0.64-14.384c0.507-1.233,0.499-2.617-0.02-3.844 c-0.519-1.228-1.506-2.198-2.742-2.694c-4.339-1.742-9.733-4.841-10.799-9.715c-0.862-3.94,1.32-8.915,6.145-14.006 c1.828-1.929,1.828-4.951-0.001-6.88c-4.257-4.488-6.446-8.805-6.332-12.483c0.077-2.46,1.183-4.65,3.372-6.687 c1.873-1.735,4.435-3.262,7.615-4.539c1.236-0.497,2.224-1.466,2.742-2.694S120.812,66.078,120.306,64.845z M109.474,64.13 c-1.116,0.603-2.159,1.247-3.142,1.923c-0.732-0.399-1.474-0.76-2.235-1.042c1.563-1.184,3.142-2.349,4.743-3.482 C109.014,62.37,109.215,63.23,109.474,64.13z M21.555,190.757c-1.771-2.608-1.554-6.958,0.613-12.247 c0.505-1.232,0.497-2.615-0.021-3.842c-0.519-1.227-1.505-2.196-2.74-2.693c-5.268-2.117-8.553-5.04-9.25-8.23 c-0.724-3.312,1.164-7.549,5.314-11.933c1.827-1.929,1.826-4.95-0.001-6.878c-4.15-4.378-6.037-8.614-5.313-11.926 c0.697-3.19,3.98-6.111,9.246-8.224c1.236-0.496,2.224-1.465,2.742-2.691c0.52-1.227,0.527-2.61,0.022-3.843 c-2.167-5.293-2.385-9.644-0.614-12.251c1.757-2.587,5.823-3.952,11.481-3.915c1.317,0.041,2.641-0.513,3.591-1.464 c0.952-0.952,1.479-2.246,1.465-3.591c-0.063-5.646,1.327-9.724,3.914-11.481c2.606-1.769,6.957-1.553,12.251,0.614 c1.234,0.506,2.617,0.497,3.843-0.022c1.227-0.52,2.196-1.506,2.692-2.743c2.112-5.265,5.033-8.549,8.224-9.247 c3.313-0.719,7.548,1.163,11.927,5.313c1.926,1.827,4.945,1.828,6.877,0.002c3.069-2.905,7.114-5.711,11.019-5.39 c-1.396,2.56-2.185,5.326-2.276,8.222c-0.164,5.277,1.937,10.825,6.111,16.232c-6.352,8.19-6.688,15.058-5.697,19.584 c0.957,4.377,3.952,10.237,12.497,14.837c-2.705,9.419-0.575,15.605,1.918,19.279c0.569,0.839,1.277,1.708,2.131,2.562 c-4.196-0.014-8.242,0.175-12.117,0.568c-14.33-8.589-21.742-36.715-23.417-47.11c-0.438-2.726-3.005-4.582-5.727-4.145 c-2.727,0.436-4.583,3-4.147,5.727c0.24,1.495,5.203,31.454,20.406,47.735c-3.368,0.842-6.553,1.875-9.547,3.095 c-4.612-6.39-15.887-17.624-38.197-17.624c-0.259,0-0.521,0.001-0.783,0.005c-2.761,0.032-4.974,2.297-4.941,5.058 c0.032,2.741,2.265,4.941,4.999,4.941c0.02,0,0.039,0,0.06,0c0.22-0.002,0.435-0.004,0.652-0.004 c16.612,0,25.32,7.482,29.182,12.246c-0.665,0.423-1.322,0.854-1.958,1.303c-9.493,6.692-15.441,16.026-17.202,26.991 c-0.974,6.053-0.921,12.201,0.001,18.178c-3.716,0.984-6.77,0.816-8.78-0.549c-2.587-1.756-3.978-5.833-3.914-11.479 c0.015-1.345-0.513-2.64-1.465-3.591c-0.95-0.951-2.282-1.515-3.591-1.464C27.425,194.722,23.312,193.346,21.555,190.757z M212.681,388.514c-96.661,0-175.756-76.594-179.804-172.271c1.138,1.399,2.356,2.457,3.512,3.241 c2.26,1.534,5.551,2.92,10.066,2.92c1.975,0,4.187-0.269,6.646-0.903c4.849,14.894,15.182,27.596,28.587,33.313 c18.088,7.714,41.619,14.067,62.946,16.994c7.738,1.063,16.812,1.904,26.129,1.904c12.703,0,25.859-1.565,36.699-6.272 c21.837-9.487,48.846-26.493,65.62-45.053c2.248,0.005,4.627-0.325,7.127-1.005c2.047,3.685,4.361,6.194,6.652,7.898 c-7.224,3.375-14.631,7.593-22.135,12.662c-13.508,9.124-25.496,19.957-34.795,31.425c-21.547,1.9-42.734,6.896-58.432,13.805 c-9.618,4.233-17.062,9.094-22.219,14.444l-26.137-6.788c0.256-2.946-0.338-5.938-1.772-8.577c-2.032-3.743-5.57-6.477-9.705-7.499 l-10.146-2.509c-1.6-0.396-3.246-0.596-4.893-0.596c-4.145,0-8.141,1.241-11.556,3.59l-3.41,2.346 c-8.335,5.732-11.206,16.876-6.68,25.922l7.141,14.268c1.702,3.402,4.316,6.255,7.563,8.25c0.668,0.41,1.484,0.744,2.729,1.116 c2.219,0.664,4.518,1,6.833,1c5.694,0,11.14-2.01,15.462-5.61l30.841,8.805c5.029,7.29,14.794,15.006,32.84,21.7 c19.906,7.384,46.024,11.792,69.865,11.792h0.134c20.482-0.014,43.581-11.461,59.351-21.063 c18.389-11.195,37.43-26.411,50.935-40.703c15.97-16.899,17.687-46.978,3.909-68.477c-5.015-7.826-12.292-13.389-21.168-16.391 c0.16-0.268,0.321-0.535,0.475-0.813c8.326,2.275,13.846,0.347,17.153-1.899c3.283-2.228,7.083-6.597,8.062-15.048 c8.455-0.979,12.828-4.782,15.058-8.067c2.245-3.309,4.174-8.829,1.9-17.155c2.249-1.25,4.054-2.601,5.512-3.983 c2.044,10.918,3.085,22.049,3.085,33.311C392.661,307.78,311.922,388.514,212.681,388.514z"/>
  </g>
</svg>