<?xml version="1.0" encoding="iso-8859-1"?>
<!-- Uploaded to: SVG Repo, www.svgrepo.com, Generator: SVG Repo Mixer Tools -->
<svg fill="#000000" height="800px" width="800px" version="1.1" id="Layer_1" xmlns="http://www.w3.org/2000/svg" xmlns:xlink="http://www.w3.org/1999/xlink" 
	 viewBox="0 0 512 512" xml:space="preserve">
<g>
	<g>
		<path d="M209.689,161.485c-6.516-6.516-15.18-10.104-24.395-10.104c-9.216,0-17.881,3.589-24.397,10.105
			c-13.451,13.452-13.451,35.339,0,48.789c6.516,6.517,15.18,10.105,24.396,10.105c9.215,0,17.878-3.589,24.396-10.105
			C223.14,196.824,223.14,174.937,209.689,161.485z M194.91,195.498c-2.568,2.569-5.984,3.984-9.617,3.984s-7.049-1.415-9.618-3.984
			c-5.302-5.302-5.302-13.932,0.001-19.235c2.569-2.569,5.985-3.984,9.62-3.984c3.633,0,7.049,1.415,9.616,3.983
			C200.214,181.567,200.214,190.195,194.91,195.498z"/>
	</g>
</g>
<g>
	<g>
		<path d="M256.079,221.794l-0.199-0.001c-0.028-0.001-0.055-0.001-0.083-0.001c-5.733,0-10.403,4.626-10.447,10.369
			c-0.045,5.771,4.598,10.486,10.368,10.53l0.201,0.001c0.028,0.001,0.054,0.001,0.081,0.001c5.733,0,10.403-4.626,10.447-10.37
			C266.493,226.551,261.85,221.838,256.079,221.794z"/>
	</g>
</g>
<g>
	<g>
		<path d="M288.586,245.885c-1.738-5.504-7.609-8.553-13.111-6.818c-5.503,1.738-8.556,7.607-6.818,13.111
			c1.539,4.874,0.26,10.135-3.337,13.732c-2.568,2.569-5.984,3.984-9.617,3.984s-7.049-1.416-9.617-3.984
			c-3.596-3.596-4.872-8.857-3.332-13.731c1.739-5.503-1.312-11.374-6.816-13.112c-5.5-1.738-11.373,1.312-13.112,6.816
			c-3.898,12.337-0.647,25.674,8.483,34.804c6.517,6.516,15.181,10.104,24.396,10.104c9.215-0.001,17.878-3.589,24.392-10.105
			C289.228,271.556,292.481,258.22,288.586,245.885z"/>
	</g>
</g>
<g>
	<g>
		<path d="M350.51,302.306c-6.516-6.515-15.18-10.103-24.395-10.103c-9.216,0-17.881,3.588-24.396,10.104
			c-13.451,13.45-13.452,35.338-0.001,48.79c6.515,6.514,15.178,10.103,24.394,10.103c0.001,0,0.001,0,0.002,0
			c9.215,0,17.879-3.588,24.395-10.104c6.515-6.516,10.104-15.18,10.104-24.395C360.614,317.487,357.026,308.823,350.51,302.306z
			 M335.731,336.318c-2.568,2.569-5.983,3.984-9.616,3.984h-0.001c-3.633,0-7.049-1.415-9.617-3.982
			c-5.303-5.304-5.303-13.932,0.001-19.236c2.568-2.569,5.985-3.984,9.618-3.984s7.049,1.415,9.616,3.982
			c2.569,2.568,3.983,5.984,3.983,9.617C339.715,330.334,338.299,333.749,335.731,336.318z"/>
	</g>
</g>
<g>
	<g>
		<path d="M140.794,230.382c-6.515-6.516-15.178-10.104-24.395-10.104s-17.881,3.588-24.397,10.104
			c-13.451,13.451-13.451,35.339-0.001,48.789c6.516,6.516,15.181,10.105,24.396,10.105s17.878-3.588,24.396-10.104
			c6.515-6.516,10.104-15.18,10.104-24.395C150.898,245.561,147.309,236.897,140.794,230.382z M126.015,264.395
			c-2.569,2.569-5.985,3.984-9.618,3.984s-7.049-1.415-9.617-3.984c-5.303-5.303-5.303-13.932,0.001-19.235
			c2.568-2.569,5.984-3.984,9.618-3.984c3.633,0,7.048,1.415,9.617,3.983c2.568,2.568,3.983,5.984,3.983,9.617
			C130,258.411,128.584,261.826,126.015,264.395z"/>
	</g>
</g>
<g>
	<g>
		<path d="M211.204,300.791c-6.516-6.515-15.18-10.103-24.395-10.103c-9.216,0-17.881,3.588-24.397,10.104
			c-13.452,13.451-13.452,35.338-0.001,48.79c6.515,6.515,15.178,10.103,24.394,10.104c0.002,0,0.002,0,0.003,0
			c9.214,0,17.877-3.589,24.396-10.105C224.655,336.129,224.655,314.242,211.204,300.791z M196.425,334.806
			c-2.568,2.569-5.984,3.984-9.616,3.984h-0.001c-3.633-0.001-7.049-1.416-9.617-3.984c-2.569-2.568-3.984-5.984-3.984-9.617
			c0-3.633,1.415-7.05,3.984-9.618c2.568-2.569,5.985-3.984,9.618-3.984c3.633,0,7.049,1.415,9.616,3.985
			C201.729,320.875,201.729,329.502,196.425,334.806z"/>
	</g>
</g>
<g>
	<g>
		<path d="M281.615,371.203c-6.516-6.515-15.18-10.103-24.395-10.103c-9.216,0-17.881,3.588-24.396,10.104
			c-13.452,13.451-13.453,35.338-0.001,48.79c6.515,6.514,15.178,10.103,24.394,10.103c0.001,0,0.002,0,0.002,0
			c9.214,0,17.878-3.589,24.396-10.104C295.065,406.542,295.066,384.655,281.615,371.203z M266.834,405.214
			c-2.568,2.569-5.983,3.984-9.616,3.984c-3.634,0-7.05-1.415-9.618-3.982c-5.303-5.304-5.303-13.932,0.001-19.236
			c2.568-2.569,5.985-3.983,9.618-3.983s7.049,1.415,9.616,3.981C272.138,391.281,272.138,399.91,266.834,405.214z"/>
	</g>
</g>
<g>
	<g>
		<path d="M279.148,92.027c-6.516-6.516-15.18-10.104-24.395-10.104c-9.216,0-17.881,3.588-24.397,10.104
			c-6.515,6.516-10.104,15.181-10.104,24.396s3.588,17.878,10.104,24.395c6.516,6.515,15.179,10.103,24.395,10.104
			c0.001,0,0.002,0,0.003,0c9.214,0,17.877-3.589,24.392-10.104c6.515-6.515,10.104-15.178,10.104-24.395
			C289.252,107.206,285.664,98.543,279.148,92.027z M264.369,126.04c-2.569,2.569-5.984,3.984-9.616,3.984h-0.001
			c-3.634-0.001-7.05-1.416-9.618-3.984c-2.568-2.568-3.983-5.984-3.983-9.617s1.415-7.049,3.984-9.618
			c2.569-2.569,5.985-3.984,9.619-3.984c3.633,0,7.048,1.415,9.616,3.984c2.568,2.568,3.983,5.984,3.983,9.617
			C268.354,120.056,266.939,123.47,264.369,126.04z"/>
	</g>
</g>
<g>
	<g>
		<path d="M349.559,162.436c-6.516-6.515-15.179-10.103-24.395-10.103c-9.216,0-17.88,3.588-24.396,10.104
			c-13.451,13.452-13.452,35.338-0.001,48.79c6.515,6.514,15.178,10.102,24.394,10.103c0.001,0,0.001,0,0.002,0
			c9.214,0,17.878-3.588,24.395-10.103c6.516-6.516,10.105-15.179,10.105-24.395C359.664,177.617,356.075,168.952,349.559,162.436z
			 M334.781,196.448c-2.568,2.569-5.984,3.984-9.616,3.984h-0.001c-3.633,0-7.05-1.415-9.617-3.982
			c-5.303-5.303-5.302-13.932,0.001-19.236c2.568-2.568,5.984-3.983,9.617-3.983c3.633,0,7.049,1.414,9.617,3.981
			c2.568,2.568,3.983,5.984,3.983,9.617C338.765,190.464,337.349,193.88,334.781,196.448z"/>
	</g>
</g>
<g>
	<g>
		<path d="M419.97,232.846c-6.516-6.515-15.18-10.103-24.395-10.103c-9.216,0-17.881,3.588-24.397,10.104
			c-6.515,6.517-10.104,15.181-10.104,24.396c0,9.216,3.588,17.88,10.104,24.396c6.515,6.515,15.178,10.103,24.394,10.104
			c0.002,0,0.002,0,0.003,0c9.214,0,17.877-3.589,24.394-10.106c6.515-6.516,10.104-15.179,10.104-24.395
			C430.074,248.025,426.485,239.362,419.97,232.846z M405.191,266.861c-2.569,2.569-5.984,3.984-9.616,3.984h-0.001
			c-3.634,0-7.05-1.415-9.618-3.983c-2.569-2.568-3.984-5.984-3.984-9.617c0-3.634,1.415-7.049,3.984-9.618
			c2.569-2.569,5.985-3.984,9.62-3.984c3.633,0,7.048,1.415,9.617,3.983c2.568,2.568,3.983,5.984,3.983,9.617
			C409.175,260.877,407.76,264.292,405.191,266.861z"/>
	</g>
</g>
<g>
	<g>
		<path d="M493.113,256.016c1.491-1.186,2.925-2.465,4.294-3.834c19.431-19.431,19.431-51.047,0-70.478
			c-9.411-9.411-21.922-14.593-35.23-14.593c-2.135,0-4.25,0.134-6.336,0.397c1.849-14.78-2.871-30.243-14.135-41.507
			c-9.411-9.411-21.922-14.593-35.23-14.593c-2.136,0-4.25,0.135-6.336,0.398c1.848-14.78-2.871-30.243-14.136-41.507
			c-9.411-9.409-21.922-14.592-35.23-14.592c-2.135,0-4.25,0.135-6.336,0.398c1.849-14.78-2.871-30.243-14.135-41.507
			C320.888,5.185,308.373,0,295.061,0c-13.311,0-25.827,5.185-35.238,14.598c-1.355,1.355-2.624,2.774-3.8,4.251
			c-1.178-1.477-2.445-2.894-3.8-4.251c-9.414-9.413-21.929-14.596-35.24-14.596c-13.312,0-25.827,5.184-35.241,14.597
			c-11.306,11.305-16.032,26.738-14.182,41.495c-2.068-0.259-4.164-0.39-6.281-0.39c-13.312,0-25.827,5.184-35.24,14.596
			c-11.305,11.306-16.032,26.737-14.182,41.495c-2.068-0.258-4.163-0.39-6.28-0.39c-13.311,0-25.826,5.185-35.24,14.597
			c-11.306,11.305-16.033,26.738-14.183,41.495c-2.067-0.258-4.163-0.389-6.28-0.389c-13.311,0-25.826,5.184-35.24,14.596
			c-9.413,9.413-14.596,21.927-14.596,35.24c0,13.312,5.184,25.827,14.596,35.24c1.355,1.356,2.773,2.624,4.25,3.8
			c-1.491,1.186-2.924,2.465-4.292,3.834c-19.43,19.431-19.43,51.048,0,70.478c9.41,9.411,21.922,14.593,35.23,14.593
			c2.137,0,4.253-0.134,6.341-0.398c-1.849,14.783,2.87,30.247,14.131,41.508c9.41,9.409,21.921,14.592,35.229,14.592
			c2.136,0,4.252-0.134,6.341-0.398c-1.851,14.783,2.87,30.247,14.131,41.508c9.409,9.409,21.921,14.591,35.229,14.591
			c2.137,0,4.253-0.134,6.341-0.398c-1.85,14.783,2.87,30.247,14.131,41.508c9.413,9.413,21.928,14.596,35.24,14.596
			c13.312,0,25.827-5.184,35.24-14.598c1.355-1.355,2.623-2.774,3.8-4.251c1.178,1.476,2.445,2.895,3.8,4.251
			c9.413,9.414,21.928,14.597,35.24,14.597s25.827-5.185,35.24-14.597c11.259-11.26,15.979-26.726,14.13-41.508
			c2.088,0.264,4.207,0.398,6.343,0.398c13.307,0,25.819-5.183,35.229-14.592c11.259-11.26,15.979-26.725,14.13-41.508
			c2.088,0.263,4.206,0.398,6.342,0.398c13.308,0,25.82-5.183,35.229-14.593c11.26-11.26,15.98-26.725,14.13-41.508
			c2.089,0.264,4.206,0.398,6.343,0.398c13.308,0,25.82-5.183,35.229-14.592c9.413-9.414,14.596-21.928,14.596-35.24
			c0-13.311-5.184-25.826-14.596-35.24C496.008,258.46,494.589,257.192,493.113,256.016z M465.841,266.367
			c6.394,0.821,12.185,3.667,16.745,8.228c5.466,5.466,8.476,12.733,8.476,20.463c-0.001,7.729-3.01,14.997-8.476,20.463
			c-5.463,5.463-12.725,8.471-20.451,8.471c-7.602,0-14.781-2.924-20.217-8.232c-4.05-3.956-10.53-3.95-14.592-0.008
			c-1.994,1.933-3.136,4.581-3.173,7.358c-0.038,2.777,1.031,5.456,2.972,7.443c11.016,11.279,10.908,29.522-0.239,40.668
			c-5.463,5.463-12.726,8.472-20.452,8.472c-7.601,0-14.78-2.924-20.216-8.232c-4.051-3.956-10.534-3.949-14.596-0.004
			c-1.993,1.934-3.133,4.582-3.17,7.358c-0.037,2.777,1.032,5.454,2.973,7.441c11.014,11.279,10.907,29.522-0.239,40.668
			c-5.463,5.463-12.726,8.471-20.452,8.471c-7.601,0-14.78-2.923-20.216-8.231c-4.094-3.999-10.659-3.941-14.707,0.104
			c-4.047,4.047-4.086,10.595-0.087,14.689c11.013,11.278,10.906,29.521-0.24,40.668c-5.465,5.465-12.732,8.475-20.461,8.475
			c-7.73,0-14.998-3.01-20.463-8.476c-4.539-4.538-7.381-10.3-8.218-16.66c-0.684-5.198-5.117-9.086-10.36-9.084
			c-5.244,0.001-9.676,3.887-10.359,9.087c-0.837,6.358-3.678,12.119-8.218,16.659c-5.466,5.466-12.732,8.475-20.463,8.475
			c-7.729,0-14.998-3.01-20.463-8.475c-11.149-11.149-11.255-29.397-0.235-40.675c1.941-1.988,3.004-4.676,2.966-7.455
			c-0.039-2.779-1.191-5.437-3.188-7.37c-2.027-1.961-4.648-2.941-7.268-2.941c-2.636,0-5.273,0.993-7.3,2.974
			c-5.437,5.311-12.618,8.236-20.222,8.236c-7.726,0-14.989-3.008-20.452-8.471c-11.15-11.149-11.255-29.397-0.235-40.675
			c4-4.094,3.946-10.659-0.101-14.707c-4.048-4.047-10.599-4.085-14.691-0.086c-5.438,5.311-12.619,8.237-20.223,8.237
			c-7.725,0-14.988-3.009-20.452-8.472c-11.149-11.148-11.255-29.396-0.235-40.674c3.961-4.054,3.952-10.544-0.002-14.607
			c-1.935-1.987-4.582-3.125-7.356-3.16c-2.785-0.036-5.449,1.036-7.434,2.974c-5.438,5.312-12.619,8.237-20.223,8.237
			c-7.726,0-14.99-3.009-20.453-8.472c-11.282-11.282-11.282-29.641,0-40.924c4.568-4.568,10.37-7.415,16.776-8.231
			c5.215-0.665,9.125-5.101,9.128-10.359c0.002-5.258-3.902-9.699-9.117-10.37c-6.394-0.821-12.185-3.667-16.745-8.228
			c-5.466-5.466-8.476-12.733-8.476-20.463s3.01-14.997,8.476-20.462c5.466-5.466,12.733-8.476,20.463-8.476
			c7.728,0,14.995,3.009,20.459,8.473c4.08,4.079,10.696,4.078,14.776-0.001c4.08-4.08,4.08-10.696,0.001-14.776
			c-11.28-11.283-11.279-29.64,0.002-40.921c5.466-5.466,12.733-8.476,20.463-8.476c7.713,0,14.965,2.999,20.428,8.443
			c0.009,0.009,0.019,0.019,0.028,0.028v0.001c0,0,0.001,0.001,0.002,0.001c4.081,4.081,10.697,4.079,14.776,0
			c4.08-4.08,4.08-10.696,0.001-14.776c-11.279-11.283-11.278-29.641,0.003-40.922c5.466-5.465,12.732-8.475,20.463-8.475
			c7.715,0,14.967,2.998,20.43,8.443c0.009,0.009,0.018,0.018,0.027,0.027c0.001,0.001,0.002,0.002,0.002,0.002
			c4.081,4.08,10.696,4.079,14.776-0.001c4.08-4.08,4.08-10.696,0.001-14.776c-11.279-11.284-11.278-29.641,0.003-40.922
			c5.465-5.466,12.733-8.476,20.463-8.476c7.729,0,14.998,3.01,20.463,8.475c4.539,4.54,7.381,10.301,8.218,16.66
			c0.684,5.199,5.116,9.086,10.36,9.086c5.243,0,9.676-3.887,10.359-9.087c0.836-6.358,3.678-12.119,8.218-16.659
			c5.466-5.466,12.733-8.476,20.463-8.476c7.73,0,14.998,3.01,20.464,8.475c11.159,11.159,11.256,29.413,0.217,40.692
			c-4.015,4.101-3.955,10.687,0.115,14.734c4.052,4.029,10.591,4.056,14.676,0.058c5.439-5.322,12.628-8.254,20.241-8.254
			c7.726,0,14.989,3.008,20.452,8.472c11.159,11.159,11.257,29.413,0.217,40.692c-3.956,4.043-3.962,10.515-0.032,14.584
			c1.933,2.002,4.586,3.149,7.369,3.189c2.778,0.024,5.466-1.033,7.456-2.98c5.439-5.323,12.627-8.255,20.24-8.255
			c7.725,0,14.989,3.008,20.452,8.472c11.159,11.16,11.256,29.414,0.217,40.693c-4.005,4.093-3.955,10.662,0.094,14.712
			c4.049,4.05,10.604,4.086,14.697,0.079c5.44-5.323,12.628-8.254,20.241-8.254c7.726,0,14.989,3.008,20.453,8.472
			c11.282,11.282,11.282,29.641,0,40.923c-4.569,4.569-10.371,7.416-16.776,8.232c-5.215,0.665-9.125,5.101-9.128,10.359
			C456.723,261.254,460.626,265.696,465.841,266.367z"/>
	</g>
</g>
</svg>