<?xml version="1.0" encoding="utf-8"?>
<svg viewBox="0 0 24 24" width="24px" height="24px" style="fill: currentcolor;" xmlns="http://www.w3.org/2000/svg">
  <path d="M 12 22 C 6.477 22 2 17.523 2 12 C 2 6.477 6.477 2 12 2 C 17.523 2 22 6.477 22 12 C 22 17.523 17.523 22 12 22 Z M 12 20 C 16.418 20 20 16.418 20 12 C 20 7.582 16.418 4 12 4 C 7.582 4 4 7.582 4 12 C 4 16.418 7.582 20 12 20 Z M 11 7 L 13 7 L 13 9 L 11 9 L 11 7 Z M 11 11 L 13 11 L 13 17 L 11 17 L 11 11 Z" style="paint-order: fill; fill: rgb(0, 0, 0);"/>
</svg>